<svg width="48" height="48" viewBox="0 0 48 48" fill="none" xmlns="http://www.w3.org/2000/svg">
<path d="M42.9949 19.3469C43.6109 19.0409 44 18.4154 44 17.7313C44 17.0471 43.6109 16.4216 42.9949 16.1157L25.4171 7.38379C25.2475 7.29779 24.8964 7.11981 24.5029 7.04646C24.1705 6.98451 23.8295 6.98451 23.4971 7.04646C23.1036 7.11981 22.7525 7.29779 22.5829 7.38378L5.00507 16.1157C4.3891 16.4216 4 17.0471 4 17.7313C4 18.4154 4.3891 19.0409 5.00507 19.3469L22.6963 28.1581C23.1742 28.3961 23.4132 28.5152 23.664 28.562C23.886 28.6035 24.114 28.6035 24.336 28.562C24.5868 28.5152 24.8258 28.3961 25.3037 28.1581L42.9949 19.3469Z" fill="black"/>
<path d="M38.5394 25.9644C38.5392 25.1888 38.5391 24.801 38.375 24.5679C38.2316 24.3643 38.0104 24.2285 37.7629 24.1922C37.4796 24.1506 37.1308 24.3239 36.4331 24.6705L25.4171 30.1428C25.2475 30.2288 24.8964 30.4068 24.5029 30.4802C24.1705 30.5421 23.8295 30.5421 23.4971 30.4802C23.1036 30.4068 22.7525 30.2288 22.5829 30.1428L11.5666 24.6704C10.8689 24.3238 10.52 24.1505 10.2368 24.192C9.98926 24.2284 9.76811 24.3641 9.62469 24.5678C9.46054 24.8009 9.46047 25.1887 9.46033 25.9643C9.46012 27.1213 9.45846 30.2784 9.45404 31.4353C9.45213 31.9339 9.44974 32.5606 9.65314 33.1464C9.82889 33.6526 10.1157 34.1137 10.4929 34.4963C10.9293 34.939 11.4946 35.2171 11.9443 35.4384C15.2957 37.0925 18.644 38.753 21.9856 40.4261C22.354 40.6106 22.8175 40.8427 23.3293 40.938C23.7725 41.0206 24.2272 41.0206 24.6704 40.9381C25.1821 40.8427 25.6457 40.6106 26.0141 40.4261C29.3557 38.7531 32.7021 37.0883 36.0554 35.4384C36.5051 35.2171 37.0704 34.939 37.5068 34.4963C37.884 34.1137 38.1708 33.6526 38.3466 33.1464C38.55 32.5606 38.5476 31.9339 38.5457 31.4353C38.5412 30.2784 38.5396 27.1214 38.5394 25.9644Z" fill="black"/>
</svg>
