<svg width="120" height="120" viewBox="0 0 120 120" fill="none" xmlns="http://www.w3.org/2000/svg">
<g clip-path="url(#clip0_78_1606)">
<path d="M60 120C93.1371 120 120 93.1371 120 60C120 26.8629 93.1371 0 60 0C26.8629 0 0 26.8629 0 60C0 93.1371 26.8629 120 60 120Z" fill="black"/>
<path d="M47.0793 62.0749C46.0521 61.5385 45.0455 61.1301 43.9316 60.9156C42.3681 60.6145 39.5669 60.6475 38.0942 61.4437C40.6849 61.4932 43.7542 61.881 45.883 63.6796C42.7188 62.9948 39.7567 64.055 36.9019 65.1854C34.0471 66.3158 31.9721 66.7778 28.8367 65.796C27.9292 65.5113 27.2773 64.7811 27.0628 63.8529C26.9432 63.3372 26.9061 62.8174 26.873 62.2852C26.8235 61.4519 27.5991 61.1054 28.2716 60.7671C29.0678 60.3669 29.8268 59.9338 30.5199 59.3727C30.9737 59.0055 31.2831 58.5022 31.312 57.9041L29.9011 58.3537C28.0612 58.9395 25.9613 59.546 24.0554 59.022C23.5933 58.8942 23.2551 58.5724 22.9622 58.2052C23.5521 57.574 24.0966 57.0171 24.7567 56.4849L32.4341 50.2679C32.6115 50.1277 32.6734 49.975 32.6651 49.7564C32.6445 49.1046 32.6197 48.5022 32.6321 47.8381C32.6569 46.423 33.1767 45.1029 34.1792 44.0674C36.7287 41.4272 39.864 39.4428 43.3004 38.1268C46.0108 37.0872 49.7526 36.2209 52.661 36.2291C52.7476 36.4107 52.6775 36.5674 52.6115 36.8067C54.9589 35.2308 57.3681 33.8818 60.194 33.2547C62.2237 32.8051 64.2782 32.739 66.3079 33.1475C67.0958 33.3083 67.8343 33.5394 68.515 33.9767C64.4968 34.5749 60.4003 35.7712 57.0876 38.0856C60.5942 37.7597 64.2905 38.1062 67.463 39.5047C68.6676 40.0369 69.8021 40.664 70.8376 41.5551L66.1759 40.8537C63.2509 40.4123 58.3499 40.5361 55.4745 41.357L57.3764 42.0872C58.0859 42.3595 58.7377 42.6524 59.4102 43.0154C61.6998 44.2572 63.5892 44.6079 66.1346 45.0534C71.5925 46.0105 76.6462 49.0262 79.6536 53.7168L82.3227 57.8752C82.3846 57.9824 82.3846 57.9536 82.3805 57.8257C82.4052 53.0072 80.5405 48.6838 77.364 45.0781C79.2905 45.4082 80.9613 46.192 82.463 47.3843L85.1321 49.5047C85.1651 49.5336 85.2683 49.5336 85.26 49.5253C83.7749 45.6475 81.6008 43.4239 78.1437 41.2456C77.0999 40.5856 76.048 40.0575 74.9135 39.4717C78.2386 38.4527 80.5117 38.8117 83.8615 39.2984C83.1148 38.6673 82.3598 38.1805 81.51 37.7432C78.1396 36.0146 73.5768 34.9503 69.8392 35.8372C69.8227 35.8372 69.7485 35.8455 69.7567 35.8331C69.7732 35.8125 69.8186 35.7465 69.8351 35.7258C70.6189 34.777 71.4811 33.9395 72.5249 33.2836C74.1214 32.277 75.9613 31.8768 77.8178 32.2729C78.5603 32.4296 79.2699 32.6235 79.9506 32.9866C83.6099 34.9544 88.0612 38.2093 90.4539 41.6376L92.3269 44.3232L93.7542 46.4932C94.699 47.9329 95.7963 49.1912 97.0504 50.4206C95.4168 50.6103 92.9003 49.8224 91.411 49.2366C90.7262 48.9684 90.0909 48.725 89.3978 48.4981C91.1387 52.1656 93.68 55.6062 96.312 58.4445C96.378 58.5187 96.4193 58.6013 96.3945 58.6095C96.3698 58.6136 96.3037 58.6301 96.2666 58.6343L94.5381 58.7539C92.3145 58.9065 89.8186 57.9907 87.7188 57.2811C87.6981 57.2729 87.6032 57.2687 87.6115 57.2811C87.6198 57.2935 87.6486 57.3554 87.6693 57.376L90.0909 60.0328C91.4275 61.4973 91.9803 62.2894 92.8425 64.0509C93.1354 64.6491 93.3541 65.2308 93.4902 65.895C93.8285 67.5616 93.9523 69.2366 93.8904 70.9404C93.878 71.2291 93.8326 71.5014 93.7584 71.7613C92.265 69.6037 90.7014 67.6194 88.5603 66.027C88.8326 67.1491 89.0843 68.197 89.2369 69.3397C89.765 73.2918 89.0678 76.8768 87.2773 80.4288C87.2485 80.4494 87.2072 80.4742 87.2031 80.4536L87.1907 80.305C86.9473 77.2357 86.4358 73.5889 85.1445 70.8991C85.4622 79.81 81.7369 86.6417 74.2988 91.258L74.2122 91.3116C74.1915 91.324 74.1503 91.2498 74.1544 91.2168C74.4267 88.7415 74.6577 86.324 74.7938 83.8364C74.8764 82.3636 74.7773 80.4866 74.1008 79.1087C73.2716 82.0006 72.5496 84.2778 71.0768 86.8521C70.6643 87.5699 70.2559 88.2258 69.7361 88.8818C68.4778 90.4742 67.0504 91.8892 65.4539 93.1392C65.0207 93.4775 64.6329 93.7539 64.109 94.0468L65.9696 88.7786C65.916 88.8158 65.8582 88.8529 65.8541 88.8653L65.524 89.3314C65.3095 89.6326 65.0826 89.8801 64.8268 90.1524C63.7914 91.2456 62.5909 92.1244 61.312 92.9164L61.2336 92.9659L61.1594 93.0113C60.2806 93.5435 59.3895 93.9932 58.4366 94.3933C58.3582 94.4263 56.8937 94.9833 57.0917 94.8224C57.0917 94.8224 57.1536 94.7481 57.1701 94.7275L57.2278 94.6656C59.3194 92.4874 61.0727 89.1417 61.2254 86.0806C61.2749 85.1277 61.345 84.2613 61.5306 83.3248C61.8607 81.6706 62.2815 80.074 62.7724 78.461C62.7806 78.4404 62.793 78.3702 62.8013 78.3455C63.3499 76.9098 63.6387 75.3257 63.7419 73.7786L63.8821 71.6376C63.8821 71.6376 63.8904 71.5633 63.9027 71.4849C64.8681 72.8876 65.293 74.5171 65.3962 76.2621L65.4044 76.3777L65.4127 76.489V76.5922C65.524 78.8199 65.0331 80.9857 64.5546 83.164L64.5339 83.2588L64.5133 83.3496L64.4927 83.4404L64.4721 83.5352L64.4514 83.6301L64.4308 83.7291L64.4102 83.8281L64.3896 83.9272L64.3689 84.022L64.3483 84.1128L64.3277 84.2036L64.307 84.2984L64.2864 84.3933L64.1957 84.8348L64.1668 84.9791C64.1668 84.9791 64.1998 84.9874 64.2452 84.9998C66.9844 81.4767 68.4613 76.8149 67.9457 72.3554C67.7146 70.3422 67.1082 68.4321 66.1594 66.6499C64.0018 62.5947 60.1816 59.8389 55.6602 59.022C55.5034 58.9932 52.8838 58.6631 53.3169 58.9313L55.0207 59.9915C56.6668 61.0146 58.0405 62.3554 59.1297 63.9725C60.128 65.4536 60.6973 67.1821 60.8046 69.022C58.5892 66.5097 56.444 64.5749 53.3417 63.428L53.2386 63.4404C54.4473 65.3752 55.5199 67.3636 55.5777 69.678C55.6396 72.1326 54.8598 74.7481 53.5892 76.8108C53.5727 76.8397 53.5232 76.881 53.5108 76.8975C53.4985 76.914 53.4737 76.8026 53.4737 76.7778C53.6965 74.1169 53.7707 71.8397 52.892 69.2819C51.8318 66.2044 50.062 63.6301 47.0958 62.079L47.0793 62.0749ZM46.609 49.9049C46.7658 49.2902 47.2443 48.923 47.7518 48.6425C48.5768 48.1887 49.3813 47.8216 50.2848 47.5658C48.6635 46.6087 46.4275 46.7077 44.7237 47.31C43.7831 47.64 42.9745 48.1103 42.166 48.6755C41.3532 49.2448 40.5488 49.7687 39.666 50.2184C39.1214 50.4948 38.5438 50.6598 37.9374 50.6392C37.1618 50.6103 36.5636 50.107 36.411 49.3521C36.3202 48.89 36.3574 48.4115 36.4811 47.9536L36.7988 46.7654C34.5793 47.8298 35.0042 49.8719 35.7262 51.7696C35.4787 52.0583 35.1899 52.3059 34.8805 52.5328L33.8161 53.3125C33.449 53.5806 33.1478 53.9065 32.9044 54.3232L35.623 53.3785C37.3227 52.7885 39.2245 53.0278 40.9902 53.2671C42.463 53.4651 43.9399 53.1103 45.0991 52.1862C45.8334 51.6004 46.3656 50.8414 46.6049 49.9049H46.609ZM78.4861 78.8777C79.4102 76.5922 79.5257 73.0649 79.3689 70.6062C79.1544 67.2234 78.0488 64.0468 76.0315 61.357C76.4316 61.3694 76.6585 61.5262 76.9556 61.6582C78.4613 62.5039 80.227 63.7003 81.2914 65.0617C81.1635 63.758 80.4457 62.0831 79.8227 60.9115C78.2757 57.9989 76.2872 55.3381 73.8863 53.0732C72.1577 51.4437 70.1899 50.1937 67.9745 49.3356C65.1404 48.2382 61.6008 47.4956 58.5315 47.6895L64.9424 51.0848C67.7724 52.5823 70.7592 55.1607 72.4424 57.9164C73.1313 59.0468 73.68 60.2225 73.9646 61.5592C71.9061 59.4346 69.9795 57.6359 67.364 56.2952C64.4349 54.9874 60.9531 53.8281 57.6445 54.3232C60.6849 56.093 63.2922 58.0815 65.5117 60.7588C69.0513 65.0369 70.6272 69.9626 70.7303 75.5361C72.1164 72.0336 72.2237 68.2753 71.0975 64.5914C76.2749 67.508 77.9787 73.2836 78.4861 78.8777ZM41.675 58.7209L44.8681 58.4404C42.1164 57.3389 38.7006 57.8051 36.3285 59.3686L41.675 58.7209Z" fill="#F6921E"/>
<path d="M55.6808 33.3167C54.7196 33.7664 53.8533 34.1583 53.0076 34.7483C51.1058 34.6616 49.2864 34.7978 47.4053 35.1237C47.5744 34.8596 47.7394 34.6327 47.9457 34.3976C48.944 33.2507 50.0166 32.2153 51.1676 31.221C51.4894 30.9405 51.7699 30.6847 52.1 30.3629C51.1429 30.4372 50.3178 30.8291 49.4473 31.2128C48.4201 31.7697 47.4383 32.3184 46.4935 33.0156L42.8054 35.7466C43.317 33.9933 44.1709 32.4339 45.2229 30.99C46.4564 29.2986 47.9539 27.8753 49.7155 26.7615C51.6586 25.5362 53.8038 24.8679 56.0934 24.7524C58.3087 24.641 60.4704 24.8225 62.6404 25.3093C63.9234 25.594 65.1363 25.8539 66.4275 26.2582C64.4556 26.353 62.4548 26.4108 60.5323 27.0214C58.7955 27.5742 56.3161 28.6468 54.9878 29.872C61.048 27.5865 67.6487 27.4215 73.8203 29.0511L70.2188 29.4966C67.7477 29.8019 65.3384 30.2103 62.9086 30.7837C60.4787 31.3572 58.0323 32.2111 55.6726 33.3209L55.6808 33.3167Z" fill="#F6921E"/>
<path d="M43.8203 88.8036C42.0959 88.5272 40.6107 87.5 39.1998 86.4769C38.9482 87.1576 39.1338 87.8342 39.2535 88.5602C37.0134 87.4959 35.1487 84.8144 35.2724 82.3597C36.9226 82.4835 38.4902 82.5784 40.1322 82.5371C43.4737 82.4546 45.7262 80.4703 47.4053 77.7599C48.614 75.8045 49.6949 73.8408 50.8211 71.7739C51.3038 73.1683 51.0728 75.2888 50.7716 76.6749C50.4622 78.1147 49.8021 79.3729 48.8987 80.5198L47.6239 82.1328C46.5761 83.4612 46.0274 85.6023 45.982 87.3185L43.7048 86.5759C43.5274 87.071 43.5191 87.5701 43.6429 88.0693L43.8244 88.7995L43.8203 88.8036Z" fill="#F6921E"/>
<path d="M40.1858 37.5949L37.7229 38.9646C37.9168 35.1444 39.2369 31.3573 42.2856 28.9109C43.7336 27.7434 45.425 26.9349 47.2691 26.5388C46.4028 27.4175 45.5983 28.123 44.8392 28.9811C43.6552 30.3094 42.6775 31.7327 41.9267 33.354L40.1816 37.5949H40.1858Z" fill="#F6921E"/>
<path d="M50.9531 95.5651C52.2073 94.0469 53.3624 92.5741 54.3566 90.9116C56.3657 87.6071 57.5662 84.2491 57.8384 80.3423C59.2081 83.3002 59.1916 86.6913 57.9374 89.6203C57.0175 91.7697 55.4168 93.4858 53.3789 94.608C52.6115 94.9958 51.8978 95.367 50.9531 95.5651Z" fill="#F6921E"/>
<path d="M44.5091 76.9802C44.1378 77.4381 43.5768 77.6897 43.0652 77.8795C42.1906 78.2054 41.4068 77.566 40.9736 76.8564C42.0999 75.6807 42.6733 74.2038 43.288 72.7434C44.0759 70.8746 45.8251 69.7566 47.8383 70.3176C47.8383 70.4703 47.7764 70.6023 47.6939 70.7219C46.4151 72.6567 46.5471 74.4472 44.5009 76.9802H44.5091Z" fill="#F6921E"/>
<path d="M37.001 72.6484C35.5984 71.6294 33.8822 69.4677 34.0225 67.6649L36.7081 67.1533C36.5225 68.0279 36.4565 68.8942 36.5101 69.7853C36.5679 70.7466 36.7617 71.6129 37.001 72.6484Z" fill="#F6921E"/>
<path d="M23.383 60.9158C25.1734 61.2541 26.2337 64.641 26.5101 66.1715C24.8145 65.2062 23.0241 62.863 23.383 60.9158Z" fill="#F6921E"/>
<path d="M43.3665 79.2904C43.0158 80.1608 42.3021 80.924 41.2831 80.7631C40.1445 80.5858 39.4721 78.3044 39.5257 77.2896L41.1676 78.5148C41.8565 78.9273 42.5414 79.1914 43.3665 79.2904Z" fill="#F6921E"/>
<path d="M29.8764 69.5751L30.1116 71.4109C28.8904 70.524 27.7188 68.4943 27.6116 66.9431C28.3335 67.2731 29.006 67.5372 29.7733 67.6609L29.8764 69.5751Z" fill="#F6921E"/>
<path d="M34.7442 77.4256C35.689 78.1063 35.6477 79.0222 35.2104 80.0329C34.1626 79.2285 33.6469 77.9578 33.882 76.6377C34.1749 76.9595 34.4266 77.1946 34.7442 77.4256Z" fill="#F6921E"/>
<path d="M41.6297 51.9389C41.3739 51.811 41.3285 51.2541 41.4729 51.0726C41.7452 50.7343 41.8566 51.7038 42.4341 51.5553C43.0406 51.3985 42.6693 50.6188 42.8137 50.2021C43.1354 49.8226 44.5216 49.0841 44.8722 49.4101C45.1156 49.6328 44.93 50.1237 44.7567 50.3878C44.3112 51.0726 43.6841 51.613 42.9085 51.8936C42.5208 52.0338 42.0463 52.1452 41.6297 51.9389Z" fill="#F6921E"/>
</g>
<defs>
<clipPath id="clip0_78_1606">
<rect width="120" height="120" fill="white"/>
</clipPath>
</defs>
</svg>
