<svg width="120" height="120" viewBox="0 0 120 120" fill="none" xmlns="http://www.w3.org/2000/svg">
<g clip-path="url(#clip0_78_1413)">
<path d="M60 120C93.1371 120 120 93.1371 120 60C120 26.8629 93.1371 0 60 0C26.8629 0 0 26.8629 0 60C0 93.1371 26.8629 120 60 120Z" fill="black"/>
<path fill-rule="evenodd" clip-rule="evenodd" d="M74.365 35.2725V39.0555H79.1793V37.0753H78.3749V35.2725H74.365Z" fill="#F6921E"/>
<path d="M70.6685 35.7922H68.4985V39.0926H70.6685V35.7922Z" fill="#F6921E"/>
<path fill-rule="evenodd" clip-rule="evenodd" d="M72.8428 25.4331V30.3423L86.0812 30.3382V25.4331H83.7256V28.325H80.6728V25.4331H78.2512V28.325H75.1901V25.4331H72.8428Z" fill="#F6921E"/>
<path fill-rule="evenodd" clip-rule="evenodd" d="M33.969 49.0183H41.2792V45.1404H34.0763L33.969 49.0183Z" fill="#F6921E"/>
<path fill-rule="evenodd" clip-rule="evenodd" d="M84.5548 30.9285H74.365V34.7156H78.3749V32.2403H80.5407V34.7156H84.5548V30.9285Z" fill="#F6921E"/>
<path fill-rule="evenodd" clip-rule="evenodd" d="M39.9837 62.8879H33.577L33.4656 66.7617H38.6636C39.0349 65.4498 39.4681 64.1586 39.9796 62.8879H39.9837Z" fill="#F6921E"/>
<path d="M50.0333 35.7922H47.8674V39.0926H50.0333V35.7922Z" fill="#F6921E"/>
<path fill-rule="evenodd" clip-rule="evenodd" d="M85.4746 62.8879H79.105C79.6454 64.1586 80.0868 65.4498 80.4622 66.7617H85.5778L85.4705 62.8879H85.4746Z" fill="#F6921E"/>
<path fill-rule="evenodd" clip-rule="evenodd" d="M81.176 67.3269H80.615C80.8295 68.1479 81.0152 68.9771 81.176 69.8022V67.3269Z" fill="#F6921E"/>
<path fill-rule="evenodd" clip-rule="evenodd" d="M80.5408 37.0753H79.7363V39.0555H84.5548V35.2725H80.5408V37.0753Z" fill="#F6921E"/>
<path fill-rule="evenodd" clip-rule="evenodd" d="M52.5581 20.5076V25.4127H66.502V20.5076H64.002V23.4036H60.8172V20.5076H58.2347V23.4036H55.054V20.5076H52.5581Z" fill="#F6921E"/>
<path fill-rule="evenodd" clip-rule="evenodd" d="M40.5533 37.0752H39.7529V39.0596H44.5714V35.2683H40.5533V37.0752Z" fill="#F6921E"/>
<path fill-rule="evenodd" clip-rule="evenodd" d="M86.2008 40.7261L86.5226 39.6535L32.5168 39.6494L32.8469 40.7261H86.2008Z" fill="#F6921E"/>
<path fill-rule="evenodd" clip-rule="evenodd" d="M34.3774 35.2683V39.0596H39.1959V37.0752H38.3915V35.2683H34.3774Z" fill="#F6921E"/>
<path fill-rule="evenodd" clip-rule="evenodd" d="M44.5713 30.9285H34.3774V34.7156H38.3915V32.2403H40.5532V34.7156H44.5713V30.9285Z" fill="#F6921E"/>
<path fill-rule="evenodd" clip-rule="evenodd" d="M32.8552 25.4292V30.3426L46.0895 30.3384V25.4292H43.7422V28.3252H40.6853V25.4292H38.2636V28.3252H35.2067V25.4292H32.8552Z" fill="#F6921E"/>
<path d="M59.1752 35.2354H53.8823V39.0926H59.1752V35.2354Z" fill="#F6921E"/>
<path d="M65.1695 35.2312H59.7322V39.0885H65.1695V35.2312Z" fill="#F6921E"/>
<path fill-rule="evenodd" clip-rule="evenodd" d="M63.5028 30.3508H60.6109V32.6941H58.441V30.3508H55.5449V34.6784H63.5028V30.3508Z" fill="#F6921E"/>
<path d="M65.1696 30.3508H64.0598V34.6784H65.1696V30.3508Z" fill="#F6921E"/>
<path fill-rule="evenodd" clip-rule="evenodd" d="M65.1694 26.0027H59.8022V27.8632H60.6108V29.7857H65.1694V26.0027Z" fill="#F6921E"/>
<path d="M54.9879 30.3508H53.8823V34.6784H54.9879V30.3508Z" fill="#F6921E"/>
<path fill-rule="evenodd" clip-rule="evenodd" d="M58.4409 27.8632H59.2454V26.0027H53.8823V29.7857H58.4409V27.8632Z" fill="#F6921E"/>
<path fill-rule="evenodd" clip-rule="evenodd" d="M38.511 67.3269H37.8674V70.2023C38.0572 69.2328 38.2676 68.2757 38.511 67.3269Z" fill="#F6921E"/>
<path d="M81.1761 49.5793H73.5647V53.4531H81.1761V49.5793Z" fill="#F6921E"/>
<path fill-rule="evenodd" clip-rule="evenodd" d="M77.7725 54.01V57.892H85.3302L85.223 54.01H77.7725Z" fill="#F6921E"/>
<path fill-rule="evenodd" clip-rule="evenodd" d="M85.4582 62.3269L85.3468 58.449H81.7371V62.3269H85.4582Z" fill="#F6921E"/>
<path fill-rule="evenodd" clip-rule="evenodd" d="M81.7329 41.2954V44.5834H84.959L84.8641 41.2954H81.7329Z" fill="#F6921E"/>
<path fill-rule="evenodd" clip-rule="evenodd" d="M73.0035 53.4531V49.5793L68.02 49.6412C69.7114 50.7633 71.2997 52.0381 72.7519 53.4531H73.0035Z" fill="#F6921E"/>
<path d="M77.2157 45.1404H68.8577V49.0183H77.2157V45.1404Z" fill="#F6921E"/>
<path fill-rule="evenodd" clip-rule="evenodd" d="M77.7725 49.0183H85.0827L84.9713 45.1404H77.7725V49.0183Z" fill="#F6921E"/>
<path fill-rule="evenodd" clip-rule="evenodd" d="M81.7329 49.5793V53.4531H85.2024L85.0992 49.5793H81.7329Z" fill="#F6921E"/>
<path fill-rule="evenodd" clip-rule="evenodd" d="M81.176 62.3269V58.449H76.7825C77.558 59.6907 78.2511 60.9944 78.8576 62.3269H81.1719H81.176Z" fill="#F6921E"/>
<path fill-rule="evenodd" clip-rule="evenodd" d="M81.7371 70.9902C81.8732 71.0604 82.0052 71.1305 82.1496 71.2048H81.7371V70.9902Z" fill="#F6921E"/>
<path fill-rule="evenodd" clip-rule="evenodd" d="M85.7098 71.2048H83.0654C82.6405 70.9572 82.195 70.7303 81.7371 70.5158V67.3228H85.5943L85.7057 71.2048H85.7098Z" fill="#F6921E"/>
<path d="M73.0078 41.2954H64.8972V44.5834H73.0078V41.2954Z" fill="#F6921E"/>
<path fill-rule="evenodd" clip-rule="evenodd" d="M80.6232 70.0125C80.289 69.864 79.9549 69.7196 79.629 69.5793C78.9689 66.4069 77.855 63.3582 76.1801 60.4127C72.4219 54.1998 66.2709 49.7732 59.596 47.232C59.596 47.232 59.5918 47.2347 59.5836 47.2402C57.5415 47.793 55.5984 48.6016 53.7461 49.6247V49.6165C53.7461 49.6165 53.7338 49.6165 53.7255 49.6247C50.0003 51.7864 46.7824 54.6206 44.2041 58.1602C41.4937 62.1123 39.9425 66.5678 39.1958 71.213H39.1752L38.1892 71.2006C38.9607 66.6544 40.6851 62.0216 42.9128 58.4242L43.3088 57.8219C47.3105 52.0958 53.0283 48.3871 59.4763 46.1594C59.4763 46.1594 59.4805 46.1566 59.4887 46.1511C63.0077 47.3929 66.407 49.0472 69.3649 51.279C75.4169 55.8458 79.2164 62.6775 80.6438 70.0208C80.6356 70.0208 80.6314 70.0125 80.6232 70.0125Z" fill="#F6921E"/>
<path fill-rule="evenodd" clip-rule="evenodd" d="M80.8584 71.2047H80.4954C80.318 71.1263 80.1406 71.0562 79.9549 70.9861C79.9343 70.9778 79.9054 70.9654 79.8848 70.9654C79.8766 70.9159 79.8724 70.8747 79.8642 70.8252C79.8518 70.7468 79.8353 70.6684 79.8229 70.59C79.7941 70.425 79.7652 70.2559 79.7322 70.095C80.0581 70.2352 80.3922 70.3796 80.7264 70.5281C80.7346 70.5281 80.7388 70.5364 80.747 70.5364C80.7842 70.7262 80.8172 70.9283 80.846 71.1181C80.8543 71.1469 80.8543 71.18 80.8584 71.2088V71.2047Z" fill="#F6921E"/>
<path fill-rule="evenodd" clip-rule="evenodd" d="M76.4111 57.892H77.2156V54.01L73.3459 54.0306C73.445 54.0306 75.1199 56.0191 76.4111 57.892Z" fill="#F6921E"/>
<path d="M81.1761 41.2954H73.5647V44.5834H81.1761V41.2954Z" fill="#F6921E"/>
<path fill-rule="evenodd" clip-rule="evenodd" d="M45.648 54.0142H41.8279V57.8879H42.5993C43.5152 56.5059 44.5177 55.2188 45.648 54.0142Z" fill="#F6921E"/>
<path fill-rule="evenodd" clip-rule="evenodd" d="M33.5894 62.3269H37.3064C37.3064 61.0397 37.3105 59.7444 37.3146 58.449H33.6966L33.5935 62.3269H33.5894Z" fill="#F6921E"/>
<path d="M45.4912 49.5752H37.8674V53.449H45.4912V49.5752Z" fill="#F6921E"/>
<path fill-rule="evenodd" clip-rule="evenodd" d="M33.8411 53.4531H37.3147V49.5752H33.9525L33.8411 53.4531Z" fill="#F6921E"/>
<path d="M45.4912 41.2954H37.8674V44.5834H45.4912V41.2954Z" fill="#F6921E"/>
<path fill-rule="evenodd" clip-rule="evenodd" d="M37.3148 67.3269H33.4493L33.3379 71.2048H37.3148V67.3269Z" fill="#F6921E"/>
<path fill-rule="evenodd" clip-rule="evenodd" d="M41.2792 54.0142H33.8245L33.7173 57.8921H41.2792V54.0142Z" fill="#F6921E"/>
<path d="M54.1504 41.2954H46.0439V44.5834H54.1504V41.2954Z" fill="#F6921E"/>
<path fill-rule="evenodd" clip-rule="evenodd" d="M50.9944 49.5793H46.0439V53.4531H46.1925C47.6446 52.0092 49.27 50.6932 50.9944 49.5793Z" fill="#F6921E"/>
<path d="M64.3363 41.2954H54.7117V44.5834H64.3363V41.2954Z" fill="#F6921E"/>
<path fill-rule="evenodd" clip-rule="evenodd" d="M42.2404 58.449H37.8674V62.3269H40.2189C40.8088 60.9902 41.4772 59.7031 42.2445 58.449H42.2404Z" fill="#F6921E"/>
<path fill-rule="evenodd" clip-rule="evenodd" d="M59.4888 45.557C62.1167 46.4523 64.658 47.5868 67.0466 49.0183H68.3007V45.1404H50.7471V49.0183H51.8857C54.2949 47.5826 56.8444 46.4523 59.4929 45.557H59.4888Z" fill="#F6921E"/>
<path fill-rule="evenodd" clip-rule="evenodd" d="M34.1836 41.2954L34.1011 44.5834H37.3148V41.2954H34.1836Z" fill="#F6921E"/>
<path d="M50.1942 45.1404H41.832V49.0183H50.1942V45.1404Z" fill="#F6921E"/>
<path fill-rule="evenodd" clip-rule="evenodd" d="M32.3806 75.8253H40.0126L39.7899 71.7617H32.5209L32.3806 75.8253Z" fill="#F6921E"/>
<path fill-rule="evenodd" clip-rule="evenodd" d="M84.1256 75.033C84.1173 75.1196 84.105 75.198 84.0885 75.2723C84.0472 75.4703 83.9606 75.6559 83.8327 75.8168H79.0225L79.0802 74.769L79.0885 74.6906L79.237 71.9224C79.9837 71.7533 81.0315 71.943 82.0381 72.5041C83.2716 73.1848 84.0802 74.1996 84.1256 75.0289V75.033Z" fill="#F6921E"/>
<path fill-rule="evenodd" clip-rule="evenodd" d="M85.4045 75.8212H84.3484C84.3773 75.7634 84.4062 75.7098 84.4268 75.6438V75.6355C84.4474 75.5778 84.4681 75.5159 84.4846 75.4581C84.5217 75.3468 84.5341 75.2436 84.5465 75.1405C84.5588 75.0373 84.5671 74.9342 84.5671 74.8435C84.5671 74.7733 84.5588 74.7032 84.5547 74.6289C84.5465 74.5712 84.5423 74.5175 84.5341 74.4598C84.5258 74.4309 84.5135 74.3979 84.5052 74.369C84.5052 74.3608 84.497 74.3484 84.497 74.3401C84.4887 74.303 84.4763 74.2783 84.4681 74.2494C84.4557 74.2123 84.4392 74.1875 84.4268 74.1504C84.4268 74.1421 84.4186 74.138 84.4186 74.1298C84.4103 74.1091 84.3979 74.0885 84.3897 74.0679C84.3608 74.006 84.3278 73.9317 84.2824 73.8699C84.2206 73.7708 84.1463 73.6801 84.0679 73.5852C84.0102 73.5233 83.9565 73.4656 83.8905 73.4078C83.841 73.3501 83.7833 73.3005 83.7214 73.251C83.7007 73.2222 83.6842 73.2098 83.6595 73.1933C83.6595 73.1809 83.6512 73.1727 83.6389 73.1727C83.1273 72.6817 82.4549 72.1991 81.6545 71.77H83.1314C83.7709 72.1743 84.3567 72.6405 84.8559 73.2015C85.4252 74.0679 85.6149 75.0043 85.4087 75.8253L85.4045 75.8212Z" fill="#F6921E"/>
<path fill-rule="evenodd" clip-rule="evenodd" d="M86.6586 75.8209H85.8088C86.0852 74.9422 85.9078 73.8985 85.2849 72.9496C84.8888 72.5041 84.435 72.1122 83.9441 71.7656H86.5184L86.6586 75.825V75.8209Z" fill="#F6921E"/>
<path fill-rule="evenodd" clip-rule="evenodd" d="M74.3442 35.2725V39.0555H79.1627V37.0753H78.3541V35.2725H74.3442Z" fill="#F6921E"/>
<path d="M70.6477 35.7922H68.4778V39.0926H70.6477V35.7922Z" fill="#F6921E"/>
<path fill-rule="evenodd" clip-rule="evenodd" d="M72.822 25.4331V30.3423L86.0605 30.3382V25.4331H83.7049V28.325H80.6521V25.4331H78.2304V28.325H75.1735V25.4331H72.822Z" fill="#F6921E"/>
<path fill-rule="evenodd" clip-rule="evenodd" d="M33.9482 49.0183H41.2585V45.1404H34.0596L33.9482 49.0183Z" fill="#F6921E"/>
<path fill-rule="evenodd" clip-rule="evenodd" d="M84.5381 30.9285H74.3442V34.7156H78.3541V32.2403H80.52V34.7156H84.5381V30.9285Z" fill="#F6921E"/>
<path fill-rule="evenodd" clip-rule="evenodd" d="M39.963 62.8879H33.5562L33.4448 66.7617H38.6428C39.0141 65.4498 39.4473 64.1586 39.9589 62.8879H39.963Z" fill="#F6921E"/>
<path d="M50.0167 35.7922H47.8508V39.0926H50.0167V35.7922Z" fill="#F6921E"/>
<path fill-rule="evenodd" clip-rule="evenodd" d="M85.4539 62.8879H79.0842C79.6247 64.1586 80.0661 65.4498 80.4415 66.7617H85.557L85.4497 62.8879H85.4539Z" fill="#F6921E"/>
<path fill-rule="evenodd" clip-rule="evenodd" d="M81.1594 67.3269H80.5984C80.8129 68.1479 80.9986 68.9771 81.1594 69.8022V67.3269Z" fill="#F6921E"/>
<path fill-rule="evenodd" clip-rule="evenodd" d="M80.52 37.0753H79.7156V39.0555H84.5382V35.2725H80.52V37.0753Z" fill="#F6921E"/>
<path fill-rule="evenodd" clip-rule="evenodd" d="M52.5415 20.5076V25.4127H66.4813V20.5076H63.9854V23.4036H60.7965V20.5076H58.2181V23.4036H55.0374V20.5076H52.5415Z" fill="#F6921E"/>
<path fill-rule="evenodd" clip-rule="evenodd" d="M40.5323 37.0752H39.7361V39.0596H44.5504V35.2683H40.5323V37.0752Z" fill="#F6921E"/>
<path fill-rule="evenodd" clip-rule="evenodd" d="M86.1801 40.7261L86.5019 39.6535L32.5002 39.6494L32.8262 40.7261H86.1801Z" fill="#F6921E"/>
<path fill-rule="evenodd" clip-rule="evenodd" d="M34.3608 35.2683V39.0596H39.1752V37.0752H38.3707V35.2683H34.3608Z" fill="#F6921E"/>
<path fill-rule="evenodd" clip-rule="evenodd" d="M44.5506 30.9285H34.3608V34.7156H38.3707V32.2403H40.5325V34.7156H44.5506V30.9285Z" fill="#F6921E"/>
<path fill-rule="evenodd" clip-rule="evenodd" d="M32.8345 25.4292V30.3426L46.0688 30.3384V25.4292H43.7214V28.3252H40.6645V25.4292H38.2429V28.3252H35.186V25.4292H32.8345Z" fill="#F6921E"/>
<path d="M59.1545 35.2354H53.8616V39.0926H59.1545V35.2354Z" fill="#F6921E"/>
<path d="M65.1487 35.2312H59.7114V39.0885H65.1487V35.2312Z" fill="#F6921E"/>
<path fill-rule="evenodd" clip-rule="evenodd" d="M63.4862 30.3508H60.5902V32.6941H58.4243V30.3508H55.5242V34.6784H63.4862V30.3508Z" fill="#F6921E"/>
<path d="M65.1488 30.3508H64.0391V34.6784H65.1488V30.3508Z" fill="#F6921E"/>
<path fill-rule="evenodd" clip-rule="evenodd" d="M65.1487 26.0027H59.7856V27.8632H60.5901V29.7857H65.1487V26.0027Z" fill="#F6921E"/>
<path d="M54.9672 30.3508H53.8616V34.6784H54.9672V30.3508Z" fill="#F6921E"/>
<path fill-rule="evenodd" clip-rule="evenodd" d="M58.4243 27.8632H59.2287V26.0027H53.8616V29.7857H58.4243V27.8632Z" fill="#F6921E"/>
<path fill-rule="evenodd" clip-rule="evenodd" d="M38.4902 67.3269H37.8467V70.2023C38.0364 69.2328 38.2468 68.2757 38.4902 67.3269Z" fill="#F6921E"/>
<path d="M81.1553 49.5793H73.5439V53.4531H81.1553V49.5793Z" fill="#F6921E"/>
<path fill-rule="evenodd" clip-rule="evenodd" d="M77.7517 54.01V57.892H85.3136L85.2022 54.01H77.7517Z" fill="#F6921E"/>
<path fill-rule="evenodd" clip-rule="evenodd" d="M85.4374 62.3269L85.326 58.449H81.7163V62.3269H85.4374Z" fill="#F6921E"/>
<path fill-rule="evenodd" clip-rule="evenodd" d="M81.7163 41.2954V44.5834H84.9424L84.8434 41.2954H81.7163Z" fill="#F6921E"/>
<path fill-rule="evenodd" clip-rule="evenodd" d="M72.9869 53.4531V49.5793L68.0034 49.6412C69.6948 50.7633 71.2831 52.0381 72.7353 53.4531H72.9869Z" fill="#F6921E"/>
<path d="M77.1992 45.1404H68.8411V49.0183H77.1992V45.1404Z" fill="#F6921E"/>
<path fill-rule="evenodd" clip-rule="evenodd" d="M77.7517 49.0183H85.0619L84.9506 45.1404H77.7517V49.0183Z" fill="#F6921E"/>
<path fill-rule="evenodd" clip-rule="evenodd" d="M81.7163 49.5793V53.4531H85.1817L85.0826 49.5793H81.7163Z" fill="#F6921E"/>
<path fill-rule="evenodd" clip-rule="evenodd" d="M81.1594 62.3269V58.449H76.7659C77.5414 59.6907 78.2345 60.9944 78.841 62.3269H81.1553H81.1594Z" fill="#F6921E"/>
<path fill-rule="evenodd" clip-rule="evenodd" d="M81.7369 70.9905C81.8731 71.0606 82.0051 71.1307 82.1495 71.205H81.7163V70.9863C81.7163 70.9863 81.7287 70.9946 81.7369 70.9946V70.9905Z" fill="#F6921E"/>
<path fill-rule="evenodd" clip-rule="evenodd" d="M85.6891 71.2048H83.0653C82.6404 70.9572 82.1949 70.7303 81.7369 70.5158C81.7287 70.5076 81.7246 70.5076 81.7163 70.5076V67.3228H85.5736L85.6891 71.2048Z" fill="#F6921E"/>
<path d="M72.987 41.2954H64.8765V44.5834H72.987V41.2954Z" fill="#F6921E"/>
<path fill-rule="evenodd" clip-rule="evenodd" d="M80.6231 70.0125C80.2889 69.864 79.9548 69.7196 79.6289 69.5793C79.6206 69.5793 79.6165 69.5711 79.6082 69.5711C78.9482 66.4069 77.8343 63.3582 76.1676 60.4126C72.4094 54.1998 66.2584 49.7732 59.5835 47.2402L59.5752 47.232C57.5331 47.7848 55.6024 48.5933 53.746 49.6164C53.7378 49.6164 53.7336 49.6164 53.7254 49.6247V49.6164C49.996 51.774 46.7658 54.6123 44.1916 58.156C41.4729 62.1082 39.93 66.5636 39.1751 71.2089L38.1891 71.1965H38.1685C38.9399 66.6503 40.6726 62.0174 42.8921 58.4201L43.2963 57.8178C47.298 52.0876 53.0158 48.3747 59.4721 46.147L59.4803 46.1552C62.9993 47.3887 66.3904 49.043 69.3566 51.2749C75.4086 55.8417 79.2039 62.6692 80.6272 70.0084L80.6231 70.0125Z" fill="#F6921E"/>
<path fill-rule="evenodd" clip-rule="evenodd" d="M80.8377 71.2046H80.4953C80.3179 71.1262 80.1405 71.0561 79.9548 70.986C79.9342 70.9777 79.9053 70.9654 79.8847 70.9654C79.8764 70.9571 79.8723 70.953 79.8641 70.953C79.8558 70.9117 79.8517 70.8663 79.8434 70.8168C79.8311 70.7385 79.8146 70.6518 79.8022 70.5776C79.7733 70.4126 79.7444 70.2434 79.7114 70.0825C79.7197 70.0908 79.7238 70.0908 79.7321 70.0949C80.058 70.2352 80.3921 70.3795 80.7263 70.5281C80.7634 70.7178 80.7882 70.9117 80.8253 71.1015C80.8253 71.1386 80.8335 71.1716 80.8377 71.2088V71.2046Z" fill="#F6921E"/>
<path fill-rule="evenodd" clip-rule="evenodd" d="M76.3904 57.892H77.1948V54.01L73.3252 54.0306C73.4242 54.0306 75.0991 56.0191 76.3904 57.892Z" fill="#F6921E"/>
<path d="M81.1553 41.2954H73.5439V44.5834H81.1553V41.2954Z" fill="#F6921E"/>
<path fill-rule="evenodd" clip-rule="evenodd" d="M45.6314 54.0142H41.8113V57.8879H42.5827C43.4986 56.5059 44.501 55.2188 45.6314 54.0142Z" fill="#F6921E"/>
<path fill-rule="evenodd" clip-rule="evenodd" d="M33.5728 62.3269H37.2898C37.2898 61.0397 37.2939 59.7444 37.298 58.449H33.68L33.5769 62.3269H33.5728Z" fill="#F6921E"/>
<path d="M45.4704 49.5752H37.8467V53.449H45.4704V49.5752Z" fill="#F6921E"/>
<path fill-rule="evenodd" clip-rule="evenodd" d="M33.8203 53.4531H37.2939V49.5752H33.9317L33.8203 53.4531Z" fill="#F6921E"/>
<path d="M45.4704 41.2954H37.8467V44.5834H45.4704V41.2954Z" fill="#F6921E"/>
<path fill-rule="evenodd" clip-rule="evenodd" d="M37.2938 67.3269H33.4324L33.3169 71.2048H37.2938V67.3269Z" fill="#F6921E"/>
<path fill-rule="evenodd" clip-rule="evenodd" d="M41.2584 54.0142H33.8038L33.6965 57.8921H41.2584V54.0142Z" fill="#F6921E"/>
<path d="M54.1296 41.2954H46.0232V44.5834H54.1296V41.2954Z" fill="#F6921E"/>
<path fill-rule="evenodd" clip-rule="evenodd" d="M50.9737 49.5793H46.0232V53.4531H46.1717C47.6239 52.0092 49.2493 50.6932 50.9737 49.5793Z" fill="#F6921E"/>
<path d="M64.3155 41.2954H54.6909V44.5834H64.3155V41.2954Z" fill="#F6921E"/>
<path fill-rule="evenodd" clip-rule="evenodd" d="M42.2196 58.449H37.8467V62.3269H40.1982C40.7881 60.9902 41.4564 59.7031 42.2237 58.449H42.2196Z" fill="#F6921E"/>
<path fill-rule="evenodd" clip-rule="evenodd" d="M59.4722 45.557C62.1001 46.4523 64.6414 47.5868 67.03 49.0183H68.2841V45.1404H50.7305V49.0183H51.8691C54.2783 47.5826 56.8278 46.4523 59.4763 45.557H59.4722Z" fill="#F6921E"/>
<path fill-rule="evenodd" clip-rule="evenodd" d="M34.1628 41.2954L34.0803 44.5834H37.294V41.2954H34.1628Z" fill="#F6921E"/>
<path d="M50.1735 45.1404H41.8113V49.0183H50.1735V45.1404Z" fill="#F6921E"/>
<path fill-rule="evenodd" clip-rule="evenodd" d="M32.3599 75.8253H39.9919L39.7691 71.7617H32.5001L32.3599 75.8253Z" fill="#F6921E"/>
<path fill-rule="evenodd" clip-rule="evenodd" d="M84.1257 75.033C84.1175 75.1196 84.1051 75.198 84.0886 75.2723C84.0473 75.4703 83.9607 75.6559 83.8328 75.8168H79.002L79.0597 74.7607L79.068 74.67L79.2247 71.9266C79.2247 71.9266 79.233 71.9183 79.2371 71.9266C79.9838 71.7574 81.0317 71.9472 82.0383 72.5082C83.2718 73.1889 84.0803 74.2038 84.1257 75.033Z" fill="#F6921E"/>
<path fill-rule="evenodd" clip-rule="evenodd" d="M85.4045 75.8212H84.3484C84.3773 75.7634 84.4062 75.7098 84.4268 75.6438V75.6355C84.4474 75.5778 84.4681 75.5159 84.4846 75.4581C84.5217 75.3468 84.5341 75.2436 84.5465 75.1405C84.5588 75.0373 84.5671 74.9342 84.5671 74.8435C84.5671 74.7733 84.5588 74.7032 84.5547 74.6289C84.5465 74.5712 84.5423 74.5175 84.5341 74.4598C84.5258 74.4309 84.5135 74.3979 84.5052 74.369C84.5052 74.3608 84.497 74.3484 84.497 74.3401C84.4887 74.303 84.4763 74.2783 84.4681 74.2494C84.4557 74.2123 84.4392 74.1875 84.4268 74.1504C84.4268 74.1421 84.4186 74.138 84.4186 74.1298C84.4103 74.1091 84.3979 74.0885 84.3897 74.0679C84.3608 74.006 84.3278 73.9317 84.2824 73.8699C84.2206 73.7708 84.1463 73.6801 84.0679 73.5852C84.0102 73.5233 83.9565 73.4656 83.8905 73.4078C83.841 73.3501 83.7833 73.3005 83.7214 73.251C83.7007 73.2222 83.6842 73.2098 83.6595 73.1933C83.6595 73.1809 83.6512 73.1727 83.6389 73.1727C83.1273 72.6817 82.4549 72.1991 81.6545 71.77H83.1314C83.7709 72.1743 84.3567 72.6405 84.8559 73.2015C85.4252 74.0679 85.6149 75.0043 85.4087 75.8253L85.4045 75.8212Z" fill="#F6921E"/>
<path fill-rule="evenodd" clip-rule="evenodd" d="M85.8088 75.8209C86.0852 74.9422 85.9078 73.8985 85.2849 72.9496C84.8888 72.5041 84.435 72.1122 83.9441 71.7656H86.4977L86.638 75.825H85.8088V75.8209Z" fill="#F6921E"/>
<path fill-rule="evenodd" clip-rule="evenodd" d="M42.8756 98.7417C43.1314 98.5148 43.2716 98.1394 43.2881 97.7805C43.1396 98.0115 42.5291 98.0115 42.4094 98.0198C42.5538 98.2219 42.7683 98.4777 42.8797 98.7459L42.8756 98.7417Z" fill="#F6921E"/>
<path fill-rule="evenodd" clip-rule="evenodd" d="M52.1618 90.2434C51.8896 89.6164 51.345 88.9274 51.0645 88.3086C50.6148 88.9109 49.5628 90.1527 49.109 90.4827C49.0595 90.5322 50.6478 90.1444 52.1618 90.2434Z" fill="#F6921E"/>
<path fill-rule="evenodd" clip-rule="evenodd" d="M40.0826 99.7608C40.2476 99.4431 40.4126 98.9646 40.5322 98.7954C40.1651 98.8944 39.8268 98.9893 39.4844 98.849C39.5504 99.1007 39.8309 99.5504 40.0867 99.7566L40.0826 99.7608Z" fill="#F6921E"/>
<path fill-rule="evenodd" clip-rule="evenodd" d="M48.7627 90.7551C48.4244 91.0109 48.0861 91.2749 47.7478 91.5431C48.7297 91.7328 50.091 91.7163 51.0605 91.5266C50.4334 91.213 49.4268 90.949 48.7627 90.7551Z" fill="#F6921E"/>
<path fill-rule="evenodd" clip-rule="evenodd" d="M74.0224 94.2409C74.0307 94.0058 73.5645 93.1064 73.3624 93.1683C72.9209 93.3746 72.4218 93.4489 72.0422 93.783C72.0629 93.7294 73.5439 93.915 74.0266 94.2409H74.0224Z" fill="#F6921E"/>
<path fill-rule="evenodd" clip-rule="evenodd" d="M27.9746 81.5593C28.1644 81.5593 28.5852 81.8728 28.7378 82.0007C28.7378 81.7202 28.7296 81.3819 28.8987 81.1096C28.6058 81.1096 28.2098 81.3324 27.9746 81.5593Z" fill="#F6921E"/>
<path fill-rule="evenodd" clip-rule="evenodd" d="M29.0597 84.7773C28.9112 84.9506 28.7049 85.1899 28.6431 85.8458C28.8906 85.7386 29.2289 85.6313 29.6043 85.5859C29.3073 85.3962 29.1711 85.1321 29.0639 84.7773H29.0597Z" fill="#F6921E"/>
<path fill-rule="evenodd" clip-rule="evenodd" d="M36.4193 98.7952C36.18 98.6921 35.8706 98.5147 35.685 98.3167C35.6066 98.5064 35.52 98.9643 35.5942 99.2902C35.8376 99.0675 36.0686 98.8736 36.4193 98.7911V98.7952Z" fill="#F6921E"/>
<path fill-rule="evenodd" clip-rule="evenodd" d="M34.959 95.8871C34.8724 95.8293 34.7403 94.7773 34.7362 94.7773C34.5217 94.9011 34.1009 95.491 33.9524 95.7427C34.3773 95.6643 34.7981 95.8293 34.9631 95.8871H34.959Z" fill="#F6921E"/>
<path fill-rule="evenodd" clip-rule="evenodd" d="M85.2766 92.8466C85.8583 92.7063 86.3039 92.5289 86.7247 92.0463C86.044 91.9101 85.7469 91.576 85.3426 91.0397L85.3303 91.0191C85.6562 90.9077 86.2296 90.8045 86.4235 90.4662C84.6166 90.5446 85.2684 89.2121 84.2948 88.9852C83.2222 88.7996 82.3435 88.7707 81.5844 87.9291C80.5572 86.7781 80.5365 85.3549 80.6108 83.7872C81.044 84.0141 81.4813 84.2204 81.9722 84.2823C81.2213 83.6882 80.6809 82.9993 80.157 82.2402C80.6108 82.2773 81.1223 82.3021 81.5844 82.2526C81.2874 82.0545 79.9095 80.6065 79.8806 80.6065C79.9672 81.1964 80.0002 81.7493 80.0167 82.3227C80.0374 83.2674 80.0044 84.2039 80.0869 85.1403C80.2931 86.7864 80.6067 88.2138 82.3228 89.0058C82.8344 89.175 83.3501 89.3235 83.8492 89.5091C84.6372 89.9712 84.8723 90.3879 84.7445 91.3738C84.5588 92.7228 84.4887 93.7913 85.0869 95.1692C83.8245 93.6923 83.7049 93.0116 84.039 91.2088C84.0266 90.8252 83.9978 90.6148 83.676 90.359C83.2222 90.1445 82.7189 90.0331 82.228 89.8846C80.553 89.1049 79.8435 88.2014 79.4392 86.3862C79.2329 84.9959 79.2123 83.5974 79.1628 82.1948C79.1133 81.1882 79.0555 80.2146 78.8946 79.2286V79.2204L78.7585 78.6263C79.1421 79.0966 79.5959 79.6535 79.8146 80.2311C80.3674 80.3796 80.8501 80.4704 81.3905 80.4993C80.8171 79.4638 80.2973 78.6139 79.2123 78.0323C79.468 78.0611 79.7321 78.0818 80.0085 78.1024C80.9532 78.1808 81.9804 78.2014 82.9086 77.9827C82.9169 77.9827 82.921 77.9745 82.921 77.9745C83.119 77.925 83.3129 77.8672 83.4945 77.7971C83.9647 77.628 84.3938 77.3639 84.7568 76.9885C85.0827 76.6544 85.3014 76.2583 85.4086 75.8252C85.6149 75.0042 85.421 74.0677 84.8558 73.2014C84.3608 72.6403 83.7709 72.1742 83.1314 71.7699C82.8138 71.5719 82.4879 71.378 82.1537 71.2088C82.0134 71.1387 81.8773 71.0686 81.7412 70.9943C81.7329 70.9943 81.7288 70.9861 81.7205 70.9861C81.4029 70.821 81.077 70.6725 80.7469 70.5323C80.7387 70.5323 80.7346 70.524 80.7263 70.524C80.3921 70.3755 80.058 70.2352 79.7321 70.0908C79.7238 70.0826 79.7197 70.0826 79.7114 70.0785C79.2865 69.8928 78.8616 69.7113 78.4573 69.5174C78.4367 69.5091 78.4161 69.4968 78.3954 69.4885C78.3831 69.5793 78.3583 69.6659 78.3336 69.7443C78.3253 69.7567 78.3212 69.7814 78.3129 69.7938C78.2758 69.8846 78.2263 69.9836 78.1644 70.0702C78.1562 70.0991 78.1355 70.1197 78.1232 70.1486C78.5068 70.3549 78.8905 70.5529 79.2742 70.7426C79.4722 70.8004 79.6784 70.8705 79.8765 70.9489C79.8847 70.9489 79.8888 70.9572 79.8971 70.9613C79.9177 70.9613 79.9466 70.9737 79.9672 70.9819C80.1529 71.0521 80.3303 71.1222 80.5077 71.2006C80.9119 71.3697 81.3039 71.5636 81.6628 71.7616C82.4631 72.1948 83.1397 72.6775 83.6471 73.1643C83.6595 73.1643 83.6677 73.1725 83.6677 73.1849C83.6966 73.1973 83.709 73.2138 83.7296 73.2426C83.7915 73.2922 83.8492 73.3417 83.8987 73.3994C83.9606 73.4572 84.0184 73.5108 84.0761 73.5768C84.1545 73.6676 84.2247 73.7624 84.2907 73.8615C84.3278 73.9233 84.3608 73.9894 84.3979 74.0595C84.4062 74.0801 84.4185 74.1007 84.4268 74.1214C84.4268 74.1296 84.435 74.1337 84.435 74.142C84.4474 74.1791 84.4639 74.2039 84.4763 74.241C84.4887 74.2699 84.4969 74.3029 84.5052 74.3318C84.5052 74.34 84.5134 74.3524 84.5134 74.3606C84.5217 74.3895 84.5341 74.4225 84.5423 74.4514C84.5506 74.5092 84.5547 74.5628 84.5629 74.6205C84.5712 74.6907 84.5753 74.7608 84.5753 74.8351C84.5753 74.9258 84.5671 75.0248 84.5547 75.1321C84.5423 75.2393 84.5258 75.3384 84.4928 75.4497C84.4804 75.5075 84.4557 75.5694 84.435 75.6271V75.6354C84.4144 75.6973 84.3855 75.755 84.3567 75.8128C84.3072 75.9283 84.2453 76.0314 84.171 76.1304C84.0143 76.3697 83.808 76.5554 83.577 76.6997C83.4697 76.7616 83.3501 76.8194 83.2304 76.8689C82.5085 77.1535 81.5761 77.1082 80.6892 76.939H80.6809C80.5407 76.9101 80.3963 76.8813 80.2643 76.8483C79.435 76.642 78.6677 76.3367 78.1727 76.0892C77.3558 75.6973 76.5431 75.3796 75.7098 75.1321C73.4532 74.4431 71.143 74.2327 68.7214 74.2823C66.3946 74.373 64.0803 74.6288 61.7618 74.8227C61.9763 75.2352 62.2279 75.6189 62.4796 76.0067C60.9037 75.92 60.0167 75.3095 59.9837 75.3549C59.9548 75.6973 59.9713 76.1016 59.9837 76.4522C59.0349 76.2955 58.478 76.0191 57.855 75.2765C57.0341 77.3144 55.5407 78.8532 53.7214 80.0083L53.1685 78.6758C52.3311 80.2806 50.6232 81.0149 50.1735 82.8961C49.3773 82.7393 48.8534 82.1865 48.5563 81.4192C48.3088 82.7682 48.4573 83.5562 48.9813 84.769C48.1355 84.9382 47.3352 85.0455 46.5184 84.6494C46.2048 86.84 45.454 88.6593 43.4243 89.8722L41.3534 92.5455C40.3385 93.8656 39.5506 94.6659 37.7271 94.4679C36.4359 94.2823 34.9095 94.1997 35.5902 95.7509L35.6108 95.7922C36.3905 95.0908 37.1784 95.3095 38.1149 95.4745C37.3146 95.7921 36.5761 95.8994 36.2709 96.345C35.5695 97.3887 36.4276 98.7088 38.2304 97.8631C38.3996 96.7492 38.7997 95.9778 39.9755 95.7261C39.6331 96.2501 38.4862 97.9951 39.6991 98.2921C40.6149 98.4984 41.077 97.1989 41.3039 96.5595C42.5951 98.0281 43.6801 97.1288 43.0613 95.4662C44.3897 94.8062 45.652 94.0347 46.9062 93.255C47.4672 93.4407 47.9293 93.5438 48.5233 93.453L48.4945 93.4407C48.0324 92.9786 47.6446 92.4959 47.2816 91.9514C46.1677 92.8796 44.8641 93.9811 43.6553 94.0224C46.5844 91.3326 51.4029 88.5686 51.8484 84.4184C52.0959 85.1651 52.1619 85.4456 52.1166 86.3491C55.025 86.2212 58.0613 84.7319 60.4994 83.222C58.9235 85.7261 54.6619 87.1082 51.8237 87.0587C51.704 87.4341 51.3822 87.8879 51.176 88.2344C52.228 88.9068 55.8501 88.4737 56.4029 88.3994C56.1883 87.8549 56.1265 87.4423 56.1058 86.8524C56.7577 87.0091 57.5085 87.0875 58.185 87.071C57.8426 86.7946 57.525 86.5595 57.2692 86.2253L63.3996 83.0694C64.7816 82.3681 66.0646 81.741 67.6075 81.5925C69.6166 81.6337 70.8006 82.6981 71.7164 84.2946C72.4342 85.6478 73.0283 87.0545 73.8575 88.3458C75.3138 90.359 76.5184 91.0067 78.7172 91.6296C79.7321 91.9143 80.6892 92.2897 81.4895 93.1271C82.0299 93.9852 82.4177 94.9299 82.0506 95.7509C81.3121 97.4547 78.1479 95.062 77.9705 97.269C78.02 97.7311 78.3624 97.9869 78.8369 98.0983C79.1628 96.8235 80.1982 97.005 81.2048 97.4093C79.6454 97.4093 79.4598 98.7006 79.9425 99.3111C80.289 99.7278 80.8996 99.8309 81.4111 99.2616C81.8773 98.7212 81.638 97.5661 82.789 97.2237C82.5827 97.6073 82.492 98.222 82.6405 98.6717C82.8261 99.2162 83.4491 99.3936 83.8121 98.8986C84.0803 98.5232 84.0308 97.8837 83.9606 97.3516C85.6438 97.3103 85.9449 96.4728 85.8459 95.4415C85.7593 94.5917 85.3839 93.6098 85.2766 92.8301V92.8466ZM54.4598 84.8681C55.2766 83.812 55.7098 83.0323 55.7428 81.6131C57.3393 83.0116 55.5572 84.8392 54.4598 84.8681ZM56.1553 84.4926C57.2197 83.189 57.5827 82.3804 57.5044 80.7757C59.4681 82.6073 57.7684 83.8243 56.1553 84.4926ZM58.2015 83.8161C59.0596 82.7724 59.3567 82.0587 59.3072 80.623C61.1017 82.2608 59.7733 83.4943 58.2015 83.8161ZM72.2444 82.5413V82.5331C71.5844 81.0644 70.5778 80.128 69.5547 78.9151C71.0935 79.2781 71.9227 80.029 72.7395 81.411C73.2428 82.4547 73.5687 83.5521 73.8946 84.6453C73.0448 84.2327 72.6529 83.42 72.2403 82.5372L72.2444 82.5413Z" fill="#F6921E"/>
<path fill-rule="evenodd" clip-rule="evenodd" d="M82.9045 99.7195C83.1149 100.025 83.2717 100.194 83.6636 100.479C83.6966 100.14 83.8245 99.8309 83.9441 99.5173C83.6966 99.7979 83.3707 99.8969 82.9128 99.7195H82.9045Z" fill="#F6921E"/>
<path fill-rule="evenodd" clip-rule="evenodd" d="M85.6233 98.4488C85.8295 98.0362 85.8749 97.8258 85.8832 97.4875C85.6728 97.7186 85.5119 97.8011 85.1365 97.8877L85.6233 98.4488Z" fill="#F6921E"/>
<path fill-rule="evenodd" clip-rule="evenodd" d="M31.2049 79.0348C31.0976 78.8409 30.487 78.713 30.4045 78.6965C30.5201 78.9729 30.5902 79.2493 30.5943 79.5257C30.6892 79.2947 31.0275 79.0719 31.209 79.0348H31.2049Z" fill="#F6921E"/>
<path fill-rule="evenodd" clip-rule="evenodd" d="M79.4721 99.6616C79.5216 100.144 79.4804 100.231 79.6825 100.841C79.9878 100.503 80.0291 100.487 80.3962 100.285C79.9135 100.235 79.7073 100.173 79.4639 99.6575L79.4721 99.6616Z" fill="#F6921E"/>
<path fill-rule="evenodd" clip-rule="evenodd" d="M69.8476 98.6221C70.2272 99.2244 70.0787 98.8407 70.4747 99.5833C70.8295 99.1419 70.7635 99.0676 70.9326 98.6221C70.4582 98.7582 70.4169 98.75 69.8435 98.6221H69.8476Z" fill="#F6921E"/>
<path fill-rule="evenodd" clip-rule="evenodd" d="M77.4796 97.438C77.1537 97.735 77.0754 98.0155 76.9805 98.3415C77.2527 98.2631 77.5663 98.2878 77.8674 98.3043C77.6612 98.0692 77.492 97.7474 77.4796 97.438Z" fill="#F6921E"/>
<path fill-rule="evenodd" clip-rule="evenodd" d="M34.662 86.3162C34.7692 86.605 36.011 88.0736 35.9573 87.8591C35.8006 87.0588 35.7304 86.2378 35.6727 85.4251C35.1364 85.3013 34.7238 85.0002 34.4144 84.5051C36.0481 84.9053 38.5357 85.4375 40.6314 84.5588C40.7304 83.3913 40.487 82.2568 40.6562 81.0893C38.3047 82.0711 36.4318 82.8013 33.8946 82.8302C33.4986 82.7642 33.3171 82.6817 33.0365 82.3888C32.7519 81.8772 32.6529 81.3698 32.5415 80.8005C32.4342 80.388 32.3187 80.0125 31.9846 79.7114C31.704 79.5959 30.7057 79.963 31.011 80.1941C31.6669 80.7757 31.7535 81.4276 31.9186 82.2857C31.4854 81.8319 31.1265 81.4523 30.5984 81.1388C29.3402 80.6602 29.3773 82.1124 29.6372 82.8797C30.3674 82.6776 30.9326 82.8013 31.6422 82.9993C29.9177 83.2881 29.1545 85.1734 30.6149 85.2807C31.1265 85.3178 31.9639 84.8558 32.4219 84.6454C32.393 86.6297 32.7643 87.0216 34.6578 86.3121L34.662 86.3162Z" fill="#F6921E"/>
<path fill-rule="evenodd" clip-rule="evenodd" d="M60.5695 68.6428C60.4499 70.0125 60.1405 72.17 61.7948 72.6775C61.3533 71.6214 61.1058 70.491 61.1801 69.3359C60.9573 69.1214 60.7923 68.8532 60.5695 68.6469V68.6428Z" fill="#F6921E"/>
<path fill-rule="evenodd" clip-rule="evenodd" d="M63.2716 69.2245C61.8896 67.6692 61.8896 65.7963 61.279 64.2864C59.6825 63.8037 59.2988 62.9044 59.1998 61.2707C59.6949 62.1164 61.2996 64.2369 62.5001 63.2798C61.7782 62.9951 61.279 62.3846 60.9242 61.7245C60.5199 60.9283 60.1239 60.128 59.4143 59.5834V59.5958C59.1874 60.1981 58.8326 60.4539 58.3417 60.8458C58.746 59.5463 58.8244 58.4035 58.482 57.1082C57.1123 57.1453 56.2831 57.8961 55.3467 58.845C55.2972 58.4035 55.2683 58.0941 55.4251 57.6692C54.3112 57.3763 53.4118 57.0752 52.2691 57.4052C51.8277 57.6032 51.4193 57.859 50.9779 58.057C51.7658 58.5809 52.7807 58.7542 53.6882 58.9275C54.1503 60.0991 53.7089 61.6791 51.7287 60.7798C52.4465 60.6024 53.6305 60.1115 53.5356 59.0719C52.4506 59.7443 51.8401 60.326 50.982 61.3285C51.0315 60.392 51.4358 59.8681 52.067 59.2699C51.3203 59.0141 50.9407 58.6593 50.7757 58.1436C50.5076 58.2426 50.2229 58.2839 49.9383 58.3293C49.2081 58.3417 48.548 58.4695 47.9168 58.7253C47.2155 59.0182 46.7534 59.406 46.2089 59.9176C46.2213 59.9547 46.2666 60.1238 46.2996 60.1321C46.7411 60.2393 47.1495 59.3029 48.2798 59.6907C47.7683 60.0166 47.0546 60.2641 46.7988 60.854C46.5142 61.4852 47.0876 62.1453 47.5496 62.5578C48.2716 62.5207 48.9688 62.3103 49.6783 62.203C50.3508 62.2319 50.6767 62.4217 50.9779 63.0611C51.2708 64.2864 50.2559 64.5422 49.2534 64.6494C48.5851 64.6618 47.9333 64.6494 47.2815 64.5421L47.2444 64.6205C46.6544 66.345 48.0406 66.3738 49.3318 66.1511C50.0909 66.0149 50.9779 66.0149 51.6297 65.5488C52.5249 64.9547 52.628 64.1379 53.0199 63.0075C53.1313 65.4415 52.331 66.6874 49.9341 66.939C49.3731 68.1643 47.7477 68.8037 46.5637 69.1379C47.4383 69.6783 48.5232 69.8681 49.4721 70.161C48.2716 70.2517 47.2361 70.3095 46.2171 70.6725C45.3178 71.0067 44.6082 71.5884 43.8533 72.1783C43.6676 72.3186 42.9952 72.8219 42.7683 72.8219C44.2163 73.4943 46.2295 71.7781 47.331 71.0356C47.3227 72.0339 47.1907 72.7393 46.609 73.5191L46.6503 73.5314H46.6585C48.0199 73.2963 48.5439 72.6073 49.2617 71.5801C48.9151 74.1337 47.7642 75.128 44.7567 73.9852C45.227 73.6593 45.8995 73.2674 46.1965 72.7847C45.4787 73.2179 44.6907 73.4819 43.9564 73.8573C42.9085 74.5752 42.43 75.7014 41.9638 76.8359C41.4977 77.9085 41.015 78.7666 40.062 79.4885C40.7303 79.9506 41.6585 79.6783 42.3681 79.5587H42.3805C41.9473 80.26 41.6585 80.7839 41.4853 81.5884C41.4151 82.5042 41.5348 83.4035 41.5059 84.3318L42.2856 83.5851C42.661 84.9258 42.7972 86.3078 42.5331 87.6692C43.4325 86.5347 43.4036 85.3219 42.925 83.9398C44.2782 84.9464 44.1503 85.7426 43.9523 87.2897C43.9894 87.7435 44.0224 88.0405 43.9894 88.4737C45.3797 86.9431 45.6189 85.1115 45.8211 83.1766C46.3945 83.5809 47.0546 84.1007 47.793 84.0925C47.3104 82.5743 47.6651 81.1923 48.3376 79.8062C48.7295 80.4291 49.1585 81.1387 49.666 81.6874C50.029 80.6436 50.7922 80.0908 51.5513 79.3606C52.3681 78.354 52.595 77.4464 52.7064 76.2171C51.9886 77.4011 51.081 78.3953 50.5199 79.67C50.128 77.8672 49.7609 76.5554 51.6833 75.4827C51.4151 76.0273 51.081 76.6544 51.0439 77.2855C51.5554 76.7905 52.1453 76.3862 52.7312 75.9819L52.7683 75.5075C53.2015 76.5636 53.6552 77.6692 54.0967 78.7418C54.996 78.0941 55.6643 77.3392 56.1965 76.4852C56.8566 75.4497 57.2526 74.3276 57.628 73.1643C58.0447 73.9852 58.3788 74.7814 59.109 75.3425C59.1998 74.7691 59.3772 74.208 59.5546 73.6346C59.9217 74.109 60.2642 74.5834 60.817 74.8681C60.6396 74.4431 60.326 73.5686 60.3219 72.3928L59.7196 70.9654C59.2576 71.7823 58.5686 72.4341 57.8384 72.9992C57.3062 71.6502 57.3351 70.8623 57.9581 69.4184C57.9457 70.1073 57.8714 70.9737 58.2056 71.5966C59.1915 70.5529 59.6041 69.142 60.029 67.8012C59.8805 67.5125 59.732 67.2195 59.5958 66.9349C59.2906 68.0281 58.6965 68.3912 57.8384 68.9481C58.5686 67.6486 58.8368 66.4068 59.0884 64.9753C60.458 66.2377 60.7056 68.9192 63.2675 69.2162L63.2716 69.2245ZM50.6726 59.5298C50.6726 59.1461 50.8376 58.8285 51.0397 58.8285C51.2419 58.8285 51.4028 59.1461 51.4028 59.5298C51.4028 59.9134 51.2336 60.2311 51.0397 60.2311C50.8458 60.2311 50.6726 59.9258 50.6726 59.5298ZM49.3277 65.0248C50.7963 64.8598 51.4358 64.5339 51.1016 62.7682C52.727 64.9176 50.5983 65.8417 49.3277 65.0248ZM42.9498 81.3202C42.9209 80.8953 42.9498 79.6659 43.4118 78.9316C42.562 79.1874 42.3269 79.0677 42.0216 79.0512C42.1412 78.4489 42.3392 77.9497 42.5909 77.3928H42.5826C43.7089 75.656 44.0925 75.1527 46.1346 74.8309C44.9795 75.7179 43.8203 76.7327 43.2138 78.1148C43.8945 77.8755 44.5463 77.4547 45.194 77.1288C44.699 78.1354 44.0595 79.2286 43.812 80.3342C44.9836 80.0001 45.8623 78.6882 46.6792 77.8301C46.1676 79.5257 44.9135 81.5388 42.9539 81.3202H42.9498ZM45.1693 84.7814C43.4944 84.1997 43.2551 83.453 43.6429 81.51C43.7914 81.873 44.1668 82.859 44.6412 83.4695C44.9259 81.2006 46.4151 79.9588 47.529 79.3606C46.1181 81.1676 45.3425 82.3186 45.1651 84.7814H45.1693ZM58.0529 57.3928C58.647 58.7954 58.4985 59.6288 57.6569 61.0809C57.7147 60.1321 57.8137 59.5256 57.5414 58.5851H57.5043C56.7823 58.8202 56.1635 59.2946 55.6231 59.8351C56.0645 58.6222 56.7246 57.7146 58.0488 57.3928H58.0529ZM57.1206 62.6898C58.3128 64.0884 58.284 66.3078 56.213 66.9679C57.1 65.4869 57.2402 64.4266 57.1206 62.6898ZM54.5587 60.5199C55.1404 61.2088 55.5942 62.0958 55.359 63.0364C55.0909 64.0842 54.3112 64.4679 53.1808 64.7608C54.699 63.4324 54.7774 62.3969 54.5587 60.5199ZM52.8302 67.0752C52.5249 67.7723 52.0917 68.5521 51.9349 69.2946C53.3665 68.3664 54.2823 66.7327 55.0496 65.2435C54.5257 68.387 53.218 69.9877 50.3384 71.2088C50.5942 69.4555 51.2666 68.3128 52.8302 67.0752ZM54.3566 77.4258C54.4762 76.411 54.5917 75.2971 54.3648 74.2988C53.5851 75.0991 52.7683 75.425 51.7122 75.7096L52.067 74.2781C50.9036 75.4044 49.7196 76.2418 48.3417 77.0586C48.3995 74.406 49.4556 72.6733 51.8236 71.378V71.3862C50.9737 72.6073 49.534 74.01 49.2493 75.5157C50.982 74.3524 52.3929 72.6857 53.7254 71.0809L52.9085 74.3813C53.8533 73.9398 54.2287 73.0405 54.8929 72.4464C55.3467 74.7938 55.7097 75.4456 54.3524 77.4341L54.3566 77.4258ZM55.4911 72.7806C54.7897 70.8375 54.468 69.5875 55.883 67.6321C55.6973 68.7748 55.5282 69.6618 55.7551 70.8045C56.2584 69.0182 57.3145 67.3928 58.6552 66.1593C57.5785 68.3582 56.6833 70.6478 55.4911 72.7847V72.7806Z" fill="#F6921E"/>
<path fill-rule="evenodd" clip-rule="evenodd" d="M71.77 69.2822H71.7948C72.3888 69.2822 72.9664 69.3935 73.5646 69.4719C73.7997 69.1295 74.1091 68.816 74.4433 68.585C74.2906 68.4777 74.1421 68.3622 74.0184 68.2178C73.2882 68.1312 72.1372 68.6303 71.77 69.2863V69.2822Z" fill="#F6921E"/>
<path fill-rule="evenodd" clip-rule="evenodd" d="M47.9375 63.8573C48.0118 63.5768 48.0737 63.3128 48.3006 63.0776C48.0489 63.1436 47.8468 63.1849 47.5786 63.0983C47.6446 63.3499 47.789 63.6139 47.9375 63.8573Z" fill="#F6921E"/>
<path fill-rule="evenodd" clip-rule="evenodd" d="M65.1116 63.7088C66.7948 65.6973 69.9136 67.2691 72.3847 67.8136C72.6652 67.6981 72.9581 67.5743 73.2593 67.4877C72.69 67.3021 72.1124 66.9844 71.5431 66.8153C70.091 66.2253 68.6636 65.6106 67.4053 64.7278C66.5307 64.1172 65.6892 63.4695 65.2931 62.4671C64.8682 61.4027 64.9218 60.4085 66.0811 59.4431C66.8236 59.1626 67.2114 59.1626 67.9705 59.3978C68.0654 59.2327 68.185 59.0719 68.3253 58.9233C64.7527 57.4753 63.0778 61.5595 65.1157 63.7088H65.1075H65.1116Z" fill="#F6921E"/>
<path fill-rule="evenodd" clip-rule="evenodd" d="M76.3409 67.9414C75.4869 67.3267 75.1074 66.7368 75.2188 65.759C74.0266 66.2252 74.1173 67.5412 75.4869 68.3663L77.0381 68.9397C76.5059 68.9769 76.0026 69.0099 75.4952 69.1089C74.5794 69.2986 73.6388 70.2392 74.3937 71.2005C74.5587 69.5379 76.8277 70.6311 77.496 69.5173C77.8797 68.8778 76.7369 68.2384 76.3327 67.9373L76.3409 67.9414Z" fill="#F6921E"/>
<path fill-rule="evenodd" clip-rule="evenodd" d="M40.4004 85.5527C39.567 85.7136 38.7048 85.7508 37.855 85.7343C38.5811 86.0519 39.2906 86.3737 40.0579 86.5676C40.1776 86.2334 40.2807 85.9158 40.3839 85.5899L40.4004 85.5527Z" fill="#F6921E"/>
<path fill-rule="evenodd" clip-rule="evenodd" d="M32.8385 87.4877C32.331 87.302 32.3104 87.335 32.1784 86.9431C32.0959 87.2979 32.1124 87.6568 32.2898 88.0157C32.4919 87.5991 32.7106 87.6898 32.8385 87.4877Z" fill="#F6921E"/>
<path fill-rule="evenodd" clip-rule="evenodd" d="M41.8195 86.8069C41.869 86.2706 41.8855 85.7343 41.8195 85.198L40.3096 86.6336C40.8087 86.7203 41.2997 86.7945 41.8195 86.8069Z" fill="#F6921E"/>
<path fill-rule="evenodd" clip-rule="evenodd" d="M37.529 85.7387L35.9861 85.52C36.4399 86.5142 36.906 87.1413 37.8673 87.558L37.8178 87.3558C37.6858 86.8113 37.6074 86.2832 37.529 85.7387Z" fill="#F6921E"/>
<path fill-rule="evenodd" clip-rule="evenodd" d="M69.732 59.0472C69.2287 59.2699 68.9894 59.3813 68.6718 59.9052C68.5026 60.5983 68.7378 61.2666 68.5728 61.9349C69.2823 61.7823 69.7196 60.6561 70.0043 60.095C70.1363 61.4605 70.2435 62.7683 71.312 63.8038C71.1883 62.8755 70.9325 62.0546 70.6396 61.18C71.902 62.43 72.6528 63.2757 74.3772 63.8038L74.3195 63.713C73.5067 62.628 72.4424 61.8483 71.411 61.0026C72.4506 61.3739 74.0266 62.133 75.194 61.2625C74.3277 61.0026 73.251 60.5942 72.4094 59.9465C71.5224 59.2658 70.9366 58.6552 69.7402 59.043L69.732 59.0472Z" fill="#F6921E"/>
<path fill-rule="evenodd" clip-rule="evenodd" d="M62.3722 95.561C62.0092 95.7714 61.6833 96.1303 61.4688 96.5223C61.8524 96.5841 62.1123 96.7203 62.595 96.9637C62.3722 96.4439 62.4217 96.0478 62.3722 95.561Z" fill="#F6921E"/>
<path fill-rule="evenodd" clip-rule="evenodd" d="M66.5762 99.9751C66.6422 100.549 66.9186 101.044 67.2445 101.27C67.4672 100.841 67.5869 100.528 67.9169 100.181C67.3229 100.301 66.9433 100.173 66.572 99.9751H66.5762Z" fill="#F6921E"/>
<path fill-rule="evenodd" clip-rule="evenodd" d="M64.4431 99.6204C63.8326 99.542 63.5851 99.3811 63.42 98.9768C63.2509 99.4306 63.2922 99.8019 63.3334 100.247C63.8202 99.9504 63.9068 99.7483 64.439 99.6204H64.4431Z" fill="#F6921E"/>
<path fill-rule="evenodd" clip-rule="evenodd" d="M73.4162 91.3161C72.195 90.2889 71.5845 89.7196 72.5952 88.0117C71.5969 85.5653 70.483 82.6775 68.1893 82.4795C67.785 83.2674 67.294 83.8203 66.7 84.4721C65.6563 85.5158 64.9426 86.2749 64.8642 87.7642C65.2602 89.2906 66.2957 90.0208 67.6076 90.7427C68.7008 91.3244 69.2454 91.8071 68.9277 92.9333C68.7503 93.6016 68.3337 94.2864 67.9046 94.8846C67.096 95.9985 66.2957 95.9985 65.0952 95.4044C64.5135 95.1115 63.9401 94.8846 63.2718 95.4539C62.9087 95.8871 62.8468 96.4481 63.2718 96.8359C64.0391 96.1965 64.4434 95.9902 65.5407 96.9267C64.5259 96.7204 63.9937 96.9968 63.7874 97.4011C63.3625 98.1808 64.4846 99.5216 65.6975 98.5851C66.044 97.661 66.5762 97.4506 67.4219 97.3516C66.8526 97.8137 65.7759 98.6264 67.0176 99.4886C67.5127 99.831 68.5234 99.2823 68.7627 97.7848C70.8543 98.8574 71.8609 97.2815 70.0746 95.883C71.0605 95.4168 71.8402 95.0372 72.9912 95.4168C72.8262 94.9259 72.5581 94.6783 72.2115 94.3318L71.8444 93.9853C70.6893 94.8722 69.8353 96.114 68.9236 97.2196C69.7198 94.4968 70.8749 93.4325 73.2635 92.3887C74.0308 92.0546 74.0432 91.8442 73.4203 91.3161H73.4162ZM71.9888 87.4919C70.7346 89.5422 71.2379 90.1734 72.6777 91.5843C70.4005 91.1882 69.2784 88.6759 71.9888 87.4919Z" fill="#F6921E"/>
<path fill-rule="evenodd" clip-rule="evenodd" d="M42.8756 98.7417C43.1314 98.5148 43.2716 98.1394 43.2881 97.7805C43.1396 98.0115 42.5291 98.0115 42.4094 98.0198C42.5538 98.2219 42.7683 98.4777 42.8797 98.7459L42.8756 98.7417Z" fill="#F6921E"/>
<path fill-rule="evenodd" clip-rule="evenodd" d="M52.1618 90.2434C51.8896 89.6164 51.345 88.9274 51.0645 88.3086C50.6148 88.9109 49.5628 90.1527 49.109 90.4827C49.0595 90.5322 50.6478 90.1444 52.1618 90.2434Z" fill="#F6921E"/>
<path fill-rule="evenodd" clip-rule="evenodd" d="M40.0826 99.7608C40.2476 99.4431 40.4126 98.9646 40.5322 98.7954C40.1651 98.8944 39.8268 98.9893 39.4844 98.849C39.5504 99.1007 39.8309 99.5504 40.0867 99.7566L40.0826 99.7608Z" fill="#F6921E"/>
<path fill-rule="evenodd" clip-rule="evenodd" d="M48.7627 90.7551C48.4244 91.0109 48.0861 91.2749 47.7478 91.5431C48.7297 91.7328 50.091 91.7163 51.0605 91.5266C50.4334 91.213 49.4268 90.949 48.7627 90.7551Z" fill="#F6921E"/>
<path fill-rule="evenodd" clip-rule="evenodd" d="M74.0224 94.2409C74.0307 94.0058 73.5645 93.1064 73.3624 93.1683C72.9209 93.3746 72.4218 93.4489 72.0422 93.783C72.0629 93.7294 73.5439 93.915 74.0266 94.2409H74.0224Z" fill="#F6921E"/>
<path fill-rule="evenodd" clip-rule="evenodd" d="M27.9746 81.5593C28.1644 81.5593 28.5852 81.8728 28.7378 82.0007C28.7378 81.7202 28.7296 81.3819 28.8987 81.1096C28.6058 81.1096 28.2098 81.3324 27.9746 81.5593Z" fill="#F6921E"/>
<path fill-rule="evenodd" clip-rule="evenodd" d="M29.0597 84.7773C28.9112 84.9506 28.7049 85.1899 28.6431 85.8458C28.8906 85.7386 29.2289 85.6313 29.6043 85.5859C29.3073 85.3962 29.1711 85.1321 29.0639 84.7773H29.0597Z" fill="#F6921E"/>
<path fill-rule="evenodd" clip-rule="evenodd" d="M62.3722 95.561C62.0092 95.7714 61.6833 96.1303 61.4688 96.5223C61.8524 96.5841 62.1123 96.7203 62.595 96.9637C62.3722 96.4439 62.4217 96.0478 62.3722 95.561Z" fill="#F6921E"/>
<path fill-rule="evenodd" clip-rule="evenodd" d="M36.4193 98.7952C36.18 98.6921 35.8706 98.5147 35.685 98.3167C35.6066 98.5064 35.52 98.9643 35.5942 99.2902C35.8376 99.0675 36.0686 98.8736 36.4193 98.7911V98.7952Z" fill="#F6921E"/>
<path fill-rule="evenodd" clip-rule="evenodd" d="M34.959 95.8871C34.8724 95.8293 34.7403 94.7773 34.7362 94.7773C34.5217 94.9011 34.1009 95.491 33.9524 95.7427C34.3773 95.6643 34.7981 95.8293 34.9631 95.8871H34.959Z" fill="#F6921E"/>
<path fill-rule="evenodd" clip-rule="evenodd" d="M85.2766 92.8466C85.8583 92.7063 86.3039 92.5289 86.7247 92.0463C86.044 91.9101 85.7469 91.576 85.3426 91.0397L85.3303 91.0191C85.6562 90.9077 86.2296 90.8045 86.4235 90.4662C84.6166 90.5446 85.2684 89.2121 84.2948 88.9852C83.2222 88.7996 82.3435 88.7707 81.5844 87.9291C80.5572 86.7781 80.5365 85.3549 80.6108 83.7872C81.044 84.0141 81.4813 84.2204 81.9722 84.2823C81.2213 83.6882 80.6809 82.9993 80.157 82.2402C80.6108 82.2773 81.1223 82.3021 81.5844 82.2526C81.2874 82.0545 79.9095 80.6065 79.8806 80.6065C79.9672 81.1964 80.0002 81.7493 80.0167 82.3227C80.0374 83.2674 80.0044 84.2039 80.0869 85.1403C80.2931 86.7864 80.6067 88.2138 82.3228 89.0058C82.8344 89.175 83.3501 89.3235 83.8492 89.5091C84.6372 89.9712 84.8723 90.3879 84.7445 91.3738C84.5588 92.7228 84.4887 93.7913 85.0869 95.1692C83.8245 93.6923 83.7049 93.0116 84.039 91.2088C84.0266 90.8252 83.9978 90.6148 83.676 90.359C83.2222 90.1445 82.7189 90.0331 82.228 89.8846C80.553 89.1049 79.8435 88.2014 79.4392 86.3862C79.2329 84.9959 79.2123 83.5974 79.1628 82.1948C79.1133 81.1882 79.0555 80.2146 78.8946 79.2286V79.2204L78.7585 78.6263C79.1421 79.0966 79.5959 79.6535 79.8146 80.2311C80.3674 80.3796 80.8501 80.4704 81.3905 80.4993C80.8171 79.4638 80.2973 78.6139 79.2123 78.0323C79.468 78.0611 79.7321 78.0818 80.0085 78.1024C80.9532 78.1808 81.9804 78.2014 82.9086 77.9827C82.9169 77.9827 82.921 77.9745 82.921 77.9745C83.119 77.925 83.3129 77.8672 83.4945 77.7971C83.9647 77.628 84.3938 77.3639 84.7568 76.9885C85.0827 76.6544 85.3014 76.2583 85.4086 75.8252C85.6149 75.0042 85.421 74.0677 84.8558 73.2014C84.3608 72.6403 83.7709 72.1742 83.1314 71.7699C82.8138 71.5719 82.4879 71.378 82.1537 71.2088C82.0134 71.1387 81.8773 71.0686 81.7412 70.9943C81.7329 70.9943 81.7288 70.9861 81.7205 70.9861C81.4029 70.821 81.077 70.6725 80.7469 70.5323C80.7387 70.5323 80.7346 70.524 80.7263 70.524C80.3921 70.3755 80.058 70.2352 79.7321 70.0908C79.7238 70.0826 79.7197 70.0826 79.7114 70.0785C79.2865 69.8928 78.8616 69.7113 78.4573 69.5174C78.4367 69.5091 78.4161 69.4968 78.3954 69.4885C78.3831 69.5793 78.3583 69.6659 78.3336 69.7443C78.3253 69.7567 78.3212 69.7814 78.3129 69.7938C78.2758 69.8846 78.2263 69.9836 78.1644 70.0702C78.1562 70.0991 78.1355 70.1197 78.1232 70.1486C78.5068 70.3549 78.1232 70.161 78.5068 70.3549C78.7048 70.4126 79.6784 70.8747 79.8765 70.9489C79.8847 70.9489 79.8888 70.9572 79.8971 70.9613C79.9177 70.9613 79.9466 70.9737 79.9672 70.9819C80.1529 71.0521 80.3303 71.1222 80.5077 71.2006C80.9119 71.3697 81.3039 71.5636 81.6628 71.7616C82.4631 72.1948 83.1397 72.6775 83.6471 73.1643C83.6595 73.1643 83.6677 73.1725 83.6677 73.1849C83.6966 73.1973 83.709 73.2138 83.7296 73.2426C83.7915 73.2922 83.8492 73.3417 83.8987 73.3994C83.9606 73.4572 84.0184 73.5108 84.0761 73.5768C84.1545 73.6676 84.2247 73.7624 84.2907 73.8615C84.3278 73.9233 84.3608 73.9894 84.3979 74.0595C84.4062 74.0801 84.4185 74.1007 84.4268 74.1214C84.4268 74.1296 84.435 74.1337 84.435 74.142C84.4474 74.1791 84.4639 74.2039 84.4763 74.241C84.4887 74.2699 84.4969 74.3029 84.5052 74.3318C84.5052 74.34 84.5134 74.3524 84.5134 74.3606C84.5217 74.3895 84.5341 74.4225 84.5423 74.4514C84.5506 74.5092 84.5547 74.5628 84.5629 74.6205C84.5712 74.6907 84.5753 74.7608 84.5753 74.8351C84.5753 74.9258 84.5671 75.0248 84.5547 75.1321C84.5423 75.2393 84.5258 75.3384 84.4928 75.4497C84.4804 75.5075 84.4557 75.5694 84.435 75.6271V75.6354C84.4144 75.6973 84.3855 75.755 84.3567 75.8128C84.3072 75.9283 84.2453 76.0314 84.171 76.1304C84.0143 76.3697 83.808 76.5554 83.577 76.6997C83.4697 76.7616 83.3501 76.8194 83.2304 76.8689C82.5085 77.1535 81.5761 77.1082 80.6892 76.939H80.6809C80.5407 76.9101 80.3963 76.8813 80.2643 76.8483C79.435 76.642 78.6677 76.3367 78.1727 76.0892C77.3558 75.6973 76.5431 75.3796 75.7098 75.1321C73.4532 74.4431 71.143 74.2327 68.7214 74.2823C66.3946 74.373 64.0803 74.6288 61.7618 74.8227C61.9763 75.2352 62.2279 75.6189 62.4796 76.0067C60.9037 75.92 60.0167 75.3095 59.9837 75.3549C59.9548 75.6973 59.9713 76.1016 59.9837 76.4522C59.0349 76.2955 58.478 76.0191 57.855 75.2765C57.0341 77.3144 55.5407 78.8532 53.7214 80.0083L53.1685 78.6758C52.3311 80.2806 50.6232 81.0149 50.1735 82.8961C49.3773 82.7393 48.8534 82.1865 48.5563 81.4192C48.3088 82.7682 48.4573 83.5562 48.9813 84.769C48.1355 84.9382 47.3352 85.0455 46.5184 84.6494C46.2048 86.84 45.454 88.6593 43.4243 89.8722L41.3534 92.5455C40.3385 93.8656 39.5506 94.6659 37.7271 94.4679C36.4359 94.2823 34.9095 94.1997 35.5902 95.7509L35.6108 95.7922C36.3905 95.0908 37.1784 95.3095 38.1149 95.4745C37.3146 95.7921 36.5761 95.8994 36.2709 96.345C35.5695 97.3887 36.4276 98.7088 38.2304 97.8631C38.3996 96.7492 38.7997 95.9778 39.9755 95.7261C39.6331 96.2501 38.4862 97.9951 39.6991 98.2921C40.6149 98.4984 41.077 97.1989 41.3039 96.5595C42.5951 98.0281 43.6801 97.1288 43.0613 95.4662C44.3897 94.8062 45.652 94.0347 46.9062 93.255C47.4672 93.4407 47.9293 93.5438 48.5233 93.453L48.4945 93.4407C48.0324 92.9786 47.6446 92.4959 47.2816 91.9514C46.1677 92.8796 44.8641 93.9811 43.6553 94.0224C46.5844 91.3326 51.4029 88.5686 51.8484 84.4184C52.0959 85.1651 52.1619 85.4456 52.1166 86.3491C55.025 86.2212 58.0613 84.7319 60.4994 83.222C58.9235 85.7261 54.6619 87.1082 51.8237 87.0587C51.704 87.4341 51.3822 87.8879 51.176 88.2344C52.228 88.9068 55.8501 88.4737 56.4029 88.3994C56.1883 87.8549 56.1265 87.4423 56.1058 86.8524C56.7577 87.0091 57.5085 87.0875 58.185 87.071C57.8426 86.7946 57.525 86.5595 57.2692 86.2253L63.3996 83.0694C64.7816 82.3681 66.0646 81.741 67.6075 81.5925C69.6166 81.6337 70.8006 82.6981 71.7164 84.2946C72.4342 85.6478 73.0283 87.0545 73.8575 88.3458C75.3138 90.359 76.5184 91.0067 78.7172 91.6296C79.7321 91.9143 80.6892 92.2897 81.4895 93.1271C82.0299 93.9852 82.4177 94.9299 82.0506 95.7509C81.3121 97.4547 78.1479 95.062 77.9705 97.269C78.02 97.7311 78.3624 97.9869 78.8369 98.0983C79.1628 96.8235 80.1982 97.005 81.2048 97.4093C79.6454 97.4093 79.4598 98.7006 79.9425 99.3111C80.289 99.7278 80.8996 99.8309 81.4111 99.2616C81.8773 98.7212 81.638 97.5661 82.789 97.2237C82.5827 97.6073 82.492 98.222 82.6405 98.6717C82.8261 99.2162 83.4491 99.3936 83.8121 98.8986C84.0803 98.5232 84.0308 97.8837 83.9606 97.3516C85.6438 97.3103 85.9449 96.4728 85.8459 95.4415C85.7593 94.5917 85.3839 93.6098 85.2766 92.8301V92.8466ZM54.4598 84.8681C55.2766 83.812 55.7098 83.0323 55.7428 81.6131C57.3393 83.0116 55.5572 84.8392 54.4598 84.8681ZM56.1553 84.4926C57.2197 83.189 57.5827 82.3804 57.5044 80.7757C59.4681 82.6073 57.7684 83.8243 56.1553 84.4926ZM58.2015 83.8161C59.0596 82.7724 59.3567 82.0587 59.3072 80.623C61.1017 82.2608 59.7733 83.4943 58.2015 83.8161ZM72.2444 82.5413V82.5331C71.5844 81.0644 70.5778 80.128 69.5547 78.9151C71.0935 79.2781 71.9227 80.029 72.7395 81.411C73.2428 82.4547 73.5687 83.5521 73.8946 84.6453C73.0448 84.2327 72.6529 83.42 72.2403 82.5372L72.2444 82.5413Z" fill="#F6921E"/>
<path fill-rule="evenodd" clip-rule="evenodd" d="M82.9045 99.7195C83.1149 100.025 83.2717 100.194 83.6636 100.479C83.6966 100.14 83.8245 99.8309 83.9441 99.5173C83.6966 99.7979 83.3707 99.8969 82.9128 99.7195H82.9045Z" fill="#F6921E"/>
<path fill-rule="evenodd" clip-rule="evenodd" d="M85.6233 98.4488C85.8295 98.0362 85.8749 97.8258 85.8832 97.4875C85.6728 97.7186 85.5119 97.8011 85.1365 97.8877L85.6233 98.4488Z" fill="#F6921E"/>
<path fill-rule="evenodd" clip-rule="evenodd" d="M31.2049 79.0348C31.0976 78.8409 30.487 78.713 30.4045 78.6965C30.5201 78.9729 30.5902 79.2493 30.5943 79.5257C30.6892 79.2947 31.0275 79.0719 31.209 79.0348H31.2049Z" fill="#F6921E"/>
<path fill-rule="evenodd" clip-rule="evenodd" d="M81.7041 82.2441C81.6628 82.2441 81.6257 82.2441 81.5762 82.2441L81.5844 82.2524L81.7041 82.2441Z" fill="#F6921E"/>
<path fill-rule="evenodd" clip-rule="evenodd" d="M79.4721 99.6616C79.5216 100.144 79.4804 100.231 79.6825 100.841C79.9878 100.503 80.0291 100.487 80.3962 100.285C79.9135 100.235 79.7073 100.173 79.4639 99.6575L79.4721 99.6616Z" fill="#F6921E"/>
<path fill-rule="evenodd" clip-rule="evenodd" d="M66.5762 99.9751C66.6422 100.549 66.9186 101.044 67.2445 101.27C67.4672 100.841 67.5869 100.528 67.9169 100.181C67.3229 100.301 66.9433 100.173 66.572 99.9751H66.5762Z" fill="#F6921E"/>
<path fill-rule="evenodd" clip-rule="evenodd" d="M69.8476 98.6221C70.2272 99.2244 70.0787 98.8407 70.4747 99.5833C70.8295 99.1419 70.7635 99.0676 70.9326 98.6221C70.4582 98.7582 70.4169 98.75 69.8435 98.6221H69.8476Z" fill="#F6921E"/>
<path fill-rule="evenodd" clip-rule="evenodd" d="M64.4431 99.6204C63.8326 99.542 63.5851 99.3811 63.42 98.9768C63.2509 99.4306 63.2922 99.8019 63.3334 100.247C63.8202 99.9504 63.9068 99.7483 64.439 99.6204H64.4431Z" fill="#F6921E"/>
<path fill-rule="evenodd" clip-rule="evenodd" d="M77.4796 97.438C77.1537 97.735 77.0754 98.0155 76.9805 98.3415C77.2527 98.2631 77.5663 98.2878 77.8674 98.3043C77.6612 98.0692 77.492 97.7474 77.4796 97.438Z" fill="#F6921E"/>
<path fill-rule="evenodd" clip-rule="evenodd" d="M73.4162 91.3161C72.195 90.2889 71.5845 89.7196 72.5952 88.0117C71.5969 85.5653 70.483 82.6775 68.1893 82.4795C67.785 83.2674 67.294 83.8203 66.7 84.4721C65.6563 85.5158 64.9426 86.2749 64.8642 87.7642C65.2602 89.2906 66.2957 90.0208 67.6076 90.7427C68.7008 91.3244 69.2454 91.8071 68.9277 92.9333C68.7503 93.6016 68.3337 94.2864 67.9046 94.8846C67.096 95.9985 66.2957 95.9985 65.0952 95.4044C64.5135 95.1115 63.9401 94.8846 63.2718 95.4539C62.9087 95.8871 62.8468 96.4481 63.2718 96.8359C64.0391 96.1965 64.4434 95.9902 65.5407 96.9267C64.5259 96.7204 63.9937 96.9968 63.7874 97.4011C63.3625 98.1808 64.4846 99.5216 65.6975 98.5851C66.044 97.661 66.5762 97.4506 67.4219 97.3516C66.8526 97.8137 65.7759 98.6264 67.0176 99.4886C67.5127 99.831 68.5234 99.2823 68.7627 97.7848C70.8543 98.8574 71.8609 97.2815 70.0746 95.883C71.0605 95.4168 71.8402 95.0372 72.9912 95.4168C72.8262 94.9259 72.5581 94.6783 72.2115 94.3318L71.8444 93.9853C70.6893 94.8722 69.8353 96.114 68.9236 97.2196C69.7198 94.4968 70.8749 93.4325 73.2635 92.3887C74.0308 92.0546 74.0432 91.8442 73.4203 91.3161H73.4162ZM71.9888 87.4919C70.7346 89.5422 71.2379 90.1734 72.6777 91.5843C70.4005 91.1882 69.2784 88.6759 71.9888 87.4919Z" fill="#F6921E"/>
<path fill-rule="evenodd" clip-rule="evenodd" d="M34.662 86.3162C34.7692 86.605 36.011 88.0736 35.9573 87.8591C35.8006 87.0588 35.7304 86.2378 35.6727 85.4251C35.1364 85.3013 34.7238 85.0002 34.4144 84.5051C36.0481 84.9053 38.5357 85.4375 40.6314 84.5588C40.7304 83.3913 40.487 82.2568 40.6562 81.0893C38.3047 82.0711 36.4318 82.8013 33.8946 82.8302C33.4986 82.7642 33.3171 82.6817 33.0365 82.3888C32.7519 81.8772 32.6529 81.3698 32.5415 80.8005C32.4342 80.388 32.3187 80.0125 31.9846 79.7114C31.704 79.5959 30.7057 79.963 31.011 80.1941C31.6669 80.7757 31.7535 81.4276 31.9186 82.2857C31.4854 81.8319 31.1265 81.4523 30.5984 81.1388C29.3402 80.6602 29.3773 82.1124 29.6372 82.8797C30.3674 82.6776 30.9326 82.8013 31.6422 82.9993C29.9177 83.2881 29.1545 85.1734 30.6149 85.2807C31.1265 85.3178 31.9639 84.8558 32.4219 84.6454C32.393 86.6297 32.7643 87.0216 34.6578 86.3121L34.662 86.3162Z" fill="#F6921E"/>
<path fill-rule="evenodd" clip-rule="evenodd" d="M60.5695 68.6428C60.4499 70.0125 60.1405 72.17 61.7948 72.6775C61.3533 71.6214 61.1058 70.491 61.1801 69.3359C60.9573 69.1214 60.7923 68.8532 60.5695 68.6469V68.6428Z" fill="#F6921E"/>
<path fill-rule="evenodd" clip-rule="evenodd" d="M63.2716 69.2245C61.8896 67.6692 61.8896 65.7963 61.279 64.2864C59.6825 63.8037 59.2988 62.9044 59.1998 61.2707C59.6949 62.1164 61.2996 64.2369 62.5001 63.2798C61.7782 62.9951 61.279 62.3846 60.9242 61.7245C60.5199 60.9283 60.1239 60.128 59.4143 59.5834V59.5958C59.1874 60.1981 58.8326 60.4539 58.3417 60.8458C58.746 59.5463 58.8244 58.4035 58.482 57.1082C57.1123 57.1453 56.2831 57.8961 55.3467 58.845C55.2972 58.4035 55.2683 58.0941 55.4251 57.6692C54.3112 57.3763 53.4118 57.0752 52.2691 57.4052C51.8277 57.6032 51.4193 57.859 50.9779 58.057C51.7658 58.5809 52.7807 58.7542 53.6882 58.9275C54.1503 60.0991 53.7089 61.6791 51.7287 60.7798C52.4465 60.6024 53.6305 60.1115 53.5356 59.0719C52.4506 59.7443 51.8401 60.326 50.982 61.3285C51.0315 60.392 51.4358 59.8681 52.067 59.2699C51.3203 59.0141 50.9407 58.6593 50.7757 58.1436C50.5076 58.2426 50.2229 58.2839 49.9383 58.3293C49.2081 58.3417 48.548 58.4695 47.9168 58.7253C47.2155 59.0182 46.7534 59.406 46.2089 59.9176C46.2213 59.9547 46.2666 60.1238 46.2996 60.1321C46.7411 60.2393 47.1495 59.3029 48.2798 59.6907C47.7683 60.0166 47.0546 60.2641 46.7988 60.854C46.5142 61.4852 47.0876 62.1453 47.5496 62.5578C48.2716 62.5207 48.9688 62.3103 49.6783 62.203C50.3508 62.2319 50.6767 62.4217 50.9779 63.0611C51.2708 64.2864 50.2559 64.5422 49.2534 64.6494C48.5851 64.6618 47.9333 64.6494 47.2815 64.5421L47.2444 64.6205C46.6544 66.345 48.0406 66.3738 49.3318 66.1511C50.0909 66.0149 50.9779 66.0149 51.6297 65.5488C52.5249 64.9547 52.628 64.1379 53.0199 63.0075C53.1313 65.4415 52.331 66.6874 49.9341 66.939C49.3731 68.1643 47.7477 68.8037 46.5637 69.1379C47.4383 69.6783 48.5232 69.8681 49.4721 70.161C48.2716 70.2517 47.2361 70.3095 46.2171 70.6725C45.3178 71.0067 44.6082 71.5884 43.8533 72.1783C43.6676 72.3186 42.9952 72.8219 42.7683 72.8219C44.2163 73.4943 46.2295 71.7781 47.331 71.0356C47.3227 72.0339 47.1907 72.7393 46.609 73.5191L46.6503 73.5314H46.6585C48.0199 73.2963 48.5439 72.6073 49.2617 71.5801C48.9151 74.1337 47.7642 75.128 44.7567 73.9852C45.227 73.6593 45.8995 73.2674 46.1965 72.7847C45.4787 73.2179 44.6907 73.4819 43.9564 73.8573C42.9085 74.5752 42.43 75.7014 41.9638 76.8359C41.4977 77.9085 41.015 78.7666 40.062 79.4885C40.7303 79.9506 41.6585 79.6783 42.3681 79.5587H42.3805C41.9473 80.26 41.6585 80.7839 41.4853 81.5884C41.4151 82.5042 41.5348 83.4035 41.5059 84.3318L42.2856 83.5851C42.661 84.9258 42.7972 86.3078 42.5331 87.6692C43.4325 86.5347 43.4036 85.3219 42.925 83.9398C44.2782 84.9464 44.1503 85.7426 43.9523 87.2897C43.9894 87.7435 44.0224 88.0405 43.9894 88.4737C45.3797 86.9431 45.6189 85.1115 45.8211 83.1766C46.3945 83.5809 47.0546 84.1007 47.793 84.0925C47.3104 82.5743 47.6651 81.1923 48.3376 79.8062C48.7295 80.4291 49.1585 81.1387 49.666 81.6874C50.029 80.6436 50.7922 80.0908 51.5513 79.3606C52.3681 78.354 52.595 77.4464 52.7064 76.2171C51.9886 77.4011 51.081 78.3953 50.5199 79.67C50.128 77.8672 49.7609 76.5554 51.6833 75.4827C51.4151 76.0273 51.081 76.6544 51.0439 77.2855C51.5554 76.7905 52.1453 76.3862 52.7312 75.9819L52.7683 75.5075C53.2015 76.5636 53.6552 77.6692 54.0967 78.7418C54.996 78.0941 55.6643 77.3392 56.1965 76.4852C56.8566 75.4497 57.2526 74.3276 57.628 73.1643C58.0447 73.9852 58.3788 74.7814 59.109 75.3425C59.1998 74.7691 59.3772 74.208 59.5546 73.6346C59.9217 74.109 60.2642 74.5834 60.817 74.8681C60.6396 74.4431 60.326 73.5686 60.3219 72.3928L59.7196 70.9654C59.2576 71.7823 58.5686 72.4341 57.8384 72.9992C57.3062 71.6502 57.3351 70.8623 57.9581 69.4184C57.9457 70.1073 57.8714 70.9737 58.2056 71.5966C59.1915 70.5529 59.6041 69.142 60.029 67.8012C59.8805 67.5125 59.732 67.2195 59.5958 66.9349C59.2906 68.0281 58.6965 68.3912 57.8384 68.9481C58.5686 67.6486 58.8368 66.4068 59.0884 64.9753C60.458 66.2377 60.7056 68.9192 63.2675 69.2162L63.2716 69.2245ZM50.6726 59.5298C50.6726 59.1461 50.8376 58.8285 51.0397 58.8285C51.2419 58.8285 51.4028 59.1461 51.4028 59.5298C51.4028 59.9134 51.2336 60.2311 51.0397 60.2311C50.8458 60.2311 50.6726 59.9258 50.6726 59.5298ZM49.3277 65.0248C50.7963 64.8598 51.4358 64.5339 51.1016 62.7682C52.727 64.9176 50.5983 65.8417 49.3277 65.0248ZM42.9498 81.3202C42.9209 80.8953 42.9498 79.6659 43.4118 78.9316C42.562 79.1874 42.3269 79.0677 42.0216 79.0512C42.1412 78.4489 42.3392 77.9497 42.5909 77.3928H42.5826C43.7089 75.656 44.0925 75.1527 46.1346 74.8309C44.9795 75.7179 43.8203 76.7327 43.2138 78.1148C43.8945 77.8755 44.5463 77.4547 45.194 77.1288C44.699 78.1354 44.0595 79.2286 43.812 80.3342C44.9836 80.0001 45.8623 78.6882 46.6792 77.8301C46.1676 79.5257 44.9135 81.5388 42.9539 81.3202H42.9498ZM45.1693 84.7814C43.4944 84.1997 43.2551 83.453 43.6429 81.51C43.7914 81.873 44.1668 82.859 44.6412 83.4695C44.9259 81.2006 46.4151 79.9588 47.529 79.3606C46.1181 81.1676 45.3425 82.3186 45.1651 84.7814H45.1693ZM58.0529 57.3928C58.647 58.7954 58.4985 59.6288 57.6569 61.0809C57.7147 60.1321 57.8137 59.5256 57.5414 58.5851H57.5043C56.7823 58.8202 56.1635 59.2946 55.6231 59.8351C56.0645 58.6222 56.7246 57.7146 58.0488 57.3928H58.0529ZM57.1206 62.6898C58.3128 64.0884 58.284 66.3078 56.213 66.9679C57.1 65.4869 57.2402 64.4266 57.1206 62.6898ZM54.5587 60.5199C55.1404 61.2088 55.5942 62.0958 55.359 63.0364C55.0909 64.0842 54.3112 64.4679 53.1808 64.7608C54.699 63.4324 54.7774 62.3969 54.5587 60.5199ZM52.8302 67.0752C52.5249 67.7723 52.0917 68.5521 51.9349 69.2946C53.3665 68.3664 54.2823 66.7327 55.0496 65.2435C54.5257 68.387 53.218 69.9877 50.3384 71.2088C50.5942 69.4555 51.2666 68.3128 52.8302 67.0752ZM54.3566 77.4258C54.4762 76.411 54.5917 75.2971 54.3648 74.2988C53.5851 75.0991 52.7683 75.425 51.7122 75.7096L52.067 74.2781C50.9036 75.4044 49.7196 76.2418 48.3417 77.0586C48.3995 74.406 49.4556 72.6733 51.8236 71.378V71.3862C50.9737 72.6073 49.534 74.01 49.2493 75.5157C50.982 74.3524 52.3929 72.6857 53.7254 71.0809L52.9085 74.3813C53.8533 73.9398 54.2287 73.0405 54.8929 72.4464C55.3467 74.7938 55.7097 75.4456 54.3524 77.4341L54.3566 77.4258ZM55.4911 72.7806C54.7897 70.8375 54.468 69.5875 55.883 67.6321C55.6973 68.7748 55.5282 69.6618 55.7551 70.8045C56.2584 69.0182 57.3145 67.3928 58.6552 66.1593C57.5785 68.3582 56.6833 70.6478 55.4911 72.7847V72.7806Z" fill="#F6921E"/>
<path fill-rule="evenodd" clip-rule="evenodd" d="M71.77 69.2822H71.7948C72.3888 69.2822 72.9664 69.3935 73.5646 69.4719C73.7997 69.1295 74.1091 68.816 74.4433 68.585C74.2906 68.4777 74.1421 68.3622 74.0184 68.2178C73.2882 68.1312 72.1372 68.6303 71.77 69.2863V69.2822Z" fill="#F6921E"/>
<path fill-rule="evenodd" clip-rule="evenodd" d="M47.9375 63.8573C48.0118 63.5768 48.0737 63.3128 48.3006 63.0776C48.0489 63.1436 47.8468 63.1849 47.5786 63.0983C47.6446 63.3499 47.789 63.6139 47.9375 63.8573Z" fill="#F6921E"/>
<path fill-rule="evenodd" clip-rule="evenodd" d="M65.1116 63.7088C66.7948 65.6973 69.9136 67.2691 72.3847 67.8136C72.6652 67.6981 72.9581 67.5743 73.2593 67.4877C72.69 67.3021 72.1124 66.9844 71.5431 66.8153C70.091 66.2253 68.6636 65.6106 67.4053 64.7278C66.5307 64.1172 65.6892 63.4695 65.2931 62.4671C64.8682 61.4027 64.9218 60.4085 66.0811 59.4431C66.8236 59.1626 67.2114 59.1626 67.9705 59.3978C68.0654 59.2327 68.185 59.0719 68.3253 58.9233C64.7527 57.4753 63.0778 61.5595 65.1157 63.7088H65.1075H65.1116Z" fill="#F6921E"/>
<path fill-rule="evenodd" clip-rule="evenodd" d="M76.3409 67.9414C75.4869 67.3267 75.1074 66.7368 75.2188 65.759C74.0266 66.2252 74.1173 67.5412 75.4869 68.3663L77.0381 68.9397C76.5059 68.9769 76.0026 69.0099 75.4952 69.1089C74.5794 69.2986 73.6388 70.2392 74.3937 71.2005C74.5587 69.5379 76.8277 70.6311 77.496 69.5173C77.8797 68.8778 76.7369 68.2384 76.3327 67.9373L76.3409 67.9414Z" fill="#F6921E"/>
<path fill-rule="evenodd" clip-rule="evenodd" d="M40.4004 85.5527C39.567 85.7136 38.7048 85.7508 37.855 85.7343C38.5811 86.0519 39.2906 86.3737 40.0579 86.5676C40.1776 86.2334 40.2807 85.9158 40.3839 85.5899L40.4004 85.5527Z" fill="#F6921E"/>
<path fill-rule="evenodd" clip-rule="evenodd" d="M32.8385 87.4877C32.331 87.302 32.3104 87.335 32.1784 86.9431C32.0959 87.2979 32.1124 87.6568 32.2898 88.0157C32.4919 87.5991 32.7106 87.6898 32.8385 87.4877Z" fill="#F6921E"/>
<path fill-rule="evenodd" clip-rule="evenodd" d="M41.8195 86.8069C41.869 86.2706 41.8855 85.7343 41.8195 85.198L40.3096 86.6336C40.8087 86.7203 41.2997 86.7945 41.8195 86.8069Z" fill="#F6921E"/>
<path fill-rule="evenodd" clip-rule="evenodd" d="M37.529 85.7387L35.9861 85.52C36.4399 86.5142 36.906 87.1413 37.8673 87.558L37.8178 87.3558C37.6858 86.8113 37.6074 86.2832 37.529 85.7387Z" fill="#F6921E"/>
<path fill-rule="evenodd" clip-rule="evenodd" d="M69.732 59.0472C69.2287 59.2699 68.9894 59.3813 68.6718 59.9052C68.5026 60.5983 68.7378 61.2666 68.5728 61.9349C69.2823 61.7823 69.7196 60.6561 70.0043 60.095C70.1363 61.4605 70.2435 62.7683 71.312 63.8038C71.1883 62.8755 70.9325 62.0546 70.6396 61.18C71.902 62.43 72.6528 63.2757 74.3772 63.8038L74.3195 63.713C73.5067 62.628 72.4424 61.8483 71.411 61.0026C72.4506 61.3739 74.0266 62.133 75.194 61.2625C74.3277 61.0026 73.251 60.5942 72.4094 59.9465C71.5224 59.2658 70.9366 58.6552 69.7402 59.043L69.732 59.0472Z" fill="#F6921E"/>
</g>
<defs>
<clipPath id="clip0_78_1413">
<rect width="120" height="120" fill="white"/>
</clipPath>
</defs>
</svg>
