<svg width="120" height="120" viewBox="0 0 120 120" fill="none" xmlns="http://www.w3.org/2000/svg">
<g clip-path="url(#clip0_242_221)">
<path d="M60 120C93.1371 120 120 93.1371 120 60C120 26.8629 93.1371 0 60 0C26.8629 0 0 26.8629 0 60C0 93.1371 26.8629 120 60 120Z" fill="black"/>
<path d="M75.0827 63.0237H44.9878L44.9177 62.8711V35.3092C44.5093 31.6871 42.265 28.3455 39.6207 25.9487C38.1479 24.612 36.4193 23.5601 34.5876 22.7927C35.5571 24.8389 36.2213 27.0171 36.5225 29.2696C36.6627 30.3092 36.7081 31.353 36.7494 32.4008C36.7535 32.5204 36.8071 32.6318 36.7989 32.7515V71.1549H55.8954L55.9614 71.2209V79.48C55.9119 79.5543 55.8418 79.5501 55.7634 79.5501C55.2188 79.5501 54.468 79.4388 53.9152 79.3645C51.3203 79.0138 48.7832 78.1269 46.4235 77.0295V90.1896C49.1669 88.9355 52.1124 87.9495 55.1446 87.7185C55.322 87.7061 55.6561 87.6648 55.8088 87.669C55.8583 87.669 55.9119 87.669 55.9449 87.7143C56.0027 87.7927 55.8129 89.4346 55.7799 89.678C55.4251 92.3018 54.5216 94.8142 53.4449 97.2152H66.5596C66.4565 96.8356 66.2502 96.4767 66.0975 96.1096C64.9878 93.4322 64.1627 90.598 64.0885 87.6772C66.8525 87.7927 69.4886 88.494 72.0381 89.513C72.5538 89.7193 73.0612 89.9792 73.5852 90.1525V77.079C72.7312 77.4008 71.8896 77.801 71.0233 78.1145C68.7997 78.9231 66.4647 79.4429 64.0926 79.5501V71.1591H83.2139L83.2551 32.1822C83.3665 30.0328 83.6264 27.9082 84.2494 25.8455C84.5629 24.8142 84.9837 23.8282 85.421 22.8422C83.6801 23.4858 82.0051 24.5584 80.6066 25.7795C77.9705 28.0774 75.2807 31.9429 75.0868 35.5402V63.032L75.0827 63.0237Z" fill="#F6921E"/>
<path d="M75.0827 63.0239V35.5322C75.2766 31.939 77.9663 28.0734 80.6025 25.7715C82.001 24.5503 83.6718 23.4777 85.4168 22.8342C84.9837 23.816 84.5587 24.8061 84.2452 25.8375C83.6181 27.9002 83.3624 30.0248 83.251 32.1741L83.2097 71.151H64.0884V79.5421C66.4606 79.4348 68.7955 78.915 71.0191 78.1065C71.8855 77.7929 72.7271 77.3928 73.581 77.071V90.1444C73.0571 89.9753 72.5497 89.7112 72.034 89.505C69.4845 88.4901 66.8483 87.7847 64.0843 87.6692C64.1586 90.5941 64.9878 93.4282 66.0934 96.1015C66.246 96.4687 66.4523 96.8276 66.5554 97.2071H53.4408C54.5175 94.8061 55.421 92.2979 55.7757 89.67C55.8087 89.4266 55.9944 87.7888 55.9408 87.7063C55.9119 87.665 55.8541 87.6609 55.8046 87.6609C55.652 87.6568 55.3178 87.6939 55.1404 87.7104C52.1041 87.9456 49.1586 88.9274 46.4193 90.1815V77.0215C48.779 78.1188 51.3162 79.0058 53.911 79.3565C54.4639 79.4307 55.2188 79.5421 55.7592 79.5421C55.8376 79.5421 55.9078 79.5421 55.9573 79.472V71.2129L55.8912 71.1469H36.7906V32.7434C36.7988 32.6238 36.7493 32.5124 36.7452 32.3928C36.7081 31.3449 36.6627 30.3012 36.5183 29.2616C36.213 27.0091 35.553 24.8309 34.5835 22.7847C36.4152 23.552 38.1437 24.6081 39.6165 25.9406C42.2609 28.3375 44.501 31.6791 44.9177 35.3012V62.8631L44.9837 63.0157H75.0785L75.0827 63.0239Z" fill="#F6921E"/>
</g>
<defs>
<clipPath id="clip0_242_221">
<rect width="120" height="120" fill="white"/>
</clipPath>
</defs>
</svg>
