<svg width="120" height="120" viewBox="0 0 120 120" fill="none" xmlns="http://www.w3.org/2000/svg">
<g clip-path="url(#clip0_840_9296)">
<path d="M60 120C93.1371 120 120 93.1371 120 60C120 26.8629 93.1371 0 60 0C26.8629 0 0 26.8629 0 60C0 93.1371 26.8629 120 60 120Z" fill="black"/>
<path d="M60 25C79.33 25 95 40.67 95 60C95 79.33 79.33 95 60 95C40.67 95 25 79.33 25 60C25 40.67 40.67 25 60 25ZM55.8848 73.1553V83.333L74.8486 65.5195V55.3086L55.8848 73.1553ZM45.1514 68.7539V78.9395L45.1836 78.9092V78.9053L47.1201 77.0947H47.125L74.8486 51.1953V41.0312L45.1514 68.7539ZM45.2529 54.4453V64.6182L64.1846 46.8438V36.666L45.2529 54.4453Z" fill="#F6921E"/>
</g>
<defs>
<clipPath id="clip0_840_9296">
<rect width="120" height="120" fill="white"/>
</clipPath>
</defs>
</svg>
