<svg width="48" height="48" viewBox="0 0 48 48" fill="none" xmlns="http://www.w3.org/2000/svg">
<path fill-rule="evenodd" clip-rule="evenodd" d="M18.4635 18.2682C18.4635 12.045 23.5085 7 29.7318 7C31.0576 7 32.3333 7.22966 33.519 7.65271C34.0388 7.83817 34.4273 8.277 34.5485 8.81544C34.6697 9.35388 34.5066 9.91685 34.1163 10.3071L30.5047 13.957C29.9925 14.4746 29.7364 14.7334 29.6158 15.0202C29.4465 15.4224 29.4478 15.876 29.6193 16.2772C29.7416 16.5633 29.9992 16.8207 30.5143 17.3354C31.0304 17.8511 31.2884 18.1089 31.575 18.231C31.977 18.4022 32.4314 18.4027 32.8337 18.2323C33.1206 18.1108 33.3791 17.8535 33.8963 17.3388L37.6052 13.6478C37.9902 13.2628 38.5436 13.0985 39.0762 13.2111C39.6089 13.3236 40.0486 13.6977 40.2449 14.2055C40.7331 15.468 41 16.8389 41 18.2682C41 24.4915 35.955 29.5365 29.7318 29.5365C28.812 29.5365 27.9158 29.4259 27.0567 29.2167C26.6494 29.1174 26.3918 29.055 26.2035 29.0171C26.1687 29.0101 26.1402 29.0049 26.1174 29.0009C26.1114 29.0062 26.1048 29.0121 26.0976 29.0186C25.9976 29.1089 25.8663 29.2394 25.6348 29.4709L15.5774 39.5283C13.6152 41.4906 10.4339 41.4905 8.47165 39.5283C6.50945 37.5661 6.50945 34.3848 8.47165 32.4226L18.5291 22.3652C18.7606 22.1337 18.8911 22.0024 18.9814 21.9024C19.0066 21.8745 18.9923 21.8434 18.9829 21.7965C18.945 21.6082 18.8826 21.3506 18.7833 20.9433C18.5741 20.0842 18.4635 19.188 18.4635 18.2682Z" fill="black"/>
</svg>
