<svg width="120" height="120" viewBox="0 0 120 120" fill="none" xmlns="http://www.w3.org/2000/svg">
<g clip-path="url(#clip0_741_12309)">
<path d="M60 120C93.1371 120 120 93.1371 120 60C120 26.8629 93.1371 0 60 0C26.8629 0 0 26.8629 0 60C0 93.1371 26.8629 120 60 120Z" fill="black"/>
<path d="M77.9682 28.7917H88.092L91.2054 31.9044V42.0261L88.2602 39.0815L88.1978 31.7987L80.9161 31.739L77.9682 28.7917Z" fill="#F8963A"/>
<path d="M92 43.9512L87.4656 39.4177L87.4086 32.5931L80.5826 32.5362L76.0454 28H88.4202L92 31.5791V43.9512ZM89.0521 38.7534L90.4054 40.1091V32.2379L87.7584 29.5916H79.8883L81.2443 30.9473L88.9843 31.0097L89.0494 38.748L89.0521 38.7534Z" fill="#F8963A"/>
<path d="M42.0318 28.7917H31.908L28.7946 31.9044V42.0261L31.7425 39.0815L31.8022 31.7987L39.0866 31.739L42.0318 28.7917Z" fill="#F8963A"/>
<path d="M28 31.5791L31.5798 28H43.9546L39.4174 32.5362L32.5914 32.5931L32.5344 39.4177L28 43.9512V31.5791ZM29.5947 32.2379V40.1064L30.9479 38.7507L31.013 31.0124L38.753 30.95L40.109 29.5943H32.2388L29.5919 32.2406L29.5947 32.2379Z" fill="#F8963A"/>
<path d="M77.9682 91.1974H88.092L91.2054 88.0874V77.9658L88.2602 80.9076L88.1978 88.1932L80.9134 88.2528L77.9682 91.1974Z" fill="#F8963A"/>
<path d="M88.4202 92H76.0454L80.5826 87.4638L87.4086 87.4069L87.4656 80.5823L92 76.0488V88.4209L88.4202 92ZM79.891 90.4057H87.7612L90.4081 87.7594V79.8909L89.0548 81.2439L88.9897 88.9822L81.2497 89.0446L79.8937 90.4003L79.891 90.4057Z" fill="#F8963A"/>
<path d="M42.0318 91.1974H31.908L28.7946 88.0874V77.9658L31.7425 80.9076L31.8022 88.1932L39.0866 88.2528L42.0318 91.1974Z" fill="#F8963A"/>
<path d="M43.9546 92H31.5798L28 88.4209V76.0488L32.5344 80.5823L32.5914 87.4069L39.4174 87.4638L43.9546 92ZM32.2388 90.4057H40.109L38.753 89.05L31.013 88.9876L30.9479 81.2493L29.5947 79.8936V87.7621L32.2416 90.4084L32.2388 90.4057Z" fill="#F8963A"/>
<path d="M65.6342 37.9915C61.954 37.0642 58.1057 37.0425 54.4337 37.9942L54.4066 40.2528C53.7123 40.4508 53.0126 40.6731 52.3427 40.9442C51.7488 41.1856 50.645 41.8715 50.1569 41.9936C50.0104 42.0315 50.0131 42.018 49.8938 41.9393C49.4463 41.6384 48.95 40.8683 48.4917 40.5213H48.291C45.1099 42.4708 42.5037 45.1117 40.5375 48.2759V48.4765L42.0345 50.0708C41.3267 51.4536 40.6433 52.8717 40.2744 54.3901L38.0669 54.3955C36.9902 58.0044 37.1204 61.9576 38.0072 65.6126L40.3422 65.5258L44.6 61.2554C43.7946 50.5508 53.7313 42.2864 64.1697 45.1198C77.5696 48.7585 79.4788 67.2232 67.2749 73.6465C63.5513 75.6068 58.1789 76.1139 54.2845 74.3325C54.1571 74.2728 53.8587 74.1969 53.9021 74.0017L57.1945 70.7372C64.7392 72.6758 71.9232 66.4992 71.0527 58.7175C70.955 57.8499 70.7028 56.9958 70.4289 56.1688L70.1198 56.3233L63.7358 62.7222L63.329 62.8199L58.4989 61.5536L57.1484 56.4399L63.7819 49.5638C56.37 46.8443 48.4863 52.7063 48.9094 60.5857C48.9365 61.1171 49.327 62.5867 49.1724 62.9175L40.5239 71.5967C42.3491 74.8016 45.0963 77.4181 48.1934 79.3947C48.3073 79.4706 48.3805 79.4516 48.4972 79.3947C48.7846 79.2645 49.8097 77.9251 50.0077 77.9115C51.3881 78.6328 52.8011 79.3215 54.3252 79.6983L54.431 82.0329C58.0921 82.8436 61.9811 82.99 65.607 81.938C65.7806 81.5096 65.4877 79.918 65.7535 79.6956C65.8918 79.579 67.9258 78.9337 68.3488 78.7602C68.7719 78.584 69.4472 78.1176 69.8079 78.0281C70.0059 77.9793 70.0031 77.9793 70.174 78.0823C70.551 78.3047 71.2941 79.4814 71.7009 79.4245C72.1809 79.3594 74.6569 77.3828 75.1559 76.9408C76.3546 75.8753 77.6672 74.4084 78.5784 73.0879C78.7927 72.7788 79.5656 71.7485 79.4246 71.4421C79.27 71.1032 78.0279 70.2627 78.0198 69.9319L79.7337 65.7184C80.0049 65.3903 81.8301 65.8783 82.0552 65.4391C82.2233 65.1083 82.405 63.8068 82.4755 63.3621C82.9257 60.3525 82.7332 57.3537 82.0715 54.3955L79.7364 54.2898C79.5222 53.4736 79.2266 52.6765 78.9039 51.901C78.7195 51.4564 77.9113 50.1739 78.074 49.8214C78.2367 49.4716 79.2808 48.7965 79.43 48.4657C79.4842 48.3491 79.5059 48.2759 79.4273 48.1647C77.4801 45.0602 74.8386 42.3894 71.69 40.5077L69.9896 42.0098L65.6721 40.2447L65.6477 37.9834L65.6423 37.9888L65.6342 37.9915Z" fill="#F8963A"/>
<path d="M65.6342 37.9915L65.6586 40.2528L69.976 42.018L71.6764 40.5158C74.8278 42.3948 77.4692 45.0683 79.4137 48.1728C79.4924 48.2813 79.4707 48.3599 79.4164 48.4738C79.2618 48.8046 78.2177 49.4906 78.0604 49.8295C77.9031 50.1684 78.7059 51.4645 78.8903 51.9092C79.213 52.6846 79.5114 53.4818 79.7229 54.2979L82.0579 54.4037C82.7142 57.3618 82.9095 60.3606 82.462 63.3703C82.3969 63.8149 82.2152 65.1137 82.0416 65.4472C81.8165 65.8865 79.9941 65.3984 79.7202 65.7265L78.0062 69.94C78.0116 70.2681 79.2564 71.1113 79.411 71.4503C79.552 71.7567 78.7791 72.7897 78.5649 73.0961C77.6564 74.4165 76.341 75.8861 75.1423 76.949C74.6433 77.3909 72.1673 79.3648 71.6873 79.4326C71.2778 79.4896 70.5347 78.3128 70.1577 78.0905C69.9842 77.9875 69.9896 77.9874 69.7916 78.0363C69.4309 78.1257 68.7529 78.5948 68.3326 78.7683C67.9122 78.9446 65.8755 79.5926 65.7372 79.7038C65.4687 79.9261 65.7616 81.5177 65.5908 81.9461C61.9648 82.9981 58.0759 82.849 54.4147 82.041L54.3089 79.7065C52.7875 79.3269 51.3718 78.6382 49.9914 77.9197C49.7935 77.9359 48.7711 79.2699 48.4809 79.4028C48.3643 79.457 48.291 79.476 48.1771 79.4028C45.0828 77.4235 42.3328 74.8097 40.5077 71.6048L49.1562 62.9256C49.3108 62.5975 48.9202 61.1252 48.8931 60.5938C48.4673 52.7145 56.3538 46.8497 63.7656 49.5719L57.1321 56.4481L58.4827 61.5618L63.3127 62.828L63.7195 62.7304L70.1035 56.3315L70.4127 56.1769C70.6839 57.0012 70.9388 57.858 71.0364 58.7256C71.907 66.5019 64.7229 72.6839 57.1782 70.7453L53.8859 74.0098C53.8425 74.2105 54.1435 74.2864 54.2682 74.3406C58.1572 76.122 63.5324 75.615 67.2586 73.6546C79.4625 67.2367 77.5533 48.7694 64.1534 45.1279C53.7123 42.2918 43.7783 50.5562 44.5838 61.2635L40.326 65.534L37.9909 65.6207C37.1041 61.9603 36.9712 58.0098 38.0506 54.4037L40.2582 54.3982C40.6297 52.8799 41.3131 51.4618 42.0182 50.0763L40.5212 48.482V48.2813C42.4874 45.1171 45.0963 42.4762 48.2775 40.5294H48.4782C48.9392 40.8737 49.4355 41.6465 49.8803 41.9448C49.9996 42.0234 49.9969 42.0342 50.1433 41.999C50.6288 41.877 51.7298 41.191 52.3292 40.9497C52.999 40.6785 53.6987 40.4562 54.393 40.2583L54.4201 37.9997C58.0921 37.048 61.9459 37.0696 65.6206 37.9969V37.9915L65.6342 37.9915Z" fill="#F8963A"/>
</g>
<defs>
<clipPath id="clip0_741_12309">
<rect width="120" height="120" fill="white"/>
</clipPath>
</defs>
</svg>
