<svg width="120" height="120" viewBox="0 0 120 120" fill="none" xmlns="http://www.w3.org/2000/svg">
<g clip-path="url(#clip0_45_4148)">
<path d="M60 120C93.1371 120 120 93.1371 120 60C120 26.8629 93.1371 0 60 0C26.8629 0 0 26.8629 0 60C0 93.1371 26.8629 120 60 120Z" fill="black"/>
<path d="M78.442 23.6952V77.963L59.5557 97.0418L40.6693 77.963V23.6952H78.4328M39.9998 23V78.2355L59.565 98L79.1302 78.2355V23H39.9998Z" fill="#F08D00"/>
<path d="M59.564 91.6682L44.3786 76.3281L76.1163 43.9008V25.9023H42.9651V61.749L63.7113 40.4439V29.0492L44.3228 48.9735V27.2738H74.7586V33.9152L42.9651 66.3708V76.8448L59.564 93.6033L76.1163 76.8824V48.4944L55.3236 69.884V81.2787L74.7586 61.3169V76.3187L59.564 91.6682Z" fill="#F08D00"/>
</g>
<defs>
<clipPath id="clip0_45_4148">
<rect width="120" height="120" fill="white"/>
</clipPath>
</defs>
</svg>
