<svg width="120" height="120" viewBox="0 0 120 120" fill="none" xmlns="http://www.w3.org/2000/svg">
<g clip-path="url(#clip0_242_13)">
<path d="M60.0021 120.004C93.1403 120.004 120.004 93.1403 120.004 60.0021C120.004 26.8639 93.1403 0 60.0021 0C26.8639 0 0 26.8639 0 60.0021C0 93.1403 26.8639 120.004 60.0021 120.004Z" fill="black"/>
<path d="M29.8925 33.4871C30.7692 33.2158 31.3788 32.3933 31.3788 31.4706C31.3788 30.3058 30.4311 29.3623 29.2705 29.3623C28.1098 29.3623 27.1621 30.31 27.1621 31.4706C27.1621 32.3933 27.7717 33.2158 28.6484 33.4871H29.8925Z" fill="#F6921E"/>
<path d="M29.2705 20.6033L27.563 26.9993C27.563 27.2164 27.6089 27.4251 27.6924 27.6255C27.9596 28.2684 28.5775 28.6859 29.2747 28.6859C30.2099 28.6859 30.9697 27.9344 30.9823 27.0034L29.2747 20.6074L29.2705 20.6033Z" fill="#F6921E"/>
<path d="M41.3611 57.8896C41.3611 57.8896 41.3611 57.9189 41.3611 57.9314H41.3861C41.3861 57.9314 41.3694 57.9022 41.3611 57.8896Z" fill="#F6921E"/>
<path d="M51.1054 57.7059C51.1388 57.5556 51.1639 57.4136 51.1806 57.2926C51.1973 57.1882 51.2891 57.1089 51.3977 57.113C51.5355 57.1172 51.6691 57.113 51.8027 57.0963C51.9655 57.0796 52.1283 57.0462 52.2828 56.9961C53.8985 56.5035 54.4078 54.6582 54.4621 54.4494C54.4913 54.3409 54.5581 54.2449 54.6583 54.1906C54.7543 54.1321 54.8712 54.1154 54.9798 54.1447C55.0883 54.1739 55.1802 54.2407 55.2386 54.3409C55.2971 54.4411 55.3138 54.5538 55.2845 54.6623C55.2219 54.917 54.6082 57.1548 52.5667 57.8019C53.0384 59.5261 52.7796 60.8454 52.4665 61.6637C51.7233 63.6217 49.9991 64.7281 49.2643 65.1999C48.5212 65.6758 47.9033 65.9305 47.4065 66.1309C46.7051 66.419 46.321 66.5734 46.0538 67.1078C45.6572 67.8927 45.8575 68.8362 45.9202 69.1452C45.987 69.4667 46.0955 69.7756 46.2416 70.0678C46.3043 69.9092 46.3752 69.7505 46.4587 69.6044C47.1601 68.3227 48.3625 67.7883 49.2392 67.3959C50.0033 67.0535 50.5084 66.9575 50.9927 66.8657C51.4102 66.7864 51.8027 66.7112 52.3704 66.4816C52.9633 66.2394 53.5311 65.9096 54.0529 65.5046C54.174 65.4128 54.2909 65.3168 54.4036 65.2166C54.4746 65.154 54.579 65.1456 54.6583 65.1957C54.7376 65.2458 54.7752 65.346 54.746 65.4337C54.6959 65.5923 54.6458 65.7468 54.5832 65.9013C54.4746 66.1726 54.3494 66.4398 54.2032 66.6987C53.7983 67.4126 53.243 68.0555 52.6042 68.5565C52.4581 68.6692 52.3036 68.7778 52.1492 68.878C53.1178 68.7778 54.0446 68.5148 54.9046 68.0889C56.7291 67.1871 57.7561 65.7802 58.3114 65.0245C58.875 64.2522 59.3426 63.4088 59.6974 62.5154C59.7601 62.3651 59.8143 62.2106 59.8686 62.0562C59.902 61.9643 59.998 61.9059 60.0941 61.9184C60.1943 61.9309 60.2694 62.0102 60.2778 62.1063C60.2903 62.2607 60.3195 62.4152 60.3529 62.5571C60.3947 62.7283 60.4531 62.8911 60.5241 63.0456C60.8622 62.3359 61.0877 61.5886 61.1879 60.8204C61.238 60.4279 61.2589 60.0313 61.2463 59.6389C60.5282 58.6035 60.5909 57.4053 60.5992 57.2717C60.6117 57.088 60.7787 56.9544 60.9541 56.9627C61.0418 56.9711 61.1253 57.0087 61.1837 57.0796C61.2422 57.1464 61.2714 57.2341 61.263 57.3218C61.263 57.3552 61.2088 58.1609 61.6012 58.9417C61.6764 59.0919 61.764 59.2297 61.8601 59.3591C62.0145 59.5595 62.194 59.7349 62.4028 59.8768C63.1459 60.3945 63.9433 60.357 64.2523 60.3194C64.9787 60.2234 65.5006 59.8518 65.8137 59.547C65.8304 59.5094 65.8304 59.4927 65.8304 59.4927C65.7928 59.451 65.559 59.4134 65.4087 59.3884C65.0038 59.3216 64.4443 59.2297 64.0769 58.783C63.7722 58.4198 63.793 58.0482 63.8181 57.5806C63.8348 57.2258 63.8598 56.7832 63.768 56.1695C63.6469 55.322 63.5551 54.7083 63.1334 54.1363C62.7785 53.6562 62.2859 53.3306 61.8559 53.0425C61.3424 52.7001 60.8956 52.4079 60.9666 51.957C60.975 51.9111 60.9875 51.861 61.0042 51.8067C61.0125 51.7775 61.0251 51.7441 61.0334 51.7107C60.4322 52.2158 59.8102 52.4705 59.4595 52.5832C59.4386 52.5916 59.3801 52.5999 59.3593 52.5999C59.2131 52.5999 59.0879 52.5081 59.042 52.3703C58.9877 52.195 59.0837 52.0071 59.2549 51.9486C59.7308 51.7983 60.6243 51.4017 61.2672 50.4832C61.6012 50.0073 61.8225 49.4479 61.9102 48.8592C61.9853 48.2413 61.8976 47.7904 61.668 47.6318C61.6304 47.6067 61.5469 47.5775 60.9416 47.5942C60.4281 47.6109 60.0022 47.6443 59.6766 47.6693C59.4219 47.6902 59.2257 47.7027 59.1004 47.7027C59.1004 47.7027 59.0921 47.7027 59.0837 47.7027C58.5493 47.8322 57.9022 47.9365 57.1507 48.0618L57.0088 48.0868C57.0088 48.0868 56.967 48.091 56.9545 48.091C56.7917 48.091 56.6497 47.9741 56.6247 47.8113C56.5955 47.6318 56.7207 47.4606 56.9002 47.4314L57.0422 47.4105C58.8207 47.1141 59.6306 46.968 60.2318 46.5338C60.4322 46.3876 60.8497 46.0912 60.9541 45.6111C60.9708 45.5401 60.9791 45.4608 60.9791 45.3773C60.929 45.394 60.8163 45.4316 60.6994 45.4733C60.5533 45.5234 60.3738 45.5861 60.1525 45.632C59.9354 45.6779 59.71 45.6988 59.4762 45.6988C59.2424 45.6988 58.8666 45.6737 58.445 45.5568C58.1736 45.4817 57.9899 45.3898 57.8396 45.3189C57.6475 45.227 57.5181 45.1644 57.276 45.1644C57.0881 45.1644 56.9629 45.1853 56.871 45.1978C56.8251 45.2061 56.7833 45.2103 56.7499 45.2145C56.5495 45.49 56.3032 45.7155 56.0235 45.8616C55.6144 46.0787 55.1551 46.1705 54.7335 46.1204C54.3911 46.0787 54.174 45.9576 53.9611 45.8407C53.8609 45.7823 53.7523 45.7238 53.6187 45.6654C53.1303 45.4566 52.7128 45.4525 52.1867 45.4525C51.118 45.4525 50.2412 45.8282 49.6943 46.1413C49.5398 46.229 49.3269 46.1705 49.2392 46.0161C49.1933 45.9409 49.185 45.8491 49.2058 45.7656C49.2309 45.6779 49.2852 45.6069 49.3603 45.561C49.9782 45.2061 50.9718 44.7803 52.1826 44.7803C52.7211 44.7803 53.2722 44.7803 53.8859 45.0475C54.0404 45.1143 54.1698 45.1853 54.2784 45.2479C54.4788 45.3606 54.5998 45.4274 54.8128 45.4525C55.1008 45.4859 55.4181 45.4232 55.7062 45.2688C56.0235 45.1018 56.274 44.797 56.4368 44.392L56.4452 44.3586C56.4786 44.2459 56.5036 44.1749 56.5287 44.1123C56.466 44.1457 56.3992 44.1791 56.3408 44.2083C56.2072 44.2793 56.0694 44.3545 55.94 44.4087C55.3388 44.6759 54.7627 44.5966 54.0404 44.4338C53.5269 44.3169 52.8923 44.1749 51.9905 44.1624H51.8987C51.2056 44.1499 50.7297 44.1624 50.1786 44.3878C49.5899 44.63 49.0806 45.0475 48.6548 45.632C48.4836 45.8032 48.4001 45.9159 48.3249 46.0119C48.2331 46.1288 48.1496 46.2415 47.9951 46.3542C47.7404 46.5379 47.5108 46.5588 47.3563 46.5588C47.2687 46.5588 47.1768 46.5505 47.085 46.5421C46.8971 46.5212 46.7051 46.4586 46.3752 46.6548C46.0621 46.8427 45.8868 47.1183 45.5987 47.5775L45.4818 47.7654C45.4818 47.7654 45.4651 47.7904 45.4526 47.8029C45.39 47.8572 45.3566 47.9198 45.3106 47.995C45.2355 48.1202 45.1436 48.2747 44.9349 48.4334C44.9057 48.4542 44.8222 48.5169 44.6593 48.5962C44.3629 48.7423 43.9914 48.855 43.052 48.9552C42.6637 48.997 42.4675 49.0137 42.3172 48.9886C42.1961 48.9719 42.1043 48.9427 42.025 48.9135C42.2128 49.285 41.812 49.7401 41.6826 49.8737C41.5908 49.9697 41.2651 50.2787 40.9478 50.2787C40.8769 50.2787 40.8142 50.2662 40.7558 50.2369C40.5262 50.1326 40.4928 49.8904 40.4635 49.6984C40.4385 49.5439 40.4176 49.4395 40.3592 49.4061C40.2715 49.356 40.0669 49.4061 39.9834 49.5063C39.9291 49.5689 39.9208 49.8111 39.9083 50.0908C39.8999 50.2536 39.9041 50.3622 39.9041 50.4373C39.9041 50.5751 39.9041 50.6586 39.8498 50.7797C39.7413 51.0093 39.5534 51.0928 39.4198 51.1554C39.3238 51.1972 39.2612 51.2264 39.2194 51.2848C39.1777 51.3391 39.1526 51.4184 39.1484 51.5228C39.1526 51.7274 39.2069 51.9278 39.3071 52.0989C39.3405 52.1574 39.3948 52.2242 39.449 52.291C39.6912 52.5624 40.0252 52.7669 40.4468 52.8922C41.1232 53.0968 41.7494 52.9799 42.0625 52.8922C42.2295 52.8463 42.3548 52.792 42.4759 52.7419C42.6011 52.6918 42.7264 52.6375 42.8808 52.5916C42.7598 52.5498 42.6554 52.4538 42.6136 52.3202C42.5427 52.0989 42.6637 51.8568 42.885 51.7858C43.3818 51.623 44.3671 51.4226 45.3482 51.8985C46.5548 52.483 46.943 53.6729 47.1267 54.2449C47.3897 55.0506 47.373 55.7854 47.3647 56.324H47.156L47.3647 56.3281C47.3563 56.754 47.3146 57.1798 47.2395 57.6015C47.2019 57.8061 47.0265 57.9522 46.822 57.9522C46.8136 57.9522 46.7635 57.9522 46.7552 57.948C46.5172 57.9063 46.3627 57.685 46.4045 57.4512C46.4713 57.0755 46.5088 56.6914 46.5172 56.3115C46.5255 55.8313 46.5381 55.1759 46.321 54.5079C46.1707 54.0486 45.8617 53.0926 44.9808 52.6667C44.5967 52.483 44.2085 52.4371 43.8661 52.458C44.0206 52.458 44.1834 52.4789 44.3588 52.5248C45.0518 52.7168 45.4359 53.2345 45.6196 53.4808C46.2834 54.3826 46.275 55.418 46.2124 55.9566L46.0287 58.4448C46.0204 58.5534 45.9285 58.6411 45.82 58.6411H41.2109C41.215 58.8081 41.3319 59.2047 41.524 59.4593C41.7536 59.7683 41.9122 60.5281 41.979 60.9247L44.8764 60.0271C45.1436 59.7057 45.5444 59.5762 45.8283 59.714C45.8701 59.7349 46.0663 59.8434 46.1289 60.0689C46.1999 60.3319 46.0579 60.6283 45.7699 60.8496C46.0329 60.908 46.3001 60.9498 46.5631 60.9665C47.0391 60.9999 48.2957 61.0876 49.4062 60.3737C50.4834 59.6806 50.9301 58.5576 51.1096 57.7393L51.1054 57.7059ZM57.2342 49.0471C57.2635 49.0095 57.3094 48.9844 57.3553 48.9761C61.1002 48.2872 61.2088 48.6045 61.2672 48.7757C61.4676 49.3477 61.4092 50.4749 59.9145 51.0886C59.0962 51.4268 58.6328 51.5353 58.3656 51.5353C58.1402 51.5353 58.0525 51.456 58.0108 51.3642C57.9857 51.3099 57.9857 51.2431 58.0108 51.1888C58.0358 51.1345 58.0859 51.0928 58.1444 51.0719C58.7414 50.8924 59.1589 50.4624 59.138 50.0449C59.1338 49.928 59.0879 49.8069 59.0128 49.69L57.3762 49.5898C57.3219 49.5898 57.2718 49.5606 57.2342 49.523C57.205 49.4896 57.134 49.3978 57.1382 49.2642C57.1382 49.2057 57.1591 49.1222 57.2301 49.0429L57.2342 49.0471ZM57.1758 51.7566C57.3177 51.6397 57.5265 51.6564 57.6476 51.7942C58.5159 52.817 59.138 54.0445 59.4511 55.3429C59.8895 57.1631 59.6348 58.7371 59.3467 59.7391C59.305 59.881 59.1756 59.9812 59.0253 59.9812C59.0002 59.9812 58.946 59.9729 58.9251 59.9645C58.8499 59.9436 58.779 59.8894 58.7372 59.81C58.6955 59.7307 58.6829 59.643 58.708 59.5554C58.9752 58.6327 59.209 57.184 58.804 55.5015C58.5159 54.3075 57.944 53.1761 57.1424 52.2325C57.0255 52.0948 57.0422 51.8818 57.18 51.7649L57.1758 51.7566ZM56.5871 52.7252C56.7332 52.6166 56.942 52.6459 57.0547 52.7962C57.681 53.6395 58.136 54.5747 58.4032 55.5808C58.8499 57.2425 58.6746 58.712 58.4533 59.6472C58.4157 59.7975 58.2821 59.9019 58.1277 59.9019C58.111 59.9019 58.0609 59.8977 58.0442 59.8894C57.9648 59.8685 57.8897 59.8184 57.8438 59.7391C57.7978 59.6639 57.7853 59.5721 57.8062 59.4886C58.0108 58.6285 58.1694 57.2759 57.7603 55.7478C57.514 54.8252 57.0965 53.9651 56.5203 53.1886C56.466 53.1176 56.4452 53.03 56.4577 52.9423C56.4702 52.8546 56.5161 52.7753 56.5913 52.721L56.5871 52.7252ZM55.8064 53.4099C55.9525 53.3055 56.1613 53.3389 56.2698 53.485C56.7625 54.1781 57.134 54.9295 57.3762 55.7311C57.8605 57.3427 57.7102 58.7872 57.4973 59.7182C57.4639 59.8727 57.3303 59.977 57.1716 59.977C57.1591 59.977 57.1173 59.9729 57.1048 59.9687C56.9211 59.9269 56.8084 59.7474 56.8501 59.5679C57.0464 58.7162 57.1841 57.3928 56.7416 55.919C56.5203 55.1884 56.1821 54.4995 55.7354 53.8733C55.6853 53.8023 55.6645 53.7146 55.677 53.6228C55.6895 53.5309 55.7396 53.46 55.8148 53.4057L55.8064 53.4099ZM49.4981 51.0469C49.4396 51.0886 49.3687 51.1137 49.2977 51.1137C49.1933 51.1137 49.0931 51.0636 49.0305 50.9801C49.018 50.9634 48.6422 50.4749 48.1746 50.2578C47.7029 50.0365 47.2353 50.0699 47.2269 50.0699C47.1434 50.0783 47.0641 50.0532 46.9973 50.0031C46.9723 50.0198 46.9472 50.0324 46.9222 50.0407C46.5381 50.1743 46.2041 50.1618 45.9577 50.0115C45.7657 49.8904 45.678 49.7318 45.6029 49.5898C45.5444 49.4771 45.4902 49.3769 45.3816 49.2683C45.2981 49.1848 45.1937 49.1139 45.081 49.0638C45.0017 49.0262 44.9391 48.9594 44.9098 48.8759C44.8806 48.7924 44.8806 48.7006 44.9182 48.6212C44.9558 48.5419 45.0226 48.4793 45.1061 48.4501C45.1896 48.4208 45.2814 48.4208 45.3607 48.4584C45.5444 48.5419 45.7114 48.6588 45.8492 48.7966C45.9202 48.8675 45.987 48.9427 46.0454 49.0304C46.0538 49.0429 46.0621 49.0554 46.0705 49.0638V48.6212C46.0496 48.5837 46.0287 48.5503 46.012 48.5085C45.987 48.4584 45.9703 48.4125 45.9536 48.3624C45.9369 48.3081 45.9202 48.2538 45.9118 48.2079C45.9118 48.2079 45.9035 48.162 45.9035 48.1578C45.8951 48.1035 45.9035 48.0409 45.9369 47.995C45.9953 47.9115 46.0872 47.8614 46.1874 47.8572H46.3627C46.8428 47.8739 47.2854 47.7946 47.6736 47.6318C47.8365 47.565 47.945 47.4982 48.0577 47.4314L48.1705 47.3646C48.1705 47.3646 48.1997 47.3479 48.208 47.3437C48.2581 47.3145 48.3333 47.2727 48.4251 47.231C48.5128 47.1892 48.613 47.1517 48.7383 47.1141C49.0013 47.0306 49.5482 46.8594 50.2204 46.9847C51.047 47.1391 51.5939 47.6735 51.8444 47.9741C51.8987 48.0409 51.9279 48.1286 51.9195 48.2163C51.9112 48.3039 51.8694 48.3833 51.8027 48.4417C51.6607 48.5586 51.452 48.5377 51.3351 48.4C51.1388 48.1662 50.7213 47.7528 50.0993 47.6401C49.782 47.5817 49.4939 47.6109 49.2685 47.661C50.0074 47.9908 50.0951 48.1536 50.116 48.3165C50.1369 48.4668 50.116 48.6045 49.4689 49.498C49.3227 49.6984 49.1766 49.8988 49.0597 50.0491C49.1683 50.1409 49.2726 50.2411 49.377 50.3538C49.4981 50.4832 49.5691 50.5751 49.5732 50.5876C49.6818 50.7337 49.6526 50.9425 49.5064 51.0552L49.4981 51.0469Z" fill="#F6921E"/>
<path d="M27.4044 61.263C27.3585 61.0751 27.3376 61.0041 27.2458 60.9415C27.154 60.8789 27.0162 60.8413 26.8701 60.8413C26.6864 60.8413 26.5235 60.8998 26.4025 61.0041C26.1728 61.2045 26.1812 61.5302 26.1812 61.5677C26.1979 62.0312 26.7156 62.4612 27.2166 62.6449C27.4545 62.7326 27.7217 62.766 28.0056 62.7534C28.0432 62.7534 28.0808 62.7493 28.1184 62.7451C28.1518 62.7451 28.1893 62.7367 28.2227 62.7326C28.3772 62.7075 28.5275 62.6699 28.6611 62.6198C28.4983 62.5656 28.3188 62.4946 28.1392 62.3735C28.0933 62.3443 28.0474 62.3109 28.0015 62.2733C27.9555 62.2357 27.9096 62.194 27.8637 62.1481C27.8219 62.1063 27.7802 62.0562 27.7384 62.0061C27.5172 61.7222 27.4504 61.4592 27.4003 61.263H27.4044Z" fill="#F6921E"/>
<path d="M37.8209 91.0301L38.3344 89.8361L36.3262 88.7715C36.4348 89.0763 36.4515 89.3977 36.3722 89.7067C36.2219 90.2745 35.7292 90.7546 35.2074 90.8506C35.174 90.8589 35.1406 90.8589 35.1113 90.8631C35.1322 90.8882 35.1573 90.9132 35.1823 90.9424L37.8209 91.0385V91.0301Z" fill="#F6921E"/>
<path d="M83.8953 89.1891C84.0581 89.0263 84.221 88.8593 84.3796 88.6923C84.2669 88.542 84.1375 88.4084 83.9955 88.2957C84.0206 88.734 83.8369 89.164 83.5989 89.4312C83.2816 89.7861 82.8015 89.974 82.2713 89.9448C82.242 90.1159 82.2253 90.2579 82.2253 90.3748C82.2713 90.3622 82.313 90.3497 82.3589 90.333C82.7305 90.2036 83.1021 89.9781 83.8995 89.1933L83.8953 89.1891Z" fill="#F6921E"/>
<path d="M82.1669 92.6293C82.1335 92.3747 81.9582 92.0657 81.6868 91.9655C81.62 91.9405 81.549 91.9321 81.4781 91.9321C81.382 91.9321 81.2902 91.9488 81.2067 91.9655C81.0898 91.9948 80.8852 92.0657 80.6472 92.2202C80.0753 92.5876 79.925 93.2097 79.8707 93.4435C79.7455 93.9653 79.8039 94.4747 79.8874 94.7293C79.9626 94.5707 80.0794 94.3494 80.3091 94.1448C80.6264 93.8609 80.9395 93.8025 81.215 93.7524C81.286 93.7399 81.3528 93.7274 81.4238 93.7107C81.9206 93.4936 82.2254 93.0552 82.1753 92.6419L82.1669 92.6293Z" fill="#F6921E"/>
<path d="M77.4075 79.4616C78.3052 79.4616 79.1276 79.3321 79.8582 79.0733C80.0461 78.9647 80.1296 78.5974 80.163 78.3135L80.3717 78.326L80.163 78.3051C80.188 78.0254 80.163 77.729 80.1421 77.4117C80.092 76.7854 79.996 75.5413 79.2111 74.5477C78.2676 73.3495 76.8356 73.0865 75.892 72.9111C74.9527 72.7358 73.9591 72.7107 72.9404 72.8318C72.3601 73.3077 71.9676 73.8922 71.8006 74.5226C71.7881 74.5686 71.763 74.6061 71.7255 74.6354C71.2412 75.0069 70.7819 75.4161 70.3644 75.8419C69.876 76.3429 69.3165 76.9984 68.7487 77.7415C68.1768 78.493 67.8386 79.0274 67.5672 79.4574C67.1623 80.1003 66.9159 80.4886 66.3022 80.9103C66.2521 80.9437 65.0957 81.7327 63.981 81.7327C63.647 81.7327 63.3422 81.6618 63.0792 81.524C62.6158 81.2777 62.3486 80.856 62.1565 80.547C62.1106 80.4719 62.0522 80.3801 62.0062 80.3216C61.9854 80.4176 61.9436 80.6556 61.9728 81.1775C61.9728 81.2192 62.0396 82.1586 62.3653 82.6053C62.7619 83.1564 63.6887 83.3234 65.0164 83.0979C65.104 83.0854 65.1875 83.123 65.2334 83.1981C65.3796 83.4445 65.438 83.6908 65.4088 83.9287C65.3545 84.3755 64.9997 84.6552 64.7408 84.8598C64.649 84.9307 64.5112 85.0434 64.4945 85.0894C64.5154 85.0894 64.7074 85.1937 65.1124 85.1937C65.3253 85.1937 65.5466 85.1603 65.7344 85.1061C66.2897 84.9391 66.7782 84.4965 66.9744 83.9872C67.0537 83.7826 67.0621 83.6407 67.0662 83.4904C67.0746 83.2942 67.0871 83.0896 67.2416 82.8099C67.3668 82.5844 67.6006 82.2796 68.2895 81.9248C68.4314 81.8496 68.5776 81.787 68.7153 81.7286C68.7821 81.7035 68.8573 81.7077 68.9157 81.7494C68.9742 81.7912 69.0076 81.858 69.0076 81.929C68.9992 82.3882 68.7947 82.7389 68.6611 82.9727C68.6318 83.0186 68.6068 83.0645 68.5901 83.1021C68.231 83.7868 68.4273 84.7846 68.8281 85.2564C69.2163 85.7114 69.8801 85.7657 70.5231 85.8158C70.6108 85.8242 70.6859 85.8826 70.711 85.9703C70.7527 86.1164 70.7527 86.2667 70.711 86.4003C70.569 86.8637 70.0137 86.9723 69.83 87.0098C69.4042 87.0933 69.1287 86.9806 68.8281 86.8595C68.6444 86.7844 68.4356 86.7009 68.1517 86.6424C67.8929 86.5882 67.3376 86.5339 66.8742 86.6216C66.2313 86.7886 65.8012 87.1643 65.6175 87.323C65.3128 87.586 65.1541 87.8156 64.9537 88.1037L64.8243 88.2874C64.7158 88.4418 64.482 88.755 64.1688 89.1224C63.6512 89.7319 63.1502 90.2078 62.6784 90.546L62.6116 90.5919C61.9186 91.0762 61.0919 91.6023 60.0649 91.5856C60.0565 91.5856 60.0357 91.5856 60.0148 91.5856C59.9271 91.5856 59.8478 91.5772 59.7726 91.5689C59.5764 91.5396 59.4261 91.477 59.2925 91.4269C59.1047 91.3518 58.9544 91.2891 58.708 91.3142C58.3072 91.3559 57.9732 91.5897 57.873 91.7317C58.1068 91.7108 58.3365 91.74 58.5577 91.8194C59.1297 92.0281 59.3886 92.4915 59.4762 92.6836C59.5388 92.8255 59.8269 93.5561 59.376 94.2283C59.2967 94.3494 59.1965 94.4579 59.0838 94.5498C59.209 94.5999 59.3927 94.6291 59.5347 94.5832C59.7685 94.508 59.9021 94.2659 59.9229 94.2158C59.973 94.1114 59.9856 94.0195 59.9981 93.9235C60.019 93.7774 60.0398 93.6104 60.1985 93.4476C60.3029 93.339 60.4114 93.3015 60.5617 93.243L60.6076 93.2263C60.8247 93.1428 60.9667 93.1345 61.0836 93.1261C61.1629 93.1219 61.2255 93.1178 61.309 93.0927C61.476 93.0426 61.572 92.9466 61.6681 92.8506C61.785 92.7337 61.9144 92.6042 62.1398 92.6042C62.1482 92.6042 62.1899 92.6042 62.1941 92.6042C62.3569 92.6209 62.574 92.7086 62.6533 92.909C62.7452 93.1553 62.5615 93.3474 62.3987 93.5186C62.382 93.5353 62.3695 93.5478 62.3528 93.5645C62.5197 93.4643 62.7201 93.3891 62.9581 93.3724C62.9873 93.3724 63.0207 93.3724 63.05 93.3724C63.6553 93.3724 64.1521 93.7858 64.3818 94.2158C64.4861 94.412 64.5529 94.6374 64.5696 94.8879C64.6824 94.7209 64.7533 94.5498 64.7575 94.3995C64.7575 94.316 64.745 94.2742 64.7158 94.1865C64.6782 94.0822 64.6281 93.9444 64.5989 93.6939C64.5404 93.1679 64.6573 92.7712 64.7826 92.3538C64.9454 91.8068 65.1082 91.2432 65.4923 91.239C65.7887 91.239 65.9515 91.5814 66.0142 91.7108C66.1603 92.0114 66.1478 92.2536 66.1352 92.4665C66.1269 92.6001 66.1185 92.7253 66.1519 92.8673C66.2229 93.1887 66.4525 93.5019 66.6321 93.6021C66.5569 93.1553 66.5319 92.8589 66.6446 92.5792C66.7991 92.1868 67.1831 91.8569 67.6215 91.7359C68.1267 91.5981 68.6819 91.7442 69.112 92.1158C69.1454 92.0782 69.1662 92.0448 69.1662 92.0072C69.1662 91.9613 69.1078 91.907 68.9617 91.7985C68.8155 91.6858 68.6193 91.5355 68.4398 91.2891C68.373 91.1973 68.039 90.7047 68.0474 90.0492C68.0474 89.8112 68.0557 89.4522 68.3187 89.1349C68.4356 88.9929 68.5817 88.8844 68.7613 88.8092C68.8322 88.78 68.9116 88.7884 68.9742 88.8343C69.1621 88.9804 69.2414 89.2476 69.2748 89.448C69.3374 89.8029 69.2456 90.0742 69.1871 90.2579C69.1829 90.2746 69.1746 90.2955 69.1704 90.3164C69.2915 90.283 69.5002 90.187 69.6672 90.0158C69.8467 89.8279 69.9094 89.6025 69.9595 89.423C70.0137 89.2309 70.0722 89.0138 70.3018 88.9762C70.3143 88.9762 70.3394 88.9762 70.3519 88.9762C70.6316 88.9762 70.8237 89.3019 71.0157 89.6651C71.1827 89.9824 71.2328 90.1911 71.2787 90.3748C71.308 90.4917 71.333 90.5961 71.3873 90.7172C71.571 91.118 72.0052 91.573 72.5271 91.619C72.9821 91.6607 73.4247 91.381 73.6167 91.1806C73.5207 91.1889 73.4121 91.2015 73.2994 91.2015C72.9905 91.2015 72.74 91.1263 72.5271 90.9718C72.072 90.6379 71.9175 90.0074 71.9634 89.5315C72.0094 89.0764 72.2223 88.8176 72.4143 88.588C72.5938 88.3709 72.7525 88.183 72.7608 87.8365C72.7775 87.3146 72.5688 86.9472 72.5646 86.943C72.5104 86.847 72.4519 86.7802 72.406 86.7259C72.3183 86.6216 72.2181 86.5005 72.2515 86.321C72.2599 86.2876 72.2682 86.2584 72.2807 86.2291C72.3058 86.1665 72.3475 86.1122 72.3976 86.0621C72.4853 85.9578 72.6064 85.8743 72.74 85.8242C72.8903 85.7699 73.0781 85.7657 73.2827 85.8158C73.6626 85.9077 74.3306 86.2458 74.4266 86.918C74.4266 86.9347 74.4308 86.9514 74.4308 86.9723C74.602 86.7385 74.8107 86.3419 74.8734 85.8826C74.9109 85.5945 74.9569 84.8639 74.506 84.3546C74.339 84.1625 74.1469 84.0498 73.959 83.9413C73.7002 83.791 73.4288 83.6323 73.3787 83.29C73.3328 82.9894 73.4915 82.7431 73.5666 82.6262C74.243 81.5866 74.8233 80.6932 75.725 80.0962C76.0924 79.854 76.5266 79.6494 77.0193 79.4908C77.0401 79.4824 77.0652 79.4783 77.0902 79.4824L77.1529 79.6954V79.4866C77.2197 79.4866 77.3032 79.4866 77.4034 79.4866L77.4075 79.4616Z" fill="#F6921E"/>
<path d="M44.747 95.9775C44.7177 95.9775 44.6843 95.9775 44.6551 95.9817C44.1291 96.0443 43.9287 96.6539 43.9203 96.6789C43.8869 96.7958 43.8744 96.9252 43.8869 97.0588C43.8994 97.1841 43.937 97.3093 43.9788 97.4388C44.0623 97.706 44.1541 98.0107 44.0497 98.424C43.9746 98.7205 43.8368 98.925 43.7283 99.067C44.008 99.0211 44.4881 98.8207 44.868 98.4867C45.0517 98.328 45.5318 97.9022 45.5903 97.2258C45.6153 96.9086 45.5778 96.6121 45.4817 96.395C45.3231 96.1445 45.0392 95.9775 44.7428 95.9775H44.747Z" fill="#F6921E"/>
<path d="M26.5776 63.079C26.4983 63.0331 26.419 62.983 26.3313 62.9246C26.3146 62.9371 26.2937 62.9496 26.2687 62.958C26.1309 63.0039 26.014 63.0749 25.9222 63.1709C25.7844 63.317 25.7051 63.5216 25.6926 63.7762C25.6884 63.8514 25.6926 63.9265 25.7009 63.9975C25.7385 63.8472 25.8053 63.6886 25.9222 63.5383C26.085 63.3254 26.3188 63.1709 26.5735 63.0874L26.5776 63.079Z" fill="#F6921E"/>
<path d="M26.5735 60.2026C26.515 60.1525 26.4566 60.1024 26.3981 60.044C26.3689 60.0148 26.3397 59.9814 26.3104 59.9521C25.9305 60.1734 25.655 60.5074 25.5423 60.8873C25.513 60.9959 25.4379 61.3048 25.5172 61.6555C25.5172 61.6346 25.5172 61.6138 25.5172 61.5929C25.513 61.4802 25.5172 60.8957 25.9639 60.5032C26.1351 60.3529 26.348 60.2527 26.5735 60.2068V60.2026Z" fill="#F6921E"/>
<path d="M33.2911 89.6024C33.0448 90.0533 32.9655 90.5376 32.9696 90.809C33.2702 90.4457 33.7002 90.3038 33.8422 90.262C33.9967 90.2203 34.1804 90.2119 34.5561 90.1952C34.7899 90.1827 34.911 90.1869 34.9903 90.1911C35.0362 90.1911 35.0571 90.1911 35.0905 90.1911C35.3577 90.1451 35.6416 89.8487 35.7251 89.5314C35.8002 89.2559 35.7167 88.9344 35.508 88.6714C35.366 88.5754 35.1824 88.5253 34.9569 88.5253C34.8275 88.5253 34.6187 88.542 34.3599 88.6213C33.7128 88.8259 33.4038 89.3895 33.2911 89.6024Z" fill="#F6921E"/>
<path d="M26.7406 57.3469C26.6905 57.1674 26.6654 56.9837 26.6738 56.8042C26.5736 56.8752 26.511 56.9211 26.4692 56.9503C26.4066 56.9921 26.3982 57.0004 26.3774 57.0171C26.106 57.2634 25.8931 57.7352 25.8931 58.2237C26.0768 57.7561 26.465 57.4889 26.7364 57.3469H26.7406Z" fill="#F6921E"/>
<path d="M35.153 92.9341C35.0487 92.7379 34.8441 92.5876 34.5811 92.5166C34.5978 92.5208 34.5811 92.5166 34.5602 92.5208C34.1427 92.5208 33.7503 92.8882 33.6041 93.0426C33.1407 93.5395 33.1491 94.1824 33.1532 94.4245C33.1616 94.9589 33.3453 95.439 33.4872 95.6645C33.5206 95.4891 33.5791 95.2512 33.7503 94.9923C33.9882 94.6375 34.2763 94.5039 34.5268 94.387C34.6562 94.3285 34.7773 94.2701 34.8858 94.1907C34.9819 94.0905 35.0737 93.9528 35.1363 93.8025C35.2115 93.6104 35.3159 93.2472 35.153 92.9383V92.9341Z" fill="#F6921E"/>
<path d="M38.6016 99.2881C38.5515 99.1211 38.4847 98.8789 38.5181 98.57C38.5598 98.1483 38.7519 97.8936 38.9188 97.6682C38.9982 97.5638 39.0691 97.4636 39.1276 97.3551C39.3405 96.8666 39.2153 96.399 38.9815 96.1903C38.7811 96.0149 38.4346 95.9565 38.1381 96.0567C37.9753 96.111 37.8292 96.2112 37.7123 96.3573C37.6497 96.4533 37.5453 96.6453 37.4701 96.9209C37.2948 97.5764 37.6037 98.14 37.7206 98.3487C37.9795 98.8163 38.3678 99.1545 38.5974 99.2839L38.6016 99.2881Z" fill="#F6921E"/>
<path d="M27.0244 57.9482C26.8323 58.0484 26.5609 58.2405 26.4816 58.5703C26.3814 58.9753 26.6403 59.3427 26.8741 59.5806C27.35 60.0649 28.0806 60.0733 28.3729 60.0524C28.4188 60.0524 28.4647 60.0441 28.5065 60.0399C28.3353 59.923 28.1474 59.7643 27.993 59.5305C27.8176 59.2675 27.7049 58.9627 27.6631 58.6121C27.421 58.4409 27.1914 58.1987 27.0244 57.9482Z" fill="#F6921E"/>
<path d="M28.9867 65.083C28.7362 65.0538 28.4356 64.987 28.1433 64.795C28.0974 64.7657 28.0515 64.7323 28.0056 64.6948L27.968 64.6614C27.9346 64.6321 27.9012 64.6029 27.872 64.5737C27.6632 64.3691 27.563 64.152 27.4921 63.9975C27.4086 63.8222 27.3752 63.7554 27.2708 63.7095C27.2082 63.6803 27.1247 63.6677 27.0412 63.6677C26.8575 63.6677 26.6111 63.7387 26.4608 63.9349C26.273 64.1771 26.3439 64.4944 26.3523 64.5319C26.4608 64.987 27.0495 65.3043 27.5756 65.3878C27.7175 65.4087 27.8636 65.4128 28.0056 65.4045C28.039 65.4045 28.0765 65.3961 28.1099 65.392C28.1517 65.3878 28.1851 65.3794 28.2227 65.3753C28.494 65.3252 28.7696 65.2208 28.9867 65.0872V65.083Z" fill="#F6921E"/>
<path d="M62.6449 89.0136C62.5948 88.9719 62.5321 88.9092 62.4612 88.8383C62.2023 88.5878 61.8015 88.2037 61.4049 87.9448C61.4216 87.9866 61.4341 88.0283 61.4425 88.0701C61.5761 88.6086 61.3005 89.1681 60.9624 89.4812C60.6952 89.7317 60.3319 89.882 59.9312 89.907C60.0689 90.0365 60.3361 90.2035 60.6284 90.3872C60.7745 90.479 60.8997 90.5542 61.025 90.6251C61.4926 90.4707 61.9184 90.2619 62.29 89.9947C62.5363 89.8194 62.7952 89.5939 63.0665 89.3267C62.912 89.2349 62.7701 89.1263 62.6407 89.0136H62.6449Z" fill="#F6921E"/>
<path d="M48.567 37.8918C48.8175 38.2383 49.0555 38.564 49.3102 38.852C49.5523 39.1276 49.8571 39.2612 50.2412 39.2612C51.1513 39.2612 52.4038 38.4972 53.6145 37.7582C54.0362 37.4994 54.462 37.2405 54.8837 37.0067C57.0296 35.8085 59.4135 35.3785 60.929 35.3785C61.8099 35.3785 62.8954 36.393 63.8515 37.2906C64.3441 37.754 64.8534 38.23 65.0831 38.2884C65.797 38.2884 69.45 36.7187 71.6335 35.7835C72.6689 35.3409 73.483 34.9902 73.8379 34.8608C74.0759 34.7773 74.4266 34.7356 74.9234 34.7356C76.3596 34.7356 78.5639 35.0863 79.5701 35.2616C79.1192 34.7272 78.1464 33.8004 76.5098 33.266C75.8419 33.0489 75.0194 32.9362 74.0633 32.9362C71.6419 32.9362 69.162 33.6292 68.4564 33.8421C68.0765 33.959 67.7174 34.0175 67.3876 34.0175C66.6612 34.0175 66.2353 33.7378 66.0099 33.4998C65.7636 33.2409 65.6258 32.9153 65.6383 32.6022C65.6592 32.0803 65.6843 31.429 64.5236 30.9823C64.461 30.9572 64.2815 30.9197 63.768 30.9197C60.6535 30.9197 50.5627 32.3893 50.4625 32.406C50.4374 32.406 50.4165 32.406 50.3915 32.406C49.9072 32.3099 49.4939 32.1095 49.1641 31.8173C48.8175 31.5083 48.6672 31.191 48.5253 30.8821C48.4835 30.7903 48.4376 30.6942 48.3875 30.6024C47.9742 29.83 47.302 29.4292 46.705 29.0744C46.1999 28.7738 45.6321 28.636 44.9098 28.636C44.3003 28.636 43.578 28.732 42.5677 28.9449C39.3404 29.6296 36.9858 30.7193 36.2134 31.0783C34.3639 31.9342 32.5144 32.9111 30.7234 33.9715V42.7556C34.5476 40.7642 42.8599 36.4723 44.6677 35.8628C44.9891 35.7542 45.3064 35.7 45.5987 35.7C46.9639 35.7 47.778 36.8147 48.5629 37.8918H48.567Z" fill="#F6921E"/>
<path d="M39.9083 55.727C39.5785 55.9441 39.3781 56.2823 39.2612 56.5912C39.3447 56.5203 39.4408 56.4493 39.5535 56.3908C39.6704 56.3282 40.0085 56.1445 40.4177 56.1863C40.8561 56.2322 41.1065 56.4994 41.3069 56.7165C41.4948 56.9169 41.6159 57.0421 41.8121 57.0505C41.9374 57.0505 42 57.0129 42.1211 56.9377C42.2797 56.8376 42.4717 56.7123 42.8308 56.6914C42.8558 56.6914 42.8892 56.6914 42.931 56.6914C43.1606 56.6914 43.503 56.7332 43.8077 56.9252C44.2002 57.1757 44.3045 57.5348 44.3922 57.8479C44.4006 57.8813 44.4131 57.9147 44.4214 57.9481H45.3817L45.5361 55.8648C45.5528 55.7228 45.5612 55.5851 45.5612 55.4515C45.3817 55.3763 45.198 55.3179 45.0143 55.2678C44.722 55.1926 44.4256 55.1509 44.1626 55.1509C43.7994 55.1509 43.6032 55.226 43.5656 55.2636C43.5364 55.2928 43.5155 55.322 43.4904 55.3513C43.4362 55.4222 43.3652 55.5141 43.2274 55.6226C42.9393 55.8564 42.6346 55.9817 42.3465 55.9942C42.0334 55.9942 41.8664 55.8773 41.6994 55.7688C41.5992 55.702 41.4948 55.631 41.3529 55.5725C41.1316 55.4849 40.8769 55.4556 40.6097 55.489C40.5889 55.5976 40.5555 55.6894 40.5054 55.7604C40.4386 55.8564 40.33 55.9149 40.2173 55.9149C40.0586 55.9149 39.9668 55.8314 39.9083 55.7312V55.727Z" fill="#F6921E"/>
<path d="M90.5208 69.7005L90.5709 69.7756C91.8901 69.45 92.9882 68.7862 93.8357 67.7925C95.2301 66.1601 95.7019 63.8598 95.0714 61.7848C95.0631 61.7598 95.0589 61.7347 95.0631 61.7055C95.1174 61.025 95.0464 60.3612 94.8543 59.7266C94.5245 58.6369 93.9192 57.9188 93.6269 57.5723C93.2595 57.1381 93.0174 56.9544 92.7794 56.7749C92.5122 56.5745 92.2575 56.3825 91.886 55.894C91.4685 55.3429 90.7713 54.4202 90.9508 53.364C91.0176 52.9715 91.1846 52.6876 91.314 52.4914C90.8882 52.6334 90.145 53.0926 89.8069 53.723C89.5522 54.199 89.5104 54.8127 89.6816 55.4932C89.6983 55.5642 89.6816 55.6393 89.6315 55.6894C89.5814 55.7395 89.5063 55.7646 89.4353 55.752C88.6421 55.5892 87.782 55.5349 86.9679 55.4932C85.0892 55.393 83.2272 55.3471 81.2733 55.3471C80.4091 55.3471 79.6576 55.3554 79.0188 55.3638L77.5326 55.3763C72.3682 55.3763 69.095 54.8252 67.805 53.7397C66.6235 52.7461 65.9388 51.6397 65.776 50.4541C65.7259 50.1034 65.5756 49.0304 66.1726 47.9658L66.231 47.8614C66.7237 47.2185 67.2372 46.8887 67.7716 46.8678H67.83C68.2642 46.8678 68.6149 47.0682 68.8696 47.2435C68.9197 47.2769 68.9531 47.3312 68.9614 47.3938C69.0115 47.8489 69.2871 48.2998 69.6211 48.471C69.7338 48.5294 70.2557 48.5294 70.9111 48.5336C71.1241 48.5336 71.2743 48.5336 71.3912 48.5336H71.6C71.8004 48.5336 71.9215 48.5419 72.0926 48.5879C72.9067 48.8175 73.2073 49.2183 73.3201 49.5189C73.5998 50.2578 73.0529 51.1721 72.3891 51.5938C72.03 51.8193 71.6668 51.8902 71.3704 51.9111C71.7586 52.0405 72.364 52.1198 72.8817 51.9946C73.6624 51.8109 74.5308 51.2181 74.6769 50.4499C74.7896 49.8445 74.4682 49.093 73.8085 48.4376C73.7417 48.3708 73.7292 48.2664 73.7751 48.1871C73.8211 48.1036 73.9171 48.0618 74.0089 48.0869C74.2594 48.1495 74.535 48.2079 74.823 48.258C74.869 48.2664 74.9107 48.2873 74.9399 48.3207C75.1946 48.5962 75.9002 49.2642 76.9105 49.4479C77.0984 49.4813 77.2946 49.498 77.495 49.498C78.3008 49.498 78.7976 49.235 78.8268 49.1264C78.8101 49.0805 78.6389 48.9594 78.5262 48.8801C78.1964 48.6463 77.7413 48.3248 77.6161 47.7278C77.5409 47.373 77.5785 46.8052 77.8916 46.7258C77.9083 46.7217 77.9417 46.7175 77.9584 46.7175C78.1421 46.7175 78.2465 46.872 78.3968 47.0849C78.4677 47.1851 78.5554 47.3103 78.664 47.4439C78.8936 47.7236 79.1733 47.9616 79.4864 48.1578C79.499 48.1662 79.9749 48.4835 80.5803 48.592C81.8077 48.8133 83.6864 48.0827 84.0371 46.7634C84.2792 45.8408 83.7532 44.8889 83.4985 44.6885C83.4777 44.7511 83.4568 44.8429 83.4443 44.9139C83.3649 45.2646 83.248 45.7948 82.7805 46.0704C82.5884 46.1831 82.363 46.2374 82.1041 46.2374C81.7409 46.2374 81.4152 46.1246 81.3109 46.0871C81.0145 45.9827 80.86 45.8575 80.6679 45.703C80.5719 45.6278 80.4634 45.5402 80.3172 45.4358C79.9165 45.1602 79.4155 44.8179 78.8644 44.7636C78.1588 44.6968 77.4157 45.106 76.7352 45.8992C76.4638 46.2165 76.1882 46.5421 76.1214 47.0056C76.1089 47.0974 76.1047 47.1726 76.1047 47.2394C76.1047 47.3145 76.1006 47.3813 76.088 47.4356C76.0755 47.5066 76.0254 47.565 75.9586 47.59C75.8918 47.6151 75.8167 47.6067 75.7582 47.565C75.6455 47.4857 75.5369 47.398 75.4409 47.302C74.8648 46.7467 74.6894 46.2123 74.6477 45.8575C74.5642 45.2103 74.8356 44.6509 75.0735 44.2626C74.7813 44.4964 74.4348 44.8722 74.2511 45.3648C74.105 45.7573 74.0757 46.1873 74.1592 46.6465C74.1759 46.7342 74.1342 46.8219 74.059 46.8678C73.9839 46.9137 73.8879 46.9054 73.8169 46.8469C73.4203 46.5171 72.9902 46.229 72.5435 45.9994C72.4016 45.9284 72.2596 45.8533 72.1135 45.7865C72.0384 45.7531 71.9924 45.6779 71.9924 45.5944C71.9924 45.5109 72.0425 45.44 72.1177 45.4024C72.5895 45.1936 72.9401 44.8889 73.1531 44.5048C73.4077 44.0539 73.4787 43.6406 73.366 43.2815C73.2324 42.8599 72.8441 42.5509 72.4934 42.363C72.5686 42.4424 72.6312 42.5008 72.6813 42.5509C72.8274 42.6929 72.8984 42.768 72.9652 42.9016C73.1614 43.3107 73.0278 43.8368 72.8065 44.175C72.4934 44.6592 71.9924 44.7803 71.2994 44.9515C70.7775 45.0767 70.2515 45.131 69.6795 45.1143C69.6586 45.1185 69.6336 45.1227 69.6127 45.1143C68.2934 44.9724 67.1286 45.2479 66.2394 45.9201C65.7676 46.2791 65.3626 46.7551 65.0412 47.327C64.5068 48.2873 64.3189 49.3978 64.4901 50.6252C64.6988 52.1365 65.5338 53.5184 66.97 54.725C67.6004 55.2552 69.2787 56.6622 77.5493 56.6622L79.0105 56.6496C80.2504 56.6329 81.7952 56.6163 83.7073 56.658C83.7741 56.658 83.8367 56.6914 83.8743 56.7457C84.0079 56.9335 84.0538 57.1172 84.0162 57.2842C83.9327 57.6308 83.5653 57.7143 83.056 57.8312C82.6844 57.9147 82.2252 58.019 81.6824 58.2486C81.1355 58.4783 79.6827 59.0878 79.4948 60.1232C79.428 60.4989 79.5365 60.8747 79.6576 61.1168C79.6701 60.8288 79.7161 60.4363 79.9582 60.0731C80.2254 59.6723 80.551 59.5554 81.5154 59.2047L82.054 59.0085C82.7011 58.7705 83.1186 58.616 83.4192 58.4824C83.4902 58.4532 83.5779 58.4616 83.6363 58.5117C83.6948 58.5618 83.724 58.6411 83.7073 58.7204C83.6572 58.9375 83.5737 59.1337 83.4484 59.3049C83.2606 59.5637 83.0476 59.6723 82.7805 59.8101C82.626 59.8894 82.4465 59.9812 82.2252 60.1274C81.9956 60.2777 81.4737 60.6117 81.3652 60.7787C81.4445 60.8246 81.6574 60.8955 82.0206 60.8955C82.3129 60.8955 83.0643 60.8455 83.6781 60.3612C84.0789 60.0272 84.2584 59.6681 84.3628 59.451C84.5631 59.0419 84.8262 58.2194 84.9681 57.1381C84.9806 57.0337 85.0683 56.9544 85.1727 56.9544H85.5067C85.9659 56.9544 86.4293 56.9628 86.8844 56.9836C87.7152 57.0212 88.5544 57.1005 89.381 57.2091C90.0156 57.3176 91.5937 57.7226 92.7794 59.1546C93.2512 59.7266 94.3116 61.2755 94.0027 63.3421C93.7355 65.1623 92.8504 66.11 92.1532 66.5902C91.1428 67.2874 89.786 67.5128 88.0659 67.2748C88.3289 67.4335 88.5544 67.588 88.8383 67.8218C89.477 68.3478 90.0532 68.9949 90.5124 69.6921L90.5208 69.7005Z" fill="#F6921E"/>
<path d="M30.0721 54.6167V43.5698H28.4731V54.8463C28.828 54.7044 29.304 54.5875 29.8509 54.6042C29.926 54.6042 29.997 54.6125 30.0721 54.6209V54.6167Z" fill="#F6921E"/>
<path d="M68.0138 92.3369C67.9429 92.3369 67.8719 92.3453 67.8051 92.3662C67.5671 92.433 67.35 92.6125 67.2707 92.8129C67.2039 92.9799 67.2624 93.293 67.3667 93.8566C67.4043 94.0487 67.4294 94.153 67.4461 94.2198C67.4669 94.3075 67.4836 94.3743 67.4878 94.487C67.492 94.8043 67.3793 95.1216 67.1538 95.4389C67.4377 95.3721 67.8761 95.1801 68.2268 94.8711C68.4105 94.7125 68.8906 94.2866 68.949 93.6103C68.9782 93.2846 68.9323 92.9715 68.828 92.7503C68.6067 92.4831 68.3061 92.3328 68.018 92.3328L68.0138 92.3369Z" fill="#F6921E"/>
<path d="M94.6374 79.712C94.6249 79.6828 94.6124 79.6577 94.5999 79.6243C94.4245 79.2861 94.0655 79.1609 93.648 79.0148C93.4977 78.9647 93.3474 78.9104 93.1971 78.8436C93.1595 78.8269 92.2327 78.4261 91.6064 77.5911C91.4728 77.4116 91.3685 77.2237 91.2891 77.015C91.285 77.0066 91.2683 76.9774 91.2516 76.944C91.1096 76.6351 91.1054 76.418 91.0929 75.608C91.0846 75.1446 91.072 74.4432 91.0303 73.3786C91.0052 72.719 90.9885 72.552 90.9468 72.3098C90.7923 71.4623 90.45 70.8361 90.212 70.4395C90.1577 70.3518 90.0993 70.2683 90.045 70.1848C90.0367 70.1723 90.0283 70.1556 90.0241 70.143L89.974 70.0637C89.5524 69.4208 89.018 68.8238 88.4335 68.3437C88.0536 68.0305 87.7947 67.8802 87.3271 67.6089C87.0808 67.4669 86.7719 67.2874 86.3627 67.0369C86.1331 66.895 85.9076 66.753 85.6822 66.6069C85.4234 66.4733 85.1353 66.323 84.8305 66.1685C81.9039 64.6697 79.3781 63.3755 76.0548 63.3755H75.9045C75.2157 63.3838 74.8524 63.4423 74.3473 63.5258C73.7586 63.6218 72.9528 63.7512 71.2202 63.8556C69.1996 63.9767 67.3417 63.9767 65.9724 63.8556C65.4421 63.8097 64.8952 63.7429 64.3483 63.6636C64.2732 63.7638 64.1813 63.8473 64.0811 63.9141C63.8014 64.0977 63.5259 64.1019 63.2837 64.1061C63.0583 64.1061 62.8829 64.1103 62.7034 64.2522C62.6533 64.2898 62.5948 64.3775 62.169 65.2166C61.931 65.6842 61.8308 65.8971 61.7766 66.0099C61.7223 66.1268 61.7098 66.1518 61.668 66.2144C61.3215 66.7363 60.9207 66.8991 60.5992 67.0327C60.3738 67.1246 60.1776 67.2039 60.0106 67.4001C59.7935 67.6506 59.7976 67.8719 59.831 68.3437C59.8644 68.7945 59.902 69.354 59.6766 70.1305C59.4386 70.953 59.067 71.4623 58.399 72.3892C57.6016 73.4872 57.205 74.0383 56.4201 74.4808C55.8064 74.8231 55.3305 74.8816 54.9046 74.9359C54.5205 74.9818 54.1907 75.0235 53.7899 75.2699C53.3641 75.5287 53.0092 75.9212 52.7378 76.4388C52.6919 76.5265 52.646 76.6184 52.6084 76.7144C52.575 76.7895 52.504 76.8396 52.4205 76.8396C52.337 76.848 52.2619 76.7979 52.2285 76.7227C52.1784 76.6267 52.1325 76.5182 52.0907 76.4013C51.8611 75.8001 51.811 75.2031 51.9446 74.6269C52.145 73.7585 52.7044 73.2158 53.0384 72.8902C53.0635 72.8651 53.0885 72.8401 53.1178 72.815C52.3329 73.4412 51.5939 74.1635 51.4394 75.1112C51.3518 75.6498 51.4895 75.9796 51.6482 76.3637C51.8193 76.777 52.0156 77.2404 51.9195 77.9543C51.9028 78.0921 51.8736 78.2299 51.836 78.3677C54.7084 78.9438 57.3762 78.8144 59.6807 77.9794C60.8121 77.5702 62.169 76.8396 64.8785 75.3868C65.4463 75.082 65.893 74.8357 66.2813 74.6228C66.9242 74.2679 67.3877 74.0132 67.8845 73.7752C69.8592 72.7566 72.8777 71.6669 76.0339 72.2514C77.015 72.4351 78.6558 72.7399 79.7538 74.1301C80.6681 75.2866 80.7725 76.6685 80.8226 77.3323C80.8727 77.9794 80.9228 78.6265 80.5763 79.3112C80.5596 79.4657 80.5178 79.6118 80.4594 79.7496C80.3633 79.9708 80.2548 80.0836 80.1588 80.1796C80.0711 80.2673 79.9959 80.3424 79.9166 80.5219C79.8081 80.7641 79.8123 80.9227 79.8248 81.1899C79.8373 81.4362 79.8498 81.7452 79.7747 82.2253C79.7162 82.6219 79.6745 82.8849 79.5158 83.2022C79.3488 83.5362 79.1443 83.745 78.994 83.8911C79.328 83.8911 79.7872 83.7533 80.0627 83.4486C80.2172 83.2774 80.2506 83.1313 80.3049 82.8891C80.3592 82.6511 80.4218 82.3589 80.6264 81.9539C80.6305 81.9414 81.1858 80.8601 81.5949 80.8601C81.6242 80.8601 81.6784 80.8726 81.7077 80.8851C81.9331 80.9895 81.8538 81.2358 81.7703 81.4989C81.6576 81.8412 81.4739 82.4173 81.6283 83.0436C81.7745 83.6406 82.2128 84.2418 82.3798 84.4714C82.4884 84.6217 82.5844 84.7386 82.6637 84.8388C82.8641 85.0851 83.0103 85.2646 83.0311 85.5652C83.0436 85.7531 83.0019 85.9243 82.9393 86.0746C83.0019 85.9953 83.0603 85.9034 83.1063 85.8032C83.3275 85.3189 83.1605 84.7971 83.0979 84.5967C82.9852 84.246 82.8349 84.0539 82.6846 83.8702C82.5176 83.6615 82.3423 83.4444 82.3005 83.0561C82.2462 82.5593 82.4383 82.0499 82.6596 81.7994C82.7598 81.6909 82.86 81.6325 82.9643 81.6325C83.2315 81.6659 83.2691 81.8955 83.3108 82.1627C83.3568 82.4382 83.4236 82.8599 83.6741 83.3066C83.8035 83.532 83.9538 83.7283 84.0707 83.8535C84.0623 83.7825 84.0498 83.699 84.0331 83.6155C83.9914 83.3609 83.9371 83.0102 83.9037 82.576C83.745 80.7014 84.0373 80.6305 84.1959 80.5887C84.2126 80.5887 84.246 80.5804 84.2627 80.5804C84.4506 80.5804 84.5466 80.739 84.6552 80.9227C84.7554 81.0897 84.8806 81.2985 85.0935 81.4696C85.4609 81.7661 85.9411 81.8287 86.2792 81.8287C86.584 81.8287 86.8428 81.7786 87.0182 81.7243C87.0015 81.7243 86.9848 81.716 86.9681 81.7118C86.4754 81.5991 85.6488 81.4154 85.3357 80.7432C85.1019 80.2422 85.2188 79.6034 85.4275 79.2277C85.5611 78.9856 85.7365 78.8394 85.9202 78.8144C85.9285 78.8144 85.9619 78.8144 85.9744 78.8144C86.2416 78.8144 86.3919 79.0482 86.5673 79.3154C86.68 79.4865 86.8053 79.6786 86.9764 79.8498C87.5567 80.4259 88.5713 80.6263 89.9657 80.4468C90.0241 80.4384 90.0868 80.4593 90.1327 80.4969C90.1786 80.5386 90.2037 80.5971 90.2037 80.6555C90.1953 81.5114 90.0659 82.3547 89.8154 83.1563C89.5315 84.0748 89.2601 84.8346 88.5838 85.5485C88.4627 85.678 88.2206 85.8867 87.6402 86.3919C87.0766 86.8803 86.6424 87.2394 86.4963 87.3605L86.4546 87.3939C86.3377 87.4899 86.2124 87.6026 86.0788 87.7279C85.5403 88.4209 84.9725 89.0638 84.3713 89.6567C83.4862 90.5251 83.0478 90.7923 82.5802 90.9509C82.4007 91.0135 82.2128 91.0595 82.0208 91.0928C81.954 91.1262 81.8914 91.1638 81.8329 91.2056C81.812 91.2223 81.7786 91.2473 81.7369 91.2765C81.7995 91.2891 81.8621 91.3058 81.9248 91.3308C82.4717 91.5354 82.7806 92.099 82.8349 92.5374C82.8767 92.8588 82.8015 93.1845 82.6387 93.4767C82.981 93.2346 83.2816 92.9089 83.5363 92.5082C83.5446 92.4956 83.553 92.4831 83.5655 92.4748C84.0832 91.9529 84.8806 91.3058 85.724 91.1972C85.9744 91.1638 86.1373 91.2056 86.2375 91.3266C86.5715 91.74 85.7782 92.8046 85.4192 93.2429C85.3524 93.3223 85.2898 93.3974 85.2355 93.4642C85.1645 93.5477 85.1061 93.6145 85.0601 93.673C85.1436 93.6103 85.2438 93.5561 85.3566 93.5101C85.5236 93.4433 85.7031 93.4099 85.8826 93.4099C86.1456 93.4099 86.4128 93.4809 86.6341 93.6187C86.9764 93.8316 87.1685 94.1698 87.2562 94.5288C87.2603 94.4203 87.2729 94.2992 87.2896 94.1614C87.3313 93.8399 87.3898 93.698 87.4524 93.5519C87.5108 93.4141 87.5693 93.2722 87.6361 92.9256C87.6611 92.8046 87.6778 92.696 87.6903 92.5916C87.7488 92.2034 87.7989 91.8986 88.087 91.7567C88.1705 91.7149 88.2748 91.6857 88.3625 91.694C88.3959 91.694 88.4293 91.694 88.4502 91.6982C88.8176 91.7358 88.972 92.0489 89.0973 92.2994C89.1683 92.4372 89.2434 92.5958 89.3227 92.6167C89.3436 92.6167 89.3603 92.6167 89.3895 92.5916C89.377 92.2911 89.4396 92.0072 89.5732 91.7441C89.7987 91.3016 90.1494 91.001 90.5585 90.9008C90.6921 90.8674 90.8257 90.8549 90.9677 90.8632C90.7422 90.7088 90.571 90.6754 90.4082 90.642C90.2329 90.6044 90.0492 90.5668 89.8738 90.3956C89.8488 90.3706 89.8237 90.3414 89.8029 90.3163C89.7695 90.2704 89.7569 90.2161 89.7611 90.1618C89.8029 89.8529 89.8697 89.5105 90.0909 89.0931C90.3456 88.6129 90.6337 88.3666 90.8633 88.1662C91.118 87.9491 91.2975 87.7947 91.4019 87.4064C91.4854 87.0933 91.4895 86.7384 91.4895 86.1456C91.4895 85.9034 91.4812 85.6988 91.477 85.5402C91.4645 85.1811 91.4561 84.9974 91.6649 84.964C91.6649 84.964 91.6649 84.964 91.6691 84.964C91.8862 84.964 91.9237 85.131 91.9655 85.3064C92.003 85.4734 92.0615 85.7281 92.1784 85.9953C92.4748 86.6674 92.9883 87.0515 93.5853 87.4941C93.9611 87.7738 94.316 88.0368 94.4496 88.0368C94.4621 87.995 94.4245 87.7613 94.3953 87.5483C94.3535 87.277 94.2993 86.9096 94.2742 86.4378C94.1782 84.6175 94.4412 82.5802 94.4454 82.5593C94.4537 82.5008 94.483 82.4507 94.5289 82.4173L94.7168 82.2796C94.7251 80.906 94.7042 80.0001 94.6875 79.8957C94.6708 79.7955 94.6374 79.7036 94.6374 79.7036V79.712Z" fill="#F6921E"/>
<path d="M54.5747 71.8674C55.0382 71.5918 55.4181 71.3705 55.7228 71.1743C55.6226 71.2286 55.5183 71.2787 55.4097 71.3288C54.9213 71.5709 54.3743 71.8381 53.6729 72.3725C53.6395 72.3976 53.6062 72.4226 53.5728 72.4477C53.7189 72.3558 53.8692 72.2682 54.0487 72.168C54.199 72.0845 54.3702 71.9884 54.5747 71.8674Z" fill="#F6921E"/>
<path d="M83.2775 88.1078C83.2357 88.0118 83.1647 87.9325 83.0645 87.8573C83.0562 87.8573 83.052 87.849 83.0478 87.8448C82.8558 87.707 82.5844 87.6068 82.2797 87.5651C81.6033 87.4649 81.0773 87.849 80.8894 87.9826C80.4552 88.2957 80.163 88.7215 80.0586 88.9637C80.2214 88.8927 80.451 88.8008 80.76 88.7967C81.1984 88.7967 81.4655 88.9511 81.7035 89.0931C81.7536 89.1223 81.8037 89.1515 81.8538 89.1766C82.3172 89.3645 82.8266 89.2935 83.0979 88.9845C83.2816 88.78 83.4069 88.4 83.2733 88.1078H83.2775Z" fill="#F6921E"/>
<path d="M30.0596 34.155H28.469V42.9057H30.0596V34.155Z" fill="#F6921E"/>
<path d="M29.1744 57.8812C28.8613 57.8645 28.6066 57.9814 28.4438 58.0858C28.4563 58.1234 28.4688 58.1568 28.4814 58.186C28.5273 58.3113 28.6316 58.5993 28.3728 58.7622C28.4104 58.9083 28.4688 59.0377 28.5481 59.1546C28.736 59.4301 28.9865 59.5554 29.1702 59.6472C29.3456 59.7307 29.6044 59.8602 29.5585 60.1608C29.5126 60.453 29.166 60.5657 29.0491 60.6033C28.878 60.6576 28.6776 60.6951 28.4647 60.7118V61.789C28.6609 61.9309 28.8863 61.9935 29.07 62.0436C29.3038 62.1063 29.6211 62.1939 29.6295 62.5321C29.6295 62.7116 29.5334 62.8745 29.333 63.0164C29.1201 63.1709 28.8028 63.2961 28.4647 63.3629V64.2146C28.7235 64.4025 29.0241 64.4234 29.2704 64.4442C29.5126 64.4609 29.8424 64.4902 29.9134 64.8158C29.9509 64.987 29.8841 65.1665 29.7171 65.3502C29.5042 65.5756 29.0575 65.8721 28.4647 66.0057V90.3705H30.0637V64.7699C30.0637 64.7699 30.0637 64.749 30.0637 64.7407V58.3822C29.905 58.186 29.6044 57.9105 29.166 57.8896L29.1744 57.8812Z" fill="#F6921E"/>
<path d="M91.3226 91.6606C91.189 91.5813 91.0387 91.5354 90.8884 91.5354C90.83 91.5354 90.7757 91.5438 90.7172 91.5563C90.496 91.6106 90.2998 91.7901 90.1662 92.0573C90.0743 92.241 90.0367 92.4455 90.0618 92.6585C90.0994 92.8923 90.2121 93.0551 90.3415 93.2388C90.5001 93.4684 90.6838 93.7314 90.7089 94.1531C90.7298 94.462 90.6546 94.6958 90.6003 94.8628C90.8341 94.7376 91.2391 94.4161 91.5105 93.961C91.6357 93.7523 91.9655 93.2012 91.8153 92.5416C91.7735 92.3537 91.6399 91.8903 91.3226 91.6523V91.6606Z" fill="#F6921E"/>
<path d="M63.0581 94.0237C63.0581 94.0237 63.0289 94.0237 63.0164 94.0237C62.6072 94.0529 62.3734 94.4662 62.3734 94.4704C62.244 94.7084 62.2732 94.9589 62.315 95.2762C62.3526 95.5768 62.4444 95.8648 62.5947 96.1362C62.72 96.3199 62.8619 96.466 62.9412 96.5412C63.3086 96.9002 63.772 97.1256 64.0476 97.1883L64.01 97.1298C63.8305 96.942 63.7136 96.6998 63.6885 96.4451C63.6677 96.2406 63.7094 96.107 63.7595 95.965L63.8138 95.7855C63.8889 95.5016 64.0351 94.9213 63.8138 94.5163C63.676 94.2658 63.3796 94.0237 63.0623 94.0237H63.0581Z" fill="#F6921E"/>
<path d="M48.4585 49.6526C48.4585 49.6526 48.4877 49.6651 48.5044 49.6735C48.9177 49.1265 49.2309 48.684 49.3728 48.4544C49.1849 48.3542 48.8301 48.1955 48.4209 48.0327C48.5378 48.3792 48.4961 48.7383 48.2999 49.0055C48.2289 49.1015 47.9617 49.4146 47.5484 49.3729C47.5191 49.3729 47.4899 49.3645 47.4607 49.3603C47.4649 49.377 47.4732 49.3937 47.4774 49.4104C47.7279 49.4271 48.0911 49.4814 48.4627 49.6568L48.4585 49.6526Z" fill="#F6921E"/>
<path d="M32.5352 63.8013C32.5645 63.9683 32.8316 64.415 33.0112 64.678C33.0279 64.703 33.0404 64.7365 33.0446 64.7657C33.412 67.2957 34.0967 70.0303 34.5935 70.2348C34.7897 70.3142 35.2155 70.4102 36.1424 70.4394C36.7811 68.3102 37.8583 66.3062 39.2652 64.6363C39.3696 64.5152 39.474 64.3899 39.5825 64.273C37.5284 63.1709 35.0736 61.8557 34.4807 61.5468C33.4996 61.0333 33.2742 60.954 33.2658 60.954C33.1823 60.9247 33.1239 60.8496 33.1197 60.7619C33.0613 59.3216 32.7273 57.3343 31.4664 56.0526C31.3829 55.9691 31.1283 55.7061 30.8277 55.4973C30.5313 55.3679 30.1806 55.2844 29.8215 55.2719C29.2871 55.2552 28.8488 55.393 28.5356 55.5433C28.9448 55.9566 29.1118 56.3365 29.045 56.7081C28.9991 56.9669 28.8488 57.1297 28.7152 57.2591C28.8655 57.2257 29.0283 57.2091 29.2078 57.2174C29.9718 57.2592 30.4478 57.756 30.669 58.0649C30.7066 58.1025 30.7275 58.1526 30.7275 58.211V64.3983C30.9738 64.3023 31.1826 64.2021 31.3412 64.0935C31.5165 63.9724 31.6627 63.8597 31.7754 63.772C31.9883 63.605 32.101 63.5132 32.243 63.5132C32.2973 63.5132 32.4851 63.5341 32.5311 63.8013H32.5352Z" fill="#F6921E"/>
<path d="M27.7301 57.7728C27.7301 57.681 27.7468 57.585 27.776 57.4806C27.8678 57.1424 28.0724 56.9504 28.2185 56.8126C28.3271 56.7082 28.3814 56.6539 28.3939 56.5871C28.4189 56.4452 28.2853 56.2198 28.0223 55.9651C27.9096 55.9818 27.8094 56.011 27.7217 56.0528C27.5798 56.1864 27.4128 56.3993 27.3585 56.6832C27.2834 57.0923 27.4838 57.4555 27.6633 57.6852C27.6883 57.7144 27.7092 57.7436 27.7342 57.7728H27.7301Z" fill="#F6921E"/>
<path d="M60.5074 88.9969C60.6953 88.8215 60.8665 88.5084 60.7955 88.2329C60.7412 88.0116 60.5408 87.8488 60.4532 87.7778C60.4281 87.7569 60.4031 87.7402 60.3738 87.7194C60.2611 87.6484 60.0566 87.5482 59.756 87.4814C59.6516 87.4605 59.543 87.448 59.4387 87.448C58.921 87.448 58.516 87.7027 58.3448 87.8112C57.8898 88.0951 57.5766 88.5043 57.4556 88.738C57.6059 88.6838 57.8188 88.6128 58.0943 88.6128H58.1695C58.5953 88.6337 58.8583 88.809 59.0921 88.9635C59.3051 89.1054 59.4888 89.2265 59.7935 89.2432C60.0774 89.2432 60.3321 89.1597 60.5116 88.9927L60.5074 88.9969Z" fill="#F6921E"/>
<path d="M86.2792 94.195C86.1623 94.124 86.0204 94.0864 85.8784 94.0864C85.7824 94.0864 85.6864 94.1031 85.5987 94.1365C85.3733 94.2242 85.2605 94.4121 85.1478 94.5874C85.1019 94.6626 85.0643 94.7377 85.0351 94.8087C85.01 94.8797 84.9975 94.9089 84.9892 94.9381C84.9599 95.0383 84.9349 95.1427 84.9265 95.2512V95.3097C84.8931 95.748 85.0476 96.128 85.1186 96.2866C85.3232 96.7793 85.6739 97.1592 85.8868 97.3136C85.8534 97.1383 85.8158 96.8962 85.8826 96.5914C85.9703 96.1739 86.1874 95.9443 86.3794 95.7397C86.4504 95.6646 86.5214 95.5894 86.584 95.5059C86.5923 95.4767 86.6007 95.4516 86.609 95.4224C86.6925 95.0759 86.6842 94.4329 86.2834 94.1866L86.2792 94.195Z" fill="#F6921E"/>
<path d="M51.0178 76.6227C50.8424 76.2052 50.6462 75.7334 50.7631 75.007C50.9969 73.5666 52.2035 72.6523 53.2639 71.8466C54.0195 71.2746 54.5999 70.9865 55.1092 70.736C55.7354 70.4271 56.1446 70.2267 56.5871 69.6506C56.8084 69.3625 56.9879 69.041 57.1257 68.6862C57.1967 68.5025 57.2593 68.3104 57.3052 68.1142C57.3303 68.0182 57.4096 67.9514 57.5181 67.9514C57.6183 67.9514 57.7018 68.0307 57.7185 68.1309C57.7561 68.3605 57.7728 68.586 57.7812 68.7989C57.7979 69.5462 57.635 70.1766 57.2969 70.6776C56.8961 71.2704 56.2323 71.6629 54.913 72.4436C54.7001 72.5688 54.5289 72.6649 54.3744 72.7525C53.9694 72.978 53.7691 73.0907 53.4852 73.3704C53.1846 73.6627 52.7337 74.101 52.575 74.7774C52.5207 75.0153 52.5082 75.2575 52.5333 75.5038C52.7921 75.1698 53.0927 74.8984 53.4309 74.6939C53.9569 74.3766 54.4078 74.3181 54.8086 74.2722C55.2094 74.2221 55.5851 74.1762 56.082 73.8965C56.7416 73.5249 57.1132 73.0156 57.848 72.001C58.4742 71.1327 58.8207 70.6567 59.0295 69.9428C59.2215 69.279 59.1881 68.7863 59.1589 68.3897C59.1255 67.8971 59.0921 67.4337 59.4971 66.9619C59.7684 66.6488 60.069 66.5235 60.3362 66.415C60.6368 66.2897 60.8706 66.1937 61.1044 65.843C61.1253 65.8096 61.1294 65.8054 61.167 65.722C61.2213 65.6092 61.3215 65.3963 61.5636 64.9204C62.0396 63.9685 62.1147 63.8641 62.2776 63.7347C62.6366 63.4508 62.9998 63.4466 63.2628 63.4424C63.4716 63.4424 63.5927 63.4341 63.7012 63.3631C63.7346 63.3381 63.768 63.3088 63.7972 63.2713C63.697 62.7995 63.5593 62.3319 63.3923 61.881C63.2712 61.5595 63.1251 61.2088 62.9581 60.8665C62.6157 60.7705 62.2984 60.6202 62.0104 60.4198C61.9686 60.3906 61.9269 60.3613 61.8893 60.3321C61.8768 60.5242 61.8601 60.7204 61.835 60.9083C61.7014 61.9228 61.3716 62.8997 60.8623 63.8182C60.8205 63.8975 60.7746 63.9727 60.7245 64.052C60.6911 64.1104 60.6285 64.148 60.5617 64.1522C60.4907 64.1564 60.4281 64.1313 60.3863 64.077C60.3237 64.0061 60.2652 63.9309 60.211 63.8516C60.1859 63.814 60.1567 63.7764 60.1316 63.7347C60.0815 63.6554 60.0314 63.5719 59.9855 63.4884C59.664 64.1647 59.28 64.8118 58.8374 65.4172C58.2529 66.2188 57.1591 67.7134 55.1885 68.6862C53.9736 69.2873 52.6418 69.5879 51.2349 69.5879C51.0219 69.5879 50.8174 69.5796 50.6212 69.5671C50.3707 69.5504 50.1369 69.5295 49.9198 69.4961C49.8196 69.4836 49.7402 69.4001 49.7361 69.2957C49.7319 69.1913 49.8029 69.1036 49.9031 69.0828C50.1202 69.0368 50.3289 68.9784 50.5335 68.9074C51.1347 68.707 51.6899 68.4106 52.1826 68.0223C52.646 67.6591 53.0593 67.2124 53.3933 66.7198C53.1386 66.8575 52.8798 66.9828 52.6126 67.0913C51.9864 67.346 51.5438 67.4295 51.1138 67.513C50.6379 67.6048 50.1953 67.6883 49.5023 67.9973C48.7132 68.3522 47.6277 68.8323 47.0349 69.9178C46.8721 70.2142 46.7552 70.5398 46.6842 70.8822C46.6466 71.0575 46.6257 71.2412 46.6132 71.4249C46.609 71.5001 46.5631 71.5669 46.4963 71.6003C46.4295 71.6337 46.3502 71.6295 46.2876 71.5877C46.2667 71.5752 46.2417 71.5502 46.2291 71.5335C46.1665 71.4667 46.0914 71.379 46.0162 71.283C45.5486 70.6985 45.2313 70.0347 45.081 69.3166C45.0017 68.9366 44.7554 67.776 45.2856 66.7239C45.6947 65.9057 46.3335 65.6426 47.0766 65.342C47.5442 65.15 48.1245 64.912 48.7967 64.482C49.4605 64.0562 51.0219 63.0583 51.6649 61.3592C51.9112 60.7079 52.12 59.6767 51.811 58.324C51.5355 59.2508 50.976 60.3321 49.8488 61.0544C49.0764 61.5512 48.1412 61.8059 47.0725 61.8059C46.8178 61.8059 46.6174 61.7933 46.4838 61.7808C45.8826 61.7391 45.2898 61.6055 44.7136 61.3884C44.079 61.7474 43.457 62.144 42.8725 62.5657C42.3798 62.9206 41.6367 63.455 40.8393 64.1731C40.522 64.4904 40.2047 64.8327 39.9083 65.1834C38.5097 66.845 37.4618 68.8448 36.8648 70.974C36.9107 70.903 36.9608 70.8279 37.0109 70.7527C37.3031 70.3352 37.5494 70.0764 37.8584 69.7549C38.6057 68.9742 39.5158 68.2353 40.5596 67.5673C40.714 67.4671 40.9186 67.513 41.0188 67.6675C41.119 67.8219 41.0731 68.0265 40.9186 68.1267C39.9876 68.7237 39.1735 69.3708 38.493 70.0555L38.2968 70.2601C38.0003 70.569 37.7958 70.7903 37.5578 71.1327C37.5244 71.1786 37.4952 71.2203 37.4701 71.2621C37.4701 71.2621 37.4701 71.2704 37.4618 71.2704C37.3282 71.4792 37.2697 71.6128 37.2071 71.7464C37.132 71.9176 37.0526 72.0887 36.8439 72.406C36.8314 72.4269 36.8147 72.4519 36.798 72.4728L36.7687 72.5146C36.3596 73.1199 36.0632 73.3495 35.8503 73.479C35.6624 73.6126 35.4495 73.7211 35.2324 73.7963C34.8984 73.909 34.5602 73.9215 34.2179 73.8965C33.9173 73.8756 33.6083 73.8798 33.2827 73.9841C32.5187 74.2346 31.8465 74.8943 31.5668 75.6583C31.4833 75.8921 31.4374 76.1259 31.4207 76.3388C31.4833 76.2136 31.5626 76.0883 31.6711 75.9714C32.0427 75.5581 32.5479 75.4537 32.79 75.4036C33.433 75.27 33.934 75.412 34.3807 75.5664C34.7481 75.6917 35.0946 75.8128 35.6081 75.7835C35.796 75.7752 36.7646 75.6875 37.466 75.0237C37.7916 74.7147 37.9001 74.4392 38.017 74.1428C38.1423 73.8171 38.2717 73.4831 38.6767 73.145C39.2403 72.669 39.9751 72.4979 40.4677 72.4979C40.8017 72.4979 40.9938 72.573 41.048 72.7317C41.1274 72.9613 40.9103 73.074 40.6556 73.2034C40.3592 73.3537 39.8624 73.6084 39.3948 74.101C39.2069 74.2973 38.2717 75.3493 38.3009 76.7271C38.3135 77.4368 38.5681 78.0547 38.5723 78.063C38.6308 78.2008 38.6767 78.2885 38.731 78.3845C38.7936 78.4972 38.8604 78.6225 38.9564 78.8396C39.0775 79.1193 39.3029 79.637 39.3572 80.1004C39.4449 80.8477 39.0775 81.428 38.8604 81.7746C38.8604 81.7787 38.852 81.7829 38.852 81.7913C39.2695 81.6326 40.0168 81.1191 40.2966 80.3426C40.3967 80.0545 40.3842 79.8833 40.355 79.4742C40.33 79.1485 40.2966 78.706 40.3091 77.9879C40.3216 76.9984 40.33 76.5016 40.4677 76.1384C41.0105 74.7314 42.7097 73.9257 43.0896 73.9257C43.1814 73.9257 43.2524 73.9591 43.2983 74.0134C43.4027 74.1428 43.3276 74.2847 43.2983 74.3307C43.0478 74.8024 43.1856 75.7376 43.4486 76.4223C43.624 76.8774 43.8202 77.0986 43.9747 77.274C44.0916 77.4034 44.2001 77.5287 44.2544 77.6957C44.2878 77.8042 44.2878 77.8919 44.2878 77.9545C44.2961 78.7143 43.7325 79.2195 43.6657 79.2738C43.4945 79.4199 43.361 79.4783 43.2524 79.5243C43.2023 79.5451 43.1522 79.566 43.0979 79.5994C42.7472 79.8249 42.5886 80.4678 42.647 81.4656C42.6095 81.8539 42.6596 82.1795 42.789 82.4718C42.9142 82.7515 43.1188 83.002 43.386 83.2066C43.1898 82.6972 43.1606 82.1211 43.3192 81.6201C43.5196 80.9897 43.9162 80.7266 44.3796 80.4261C44.6886 80.2215 45.0393 79.9919 45.4275 79.5952C45.5862 79.4282 46.4086 78.5348 46.7385 77.3032C46.9347 76.5726 46.8595 76.1301 46.7719 75.6249C46.6884 75.1448 46.5965 74.5979 46.7969 73.8255C46.9931 73.0698 47.5108 71.9635 48.8468 70.974C50.0575 70.0764 51.3518 69.8677 52.2243 69.8468C52.3537 69.8468 52.479 69.8468 52.5959 69.8468C52.6794 69.8468 52.7545 69.9052 52.7838 69.9846C52.813 70.0639 52.7921 70.1516 52.7337 70.21C52.646 70.2935 52.5541 70.377 52.4623 70.4563C52.12 70.7569 51.7567 71.0366 51.381 71.2871C50.784 71.6838 50.3039 71.9092 49.8822 72.1054C49.281 72.3893 48.8844 72.5772 48.5295 73.0824C48.1037 73.6961 48.0202 74.3766 47.9742 74.744C47.8991 75.3702 47.8281 75.9589 48.1454 76.4766C48.2915 76.7145 48.4502 76.8106 48.6506 76.9275C48.8969 77.0736 49.2059 77.2489 49.4689 77.7082C49.64 78.0046 49.9198 78.61 49.8738 79.3614C49.853 79.6787 49.7778 79.9543 49.686 80.1881C50.3331 79.6913 51.0971 78.8563 51.2265 77.8585C51.2975 77.3199 51.1597 76.9901 51.0011 76.606L51.0178 76.6227Z" fill="#F6921E"/>
<path d="M58.8791 92.9423C58.829 92.8296 58.6745 92.5499 58.3406 92.4288C58.232 92.3912 58.1276 92.3745 58.0316 92.3745C57.8646 92.3745 57.7268 92.4204 57.6433 92.4538C57.493 92.5373 57.3135 92.6751 57.1632 92.8379C56.6998 93.3347 56.7082 93.9735 56.7123 94.2157C56.7207 94.7459 56.9002 95.2218 57.038 95.4473C57.0714 95.2677 57.1298 95.0256 57.3135 94.7751C57.5515 94.4578 57.8396 94.3451 58.1151 94.2365C58.3614 94.1363 58.5994 94.0445 58.8081 93.7982C58.8582 93.7397 58.9 93.6771 58.9376 93.6186C59.0294 93.3014 58.9042 92.9966 58.8791 92.9381V92.9423Z" fill="#F6921E"/>
<path d="M50.6045 80.309C50.6212 80.3383 50.6379 80.3633 50.6546 80.3925C50.8926 80.7891 51.022 81.1398 51.1097 81.3862C51.1806 81.0563 51.2433 80.5011 51.2266 79.8331C51.2266 79.7579 51.2224 79.6828 51.2182 79.6118C51.0429 79.854 50.8383 80.0878 50.6045 80.309Z" fill="#F6921E"/>
<path d="M51.0303 70.7483C51.0762 70.7191 51.118 70.6899 51.1597 70.6606C50.4667 70.8151 49.8279 71.1074 49.2601 71.5249C49.0138 71.7044 48.8009 71.8922 48.6172 72.0759C48.922 71.8463 49.256 71.6919 49.615 71.5207C50.0241 71.3286 50.4792 71.1115 51.0303 70.7483Z" fill="#F6921E"/>
<path d="M48.663 81.2318C48.4209 81.0063 48.6129 80.7349 48.7298 80.5763C48.901 80.33 49.1891 79.9208 49.2267 79.3363C49.2642 78.7602 49.043 78.2884 48.9094 78.0588C48.7298 77.754 48.5545 77.6497 48.3332 77.5202C48.0952 77.3825 47.8281 77.2238 47.5943 76.8397C47.5734 76.8063 47.5525 76.7688 47.5358 76.7354C47.5191 76.9608 47.4774 77.2113 47.4022 77.491C47.039 78.8479 46.1831 79.8081 45.9285 80.0711C45.4943 80.522 45.0935 80.785 44.772 80.9938C44.3545 81.2693 44.104 81.4321 43.9788 81.8329C43.8285 82.3047 43.912 82.8641 44.1917 83.29C44.3086 83.4737 44.4631 83.6282 44.6509 83.7618C44.8931 83.9288 45.1269 84.0081 45.2479 84.0415C45.2605 84.0415 45.2939 84.0582 45.3064 84.0624C45.3941 84.1083 45.44 84.2043 45.4149 84.3003C45.3899 84.3963 45.3064 84.4673 45.2062 84.459C44.9223 84.4506 44.6426 84.4172 44.3754 84.3588C43.3525 84.1333 42.5635 83.5447 42.2128 82.7514C42.2002 82.7264 42.1919 82.6972 42.1794 82.6721L38.3134 91.573C38.28 91.6524 38.2007 91.7066 38.113 91.7025L35.1947 91.5939C34.9693 91.715 34.8315 91.8068 34.7563 91.8611C35.1947 91.9822 35.5538 92.2494 35.7458 92.6084C36.0381 93.1554 35.8794 93.7357 35.7625 94.0363C35.6957 94.2074 35.6039 94.3619 35.487 94.508C35.5788 94.4496 35.6999 94.3536 35.7876 94.2826C36.0381 94.0822 36.3512 93.8359 36.6977 93.7357C36.9106 93.673 37.2237 93.5102 37.5285 93.3516C37.9752 93.122 38.3593 92.9216 38.614 92.9216C38.8311 92.9216 38.9146 93.0551 38.9396 93.1136C39.0565 93.3766 38.7852 93.7482 38.209 94.4997C37.9001 94.9005 37.4325 95.5058 37.4241 95.7021C37.5744 95.5768 37.7456 95.4808 37.9335 95.4182C38.4512 95.247 39.0482 95.3514 39.4281 95.6854C39.6953 95.9192 39.8623 96.274 39.8999 96.6623C39.9416 96.5078 39.9875 96.3408 40.0293 96.1738C40.2422 95.3472 40.4468 94.5623 40.8768 94.3995C41.2275 94.2659 41.4446 94.1281 41.5156 93.3432C41.6617 91.786 41.9873 91.7776 42.1293 91.7776C42.2754 91.786 42.3881 91.8653 42.4883 92.0448C42.6971 92.4289 42.5384 92.9716 42.3839 93.4977C42.3004 93.7816 42.2086 94.1031 42.2378 94.2492C42.2754 94.4287 42.3756 94.5581 42.505 94.7209C42.647 94.9046 42.8265 95.1301 42.9517 95.485C43.077 95.844 43.102 96.1863 43.1187 96.4619C43.1313 96.6581 43.1438 96.846 43.1939 96.9337C43.1939 96.9337 43.2064 96.9337 43.2231 96.9337C43.2231 96.7792 43.2482 96.6247 43.2899 96.4786C43.3024 96.4368 43.6197 95.4307 44.58 95.3138C45.0809 95.2512 45.5945 95.4683 45.9326 95.8732C45.9619 95.8482 45.9786 95.8231 45.9953 95.7939C46.0412 95.6937 46.0245 95.5392 45.9493 95.3472C45.7406 94.8086 45.3147 94.0697 44.939 93.4142C44.5591 92.7504 44.2293 92.1742 44.1207 91.8277C43.9996 91.4395 43.9412 91.022 43.9454 90.5544C43.9454 90.475 43.9913 90.4041 44.0623 90.3665C44.3503 90.1786 44.6217 89.6317 44.5591 89.1892C44.5549 89.1474 44.5424 89.1015 44.534 89.0514C44.4881 88.8301 44.4297 88.5254 44.5758 88.1914C44.6134 88.1037 44.6509 88.0494 44.6885 88.0035C44.7052 87.9784 44.7261 87.9492 44.7511 87.9116C44.7804 87.8615 44.8138 87.8031 44.843 87.7321C44.8764 87.657 44.9474 87.611 45.0267 87.6069C45.106 87.6069 45.1811 87.6444 45.2229 87.7154C45.5986 88.3959 46.0203 88.7383 46.1539 88.7383C46.2917 88.6339 46.3877 87.6027 46.1163 86.5381C46.0788 86.3961 46.0412 86.2709 46.0036 86.154C45.8909 85.7991 45.8032 85.5194 46.0036 85.3274C46.1372 85.2021 46.3376 85.1771 46.6215 85.2647C46.6674 85.2773 46.705 85.3065 46.73 85.3441C47.2477 86.0747 47.6527 86.4003 47.8197 86.4003C48.0034 86.3335 48.0994 85.5152 47.8907 84.555C47.707 83.7158 47.302 83.0103 46.9972 82.5719C46.9471 82.5009 46.9471 82.4091 46.9972 82.3339C47.0432 82.263 47.1308 82.2254 47.2143 82.2421C47.3646 82.2713 47.5108 82.3172 47.6485 82.3757C48.4209 82.6971 48.8133 83.3401 49.0722 83.7659C49.1432 83.8828 49.235 84.0373 49.2935 84.0957C49.4771 83.8828 49.7151 82.622 49.3102 81.261C49.3102 81.2484 49.3018 81.2359 49.2976 81.2234C49.2601 81.2401 49.2225 81.2568 49.1891 81.2693C49.0471 81.3194 48.8092 81.3445 48.6797 81.2234L48.663 81.2318Z" fill="#F6921E"/>
<path d="M43.34 53.9861C43.3567 54.0069 43.3734 54.032 43.3942 54.057C43.4151 53.8274 43.436 53.5018 43.4485 53.1177H43.4068C43.0936 53.1678 42.9308 53.2346 42.7262 53.3181C42.7012 53.3264 42.6803 53.3389 42.6553 53.3473C42.6887 53.3473 42.7513 53.364 42.7763 53.3765C42.9517 53.46 43.1229 53.6813 43.3441 53.9819L43.34 53.9861Z" fill="#F6921E"/>
<path d="M41.7786 54.3951L41.8537 54.512C41.9205 54.6205 41.9957 54.7332 42.0583 54.8334C42.0583 54.8334 42.0583 54.8293 42.0583 54.8251C42.1543 54.1154 42.2378 53.6185 42.434 53.4307C42.3714 53.4515 42.3046 53.4724 42.2295 53.4933C41.979 53.5643 41.5657 53.6519 41.0688 53.6311C41.3235 53.748 41.5364 54.0193 41.7744 54.3909L41.7786 54.3951Z" fill="#F6921E"/>
<path d="M40.2423 53.4977C40.2214 53.4893 40.2006 53.4852 40.1797 53.4768C40.1964 53.7398 40.2131 53.9862 40.2298 54.2116C40.2966 53.8818 40.401 53.6396 40.6139 53.5854C40.4928 53.5645 40.3676 53.5353 40.2423 53.4977Z" fill="#F6921E"/>
</g>
<defs>
<clipPath id="clip0_242_13">
<rect width="120" height="120" fill="white"/>
</clipPath>
</defs>
</svg>
