<svg width="120" height="120" viewBox="0 0 120 120" fill="none" xmlns="http://www.w3.org/2000/svg">
<g clip-path="url(#clip0_840_9362)">
<path d="M60 120C93.1371 120 120 93.1371 120 60C120 26.8629 93.1371 0 60 0C26.8629 0 0 26.8629 0 60C0 93.1371 26.8629 120 60 120Z" fill="black"/>
<path d="M98.351 42.1167C98.417 42.1811 98.5272 42.224 98.6263 42.224C98.8907 42.224 99.078 41.9557 98.9678 41.7195C96.1368 35.7623 88.4587 35.8589 84.1185 39.7123C83.3804 38.9931 82.7525 38.2096 82.389 37.3509C80.8578 34.1629 84.1295 30.4169 87.2139 32.2309C87.291 32.2738 87.4012 32.2631 87.4563 32.1879C87.4893 32.145 87.5003 32.0699 87.4673 32.0269C86.4318 30.1163 82.3339 30.7496 80.7036 32.3275C78.5445 34.5279 78.5775 36.943 79.3817 38.8643C79.9765 40.2919 80.8798 41.5048 81.9043 42.6319C81.706 43.0398 81.5408 43.4691 81.4086 43.9092C81.0891 44.9826 79.1063 52.3352 82.3559 58.6789C83.2482 60.4285 84.5701 62.2317 85.9581 64.1531C86.9055 65.4519 87.8749 66.7829 88.7451 68.146C86.7953 68.7579 84.7023 69.0369 82.7746 69.0799H82.7195C82.7195 69.0799 82.6203 69.0799 82.5653 69.0799C82.4771 69.0799 82.4 69.0799 82.3119 69.0799H82.0695C80.274 69.0584 78.6436 68.8437 77.4649 68.511C76.2642 68.1675 74.8872 67.4269 74.2483 66.6863C73.5543 65.8812 74.0831 65.1191 74.4466 64.8293C74.766 64.5932 75.1296 64.3892 75.5371 64.3356C75.6363 64.3248 75.7354 64.3141 75.8456 64.3141H75.9337C76.6057 64.3355 77.2556 64.6361 77.7513 65.0655C78.2801 65.527 78.5885 66.1603 78.941 66.7507C78.941 66.7507 78.941 66.7507 78.9521 66.7507C80.0536 66.3857 81.0671 64.7112 81.4527 63.5842C81.717 62.8114 81.8382 61.9956 81.8602 61.1798C81.8823 59.3873 81.3315 57.6162 80.4392 56.0491C79.7672 54.8899 78.8309 53.8057 77.6522 53.108V53.2047C77.6522 54.5678 77.2446 55.9096 76.826 56.5536C76.0329 57.584 75.405 57.8309 74.9203 57.8309C74.6118 57.8309 74.3695 57.7236 74.1822 57.6806C74.1822 57.6806 74.1712 57.6806 74.1602 57.6806C74.0941 58.2066 74.1822 58.7647 74.3915 59.2263C74.4135 59.2692 74.3805 59.3122 74.3364 59.3229C74.3144 59.3229 74.3034 59.3122 74.2924 59.2907C73.7526 58.2817 73.6645 57.1225 73.8187 56.1994C73.9068 55.5661 74.4686 53.0651 74.4576 53.0758C74.5678 52.6143 74.6669 52.1957 74.744 51.8844C74.744 51.8844 74.744 51.8844 74.733 51.8844C75.7244 50.6715 76.7269 49.4693 77.7293 48.31C78.2581 47.6982 78.4564 46.8825 78.2691 46.1096C77.7734 44.0273 76.5616 39.6479 74.2593 35.1183C73.8407 34.3025 73.2238 33.594 72.4417 33.0896C70.2826 31.6727 65.4907 29.0107 60.6658 29H60.3133C55.5214 29.0537 50.6964 31.6727 48.5373 33.0896C47.7552 33.594 47.1383 34.3025 46.7197 35.1183C44.4284 39.6586 43.2167 44.0273 42.71 46.1096C42.5227 46.8825 42.721 47.6982 43.2497 48.31C44.2302 49.4478 45.2326 50.65 46.235 51.8736C46.3122 52.1849 46.4113 52.6143 46.5214 53.0758C46.5214 53.0758 47.0722 55.5553 47.1494 56.1779C47.3146 57.101 47.2154 58.271 46.6757 59.2692C46.6757 59.2907 46.6536 59.3014 46.6316 59.3014C46.5986 59.3014 46.5655 59.2585 46.5875 59.2155C46.7968 58.754 46.885 58.1958 46.8189 57.6699H46.7968C46.6206 57.7128 46.3782 57.8094 46.0698 57.8202C45.5961 57.8202 44.9572 57.5625 44.1641 56.5428C43.7455 55.8988 43.3379 54.5464 43.3379 53.1939V53.0973H43.3158C42.1371 53.8165 41.2228 54.8791 40.5509 56.0384C39.6586 57.6055 39.1078 59.3766 39.1298 61.1691C39.1518 61.9849 39.273 62.8006 39.5374 63.5734C39.923 64.7005 40.9254 66.375 42.038 66.7507C42.038 66.7507 42.049 66.7507 42.06 66.7507C42.4015 66.1603 42.721 65.527 43.2497 65.0655C43.7455 64.6361 44.4064 64.3355 45.0784 64.3141H45.1555C45.2546 64.3141 45.3538 64.3141 45.4639 64.3356C45.8715 64.3785 46.235 64.5932 46.5545 64.8293C46.918 65.1191 47.4468 65.8812 46.7528 66.6863C46.1139 67.4269 44.7369 68.1675 43.5361 68.511C42.3575 68.8437 40.7381 69.0584 38.9425 69.0799H38.4578C36.464 69.0584 34.2828 68.7793 32.2449 68.1353C33.1152 66.7721 34.0846 65.4519 35.0319 64.1423C36.4199 62.2317 37.7418 60.4177 38.6341 58.6681C41.9168 52.2708 39.8679 44.8431 39.5705 43.877C39.4383 43.4369 39.273 43.0183 39.0858 42.6104C40.1102 41.4834 41.0135 40.2705 41.6084 38.8429C42.4125 36.9215 42.4456 34.5064 40.2865 32.306C38.6561 30.7282 34.5582 30.0949 33.5228 32.0055C33.4897 32.0591 33.5007 32.1235 33.5338 32.1665C33.5889 32.2416 33.688 32.2523 33.7761 32.2094C36.8606 30.3954 40.1323 34.1415 38.6011 37.3294C38.2375 38.1881 37.6096 38.9717 36.8716 39.6908C32.5424 35.8267 24.8533 35.7408 22.0333 41.6981C21.9231 41.9342 22.0993 42.2025 22.3747 42.2025C22.4739 42.2025 22.573 42.1596 22.6501 42.0952C26.6819 38.2311 31.5179 39.3688 34.1617 42.063C33.9193 42.2669 33.688 42.4816 33.4787 42.6855C32.322 43.8019 30.901 45.208 29.4579 46.7429C26.6929 49.7054 23.5755 53.0866 22.6061 57.0903C21.6367 61.5233 23.267 66.9439 27.0785 69.7239C26.9023 70.0996 26.726 70.4645 26.5718 70.8509C24.9414 74.7473 24.7872 78.3324 26.0981 81.8208C26.9353 84.0427 28.3233 85.8782 30.2511 87.2629C31.9585 88.508 34.0075 89.3345 36.3428 89.7424C37.3563 89.9141 38.4028 90 39.4603 90C41.2999 90 43.1837 89.7424 44.9462 89.2164C46.4884 88.7656 48.9449 87.7459 50.1016 86.8228C50.6964 86.3398 52.8005 84.3218 53.6377 83.7744C53.9461 83.5705 54.1334 83.2162 54.2215 82.8728C54.3537 82.3361 54.3978 78.4183 53.2301 77.2161C52.7013 76.8189 50.7625 77.2697 50.1346 77.7742C50.0796 77.8279 50.0024 77.8708 49.9914 77.9567C49.8813 78.5685 50.0355 79.2018 49.9584 79.8136C49.8813 80.5113 49.672 81.1983 49.3635 81.8316C49.0551 82.4541 48.6585 83.0123 48.1959 83.5383C47.2154 84.354 45.9707 85.041 44.5606 85.5348C44.3623 84.1286 43.9548 82.4971 43.437 81.091C46.3121 78.5256 50.1567 75.8851 54.3317 75.0049C54.4969 75.2733 54.6511 75.5631 54.7723 75.8529C55.279 77.0551 55.4553 78.3538 55.5985 79.6419C55.7307 81.8638 55.7747 84.0964 55.4663 86.3076H59.2227C59.7845 83.4524 60.126 80.4899 60.1811 77.5488C60.2141 71.6667 58.1321 68.4358 56.8763 67.502C56.4687 67.2015 55.8849 67.0297 55.268 66.9117C53.9792 66.6648 52.5361 66.6862 52.4369 66.536C52.4369 66.5252 52.4149 66.5145 52.4149 66.493C52.2827 66.1818 51.6218 64.6039 50.7295 63.391C50.6524 63.2729 50.5753 63.1656 50.4982 63.0475C50.1126 62.5001 49.4296 61.6736 48.9229 61.0403C48.6916 60.7505 48.5373 60.5573 48.5373 60.5573C48.6585 60.5358 49.2093 60.7827 50.388 61.1047C50.4651 61.1262 50.5422 61.1476 50.6303 61.1798C51.0049 61.3194 51.3133 61.4267 51.4125 61.4589C51.7319 61.577 52.0073 61.6843 52.0955 61.7165C52.2387 61.7595 52.47 61.8453 52.7344 61.9741C54.0673 62.5752 55.2129 63.509 56.0612 64.679C57.361 66.4608 58.3525 67.8562 58.8812 68.5861C59.0795 68.8652 59.5091 68.8652 59.7074 68.5861L60.4895 67.4698L61.3267 68.5861C61.525 68.8652 61.9546 68.8652 62.1529 68.5861C62.6376 67.8992 64.1027 64.9903 66.2178 63.3051C66.3389 63.2085 66.4711 63.1119 66.6033 63.0153C66.9889 62.747 68.454 61.9312 69.17 61.6306C69.2361 61.6092 69.3022 61.577 69.3793 61.5448C69.5225 61.5018 70.0843 61.2979 70.6902 61.0832C71.4833 60.8578 72.0121 60.6754 72.3095 60.5787C72.4197 60.5573 72.5078 60.5358 72.5519 60.5465C72.4527 60.6754 72.3315 60.8149 72.1994 60.9866C71.6155 61.6736 70.536 62.9616 70.2055 63.4876C69.9631 63.874 69.7538 64.2175 69.5776 64.5288C69.4895 64.679 69.4123 64.8293 69.3463 64.9581C68.9497 65.6987 68.7514 66.2032 68.6523 66.4286C68.6302 66.4608 68.6082 66.5038 68.5862 66.536C68.5751 66.5574 68.5421 66.5682 68.487 66.5789C67.76 66.7292 65.3145 66.6219 64.1468 67.4913C62.891 68.4251 60.809 71.6452 60.842 77.5381C60.8861 80.4791 61.2386 83.4417 61.8004 86.2968H65.5458C65.2484 84.0857 65.2814 81.8531 65.4136 79.6312C65.5568 78.3539 65.7331 77.0443 66.2398 75.8422C66.361 75.5523 66.5152 75.2625 66.6804 74.9942C70.8554 75.8744 74.7 78.5148 77.5751 81.0802C77.542 81.1553 77.52 81.2412 77.487 81.3164C77.4649 81.3915 77.4319 81.4774 77.3988 81.5525C76.9692 82.8406 76.6277 84.2681 76.4405 85.5133C75.0194 85.0195 73.7746 84.3326 72.8052 83.5168C72.3426 83.0016 71.946 82.4327 71.6376 81.8101C71.3181 81.1768 71.1198 80.4899 71.0427 79.7922C70.9656 79.1696 71.1198 78.5471 71.0096 77.9352C71.0096 77.8494 70.9215 77.7957 70.8664 77.7528C70.2385 77.2483 68.2997 76.7974 67.771 77.1946C66.5923 78.3968 66.6474 82.3146 66.7796 82.8513C66.8677 83.2055 67.0439 83.549 67.3634 83.7529C68.2006 84.3111 70.2716 86.372 70.8995 86.8013C72.5188 87.9176 74.5127 88.7441 76.0549 89.195C77.8174 89.7102 79.6901 89.9785 81.5408 89.9785C82.5983 89.9785 83.6448 89.8927 84.6583 89.7209C86.9826 89.313 89.0315 88.4865 90.75 87.2414C92.6778 85.846 94.0658 84.0213 94.903 81.7994C96.2029 78.3216 96.0486 74.7258 94.4293 70.8295C94.2751 70.4538 94.1098 70.0889 93.9336 69.7239C97.7341 66.9439 99.3754 61.5233 98.406 57.0903C97.4366 53.0866 94.3192 49.7054 91.5542 46.7429C90.1221 45.208 88.69 43.8019 87.5334 42.6855C87.3241 42.4816 87.0928 42.2669 86.8504 42.063C89.4942 39.3688 94.3412 38.2311 98.362 42.0952H98.373L98.351 42.1167ZM28.0479 65.2265C27.9818 65.1298 27.9267 65.0333 27.8716 64.9367V64.9581C26.4726 62.9187 25.9989 60.1387 26.4836 57.8846C27.2878 54.6108 30.1519 51.7341 32.3991 49.319C33.7321 47.9022 35.065 46.5819 36.1776 45.5085C36.3428 46.2062 36.5962 47.4192 36.7063 48.9112C36.8716 51.0686 36.7504 54.2351 35.3183 57.0366C34.5472 58.5393 33.3135 60.2352 32.0136 62.0278C31.0442 63.3588 30.0087 64.7864 29.0393 66.2891C28.6758 65.9671 28.3453 65.6129 28.0589 65.2157L28.0479 65.2265ZM38.6231 86.329C38.9976 85.7709 39.7137 84.8478 40.7161 83.7529C40.7491 83.9247 40.7822 84.0964 40.8042 84.2681C40.8813 84.7512 40.9915 85.6313 41.0686 86.2646C40.2534 86.3505 39.4273 86.3612 38.6231 86.3183V86.329ZM45.552 74.1892C45.486 74.3072 45.3648 74.3824 45.2656 74.4682C44.6157 75.0157 43.2387 76.1212 41.6084 77.581C41.366 77.259 41.1127 76.9477 40.8483 76.6579C40.1873 75.9495 39.3171 75.4235 38.3918 75.123C36.508 74.5326 35.1311 74.436 33.7982 75.2196C32.4652 76.0568 31.3967 78.4504 33.016 80.4147C33.1482 80.565 33.3025 80.6402 33.4787 80.608C33.9854 80.5114 33.9964 79.6956 34.1396 78.9335C34.3159 77.9567 35.2633 77.2912 36.2657 77.4415C36.7614 77.5166 37.2571 77.7313 37.6867 78.0104C38.3587 78.4505 38.8765 79.073 39.2951 79.7385C39.2951 79.7385 39.2951 79.7385 39.2951 79.7492C37.5876 81.4344 35.8581 83.3558 34.5362 85.3308C34.5142 85.363 34.5032 85.3845 34.5032 85.4167C33.7761 85.1161 33.1152 84.7512 32.5093 84.3218C31.1764 83.3558 30.218 82.0892 29.6342 80.5435C29.1164 79.1589 28.9181 77.7742 29.0173 76.3144C29.1164 74.9942 29.4579 73.6525 30.0638 72.1819C30.1739 71.9136 30.2951 71.6452 30.4273 71.3662C30.5705 71.4198 30.7027 71.4842 30.8459 71.5379C31.0552 71.6238 31.2645 71.6989 31.4848 71.7741C33.9634 72.622 36.6072 72.9333 39.229 72.944H39.4052C39.7247 72.944 40.0551 72.944 40.3746 72.9333H40.4407C42.2143 72.9333 43.9768 72.7186 45.7393 72.5361C45.6622 73.0192 45.6842 73.9316 45.5631 74.1677L45.552 74.1892ZM53.6817 44.2098L62.3402 35.612V40.5281L53.6817 49.1151V44.199V44.2098ZM54.585 55.1475L53.7038 56.0276V56.0491L53.6927 51.1223L67.2753 37.7266V42.6426L54.5961 55.1582L54.585 55.1475ZM67.2643 49.5552L58.5948 58.1637V53.2476L67.2643 44.6284V49.5659V49.5552ZM82.1246 86.3505C82.0255 86.3505 81.9373 86.3505 81.8382 86.3505C81.2103 86.3612 80.5824 86.3398 79.9545 86.2754C80.0316 85.6636 80.1308 84.837 80.2079 84.3433C80.2079 84.3218 80.2079 84.3004 80.2079 84.2789C80.2189 84.2038 80.2299 84.1286 80.2409 84.0535C80.2629 83.9569 80.274 83.8603 80.296 83.7637C81.2874 84.8585 82.0145 85.7816 82.389 86.3398C82.3009 86.3398 82.2017 86.3398 82.1136 86.3505H82.1246ZM91.4 80.565C90.8271 82.1107 89.8577 83.3772 88.5248 84.3433C88.0511 84.6868 87.5334 84.9873 86.9826 85.2449C86.9055 85.2771 86.8394 85.3093 86.7623 85.3415C86.6852 85.3737 86.6081 85.4059 86.542 85.4381C86.542 85.4059 86.531 85.3737 86.5089 85.3523C85.187 83.3773 83.4465 81.4559 81.7501 79.7707C81.7501 79.7707 81.7501 79.7707 81.7501 79.76C81.7941 79.6956 81.8272 79.6312 81.8713 79.5668C81.9153 79.5024 81.9594 79.438 82.0035 79.3735C82.378 78.8583 82.8076 78.3753 83.3584 78.0318C83.6999 77.8064 84.0854 77.6347 84.482 77.5273C85.6056 77.2375 86.7402 77.9674 86.9275 79.0837C87.0487 79.8029 87.0817 80.5435 87.5664 80.6294C87.7427 80.6509 87.8969 80.5758 88.0291 80.4362C89.6374 78.4719 88.5689 76.0783 87.247 75.2411C85.9141 74.4575 84.5371 74.5541 82.6534 75.1444C81.7281 75.445 80.8578 75.971 80.1969 76.6794C80.0316 76.8619 79.8774 77.0443 79.7232 77.2375C79.6791 77.3019 79.624 77.3556 79.58 77.42C79.5359 77.4844 79.4808 77.5488 79.4368 77.6025C77.8064 76.1427 76.4294 75.0371 75.7795 74.4897C75.6804 74.4038 75.5702 74.3287 75.4931 74.2106C75.3609 73.9745 75.3829 73.0621 75.3168 72.5791C75.3939 72.5791 75.4821 72.6005 75.5592 72.6005C75.6363 72.6005 75.7244 72.622 75.8015 72.622C77.4209 72.7938 79.0402 72.9655 80.6705 72.9655C81.001 72.9655 81.3205 72.9762 81.6509 72.9762H82.0916C84.6252 72.944 87.1589 72.6328 89.5603 71.8063C89.7696 71.7311 89.9899 71.656 90.1992 71.5809C90.3424 71.5272 90.4856 71.4628 90.6288 71.4091C90.75 71.6775 90.8712 71.9458 90.9924 72.2141C91.5982 73.6739 91.9397 75.0264 92.0389 76.3466C92.138 77.8064 91.9397 79.1911 91.422 80.5758L91.4 80.565ZM88.624 49.3405C90.8822 51.7556 93.7353 54.6215 94.5395 57.906C95.0352 60.1494 94.5505 62.9294 93.1735 64.9689L93.1515 64.9367C93.0303 65.1406 92.9091 65.3231 92.7769 65.5055C92.5346 65.7954 92.2702 66.0744 91.9948 66.3213C91.0254 64.8078 89.9899 63.3802 89.0095 62.0385C87.6986 60.2353 86.4649 58.5393 85.7048 57.0473C84.2727 54.2458 84.1515 51.0793 84.3168 48.9219C84.4269 47.4406 84.6693 46.2384 84.8455 45.53C85.9581 46.6034 87.3021 47.9236 88.635 49.3512L88.624 49.3405Z" fill="#F6921E"/>
</g>
<defs>
<clipPath id="clip0_840_9362">
<rect width="120" height="120" fill="white"/>
</clipPath>
</defs>
</svg>
