<svg width="120" height="120" viewBox="0 0 120 120" fill="none" xmlns="http://www.w3.org/2000/svg">
<g clip-path="url(#clip0_45_4180)">
<path d="M60 120C93.1371 120 120 93.1371 120 60C120 26.8629 93.1371 0 60 0C26.8629 0 0 26.8629 0 60C0 93.1371 26.8629 120 60 120Z" fill="black"/>
<path fill-rule="evenodd" clip-rule="evenodd" d="M69.5008 43.104L80.4857 32.247V72.507L75.6932 77.2425V43.665L72.8935 46.437L69.5008 43.0875V43.104ZM43.7925 43.6815L57.3466 57.0795V77.4735L59.7511 79.833L62.1556 77.4735V55.116L39 32.247V72.54L43.7925 77.2755V43.665V43.6815ZM56.589 36.7845L59.7017 33.699L65.8611 39.7875L69.2538 36.438L59.7182 27L49.8367 36.7845L66.3717 53.0865V79.7505L59.7511 86.301L53.1305 79.7505V59.3235L48.338 54.588V81.714L59.7511 93L71.1642 81.714V51.1395L56.6055 36.7845H56.589Z" fill="#F6921E"/>
</g>
<defs>
<clipPath id="clip0_45_4180">
<rect width="120" height="120" fill="white"/>
</clipPath>
</defs>
</svg>
